<?xml version="1.0" encoding="utf-8"?>
<!-- Generator: Adobe Illustrator 19.0.0, SVG Export Plug-In . SVG Version: 6.00 Build 0)  -->
<svg version="1.1" id="Layer_1" xmlns="http://www.w3.org/2000/svg" xmlns:xlink="http://www.w3.org/1999/xlink" x="0px" y="0px"
	 viewBox="0 0 841.9 595.3" style="enable-background:new 0 0 841.9 595.3;" xml:space="preserve">
<style type="text/css">
	.st0{fill:#BC944F;}
	.st1{fill:#CAAE3E;}
	.st2{fill:#BE984C;}
	.st3{fill:#BD964D;}
	.st4{fill:#C19D49;}
	.st5{fill:#E7E31B;}
	.st6{fill:#EAE917;}
	.st7{fill:#C4A345;}
	.st8{fill:#E8E719;}
	.st9{fill:#E8E619;}
	.st10{fill:#DDD127;}
	.st11{fill:#E0D723;}
	.st12{fill:#E5E01D;}
	.st13{fill:#E4DD1F;}
	.st14{fill:#C2A047;}
	.st15{fill:#CFB738;}
	.st16{fill:#E2DA21;}
	.st17{fill:#C9AC3F;}
	.st18{fill:#D2BD34;}
	.st19{fill:#CCB23B;}
	.st20{fill:#E4DE1E;}
	.st21{fill:#DACC2A;}
	.st22{fill:#D6C52F;}
	.st23{fill:#CEB639;}
	.st24{fill:#D4C032;}
	.st25{fill:#C6A643;}
	.st26{fill:#D0B937;}
	.st27{fill:#C7A941;}
	.st28{fill:#D8C82D;}
	.st29{fill:#C7A842;}
	.st30{fill:#DCCF28;}
	.st31{fill:#D7C62E;}
	.st32{fill:#CEB539;}
	.st33{fill:#D5C231;}
	.st34{fill:#D6C42F;}
	.st35{fill:#BF994B;}
	.st36{fill:#CBB03D;}
	.st37{fill:#D6C430;}
	.st38{fill:#DFD525;}
</style>
<g>
	<path class="st0" d="M372.6,586.2c-4.9-0.8-9.7-2.3-14.4-3.7c-29.4-8.6-56.8-21.7-82.2-38.9c-21.3-14.5-40.4-31.6-57.2-51
		c-17.1-19.7-31.4-41.3-42.9-64.8c-11.3-23.2-19.5-47.5-24.5-72.8c-1.3-6.6-2.3-13.2-3.3-19.9c-0.2-1.1-0.1-2.1-0.2-3.2
		c1.8-1.1,2.6,0.1,3.2,1.4c0.6,1.3,1,2.7,2.9,2.3c0.4-0.1,0.9,0.3,1,0.7c0.4,2.3,2.8,3.1,3.9,5c0.3,0.6,0.8,0.8,1.4,1
		c2.9,0.9,4,2.6,3.9,5.8c0,0.4-0.1,0.8,0.4,1c2.4,1.4,5,2.4,6.6,4.9c3.3-0.6,3.3,1.7,3.3,3.9c0,0.3,0.3,0.6,0.7,0.7
		c2.2,0.6,2.8,2.6,3.7,4.4c0.3,0.7,0.6,1.7,1.4,1.6c2.6-0.1,4,1.6,5.4,3.3c0.7,0.7,0.8,1.6,1.1,2.5c5.2,17.5,11.9,34.5,20.2,50.8
		c8.8,17.4,19.1,34,31.8,48.8c20.5,24,44.2,44.3,71.8,59.9c6.9,3.9,13.8,7.5,21,10.8c0.8,0.3,1.8,0.5,1.8,1.7
		c-0.8,0.7-1.6,1.2-2.8,0.6c2.2,1.6,3.8,4,6.1,5.5c1.4,1,2.6,2,2.9,3.8c0.2,1.2,1,2,2.2,2.3c3.6,1.1,5.9,3.7,7.9,6.7
		c0.8,1.1,1.4,2.3,2.9,2.2c0.3,0,0.9,0,0.9,0.2c0.4,1.9,2.4,2.8,2.9,4.4c0.9,2.7,2.8,4.4,5.1,5.7c0.4,0.2,1,0.3,1.3,0.7
		c1.3,2.1,2.7,3.8,5,5.1c1.4,0.8,2.7,2.5,4,3.9C372.6,584.4,373.5,585,372.6,586.2z"/>
	<path class="st1" d="M223.3,100.4C226.9,96,231,92,235,88c1.3-1.3,2.6-2.8,4.2-3.8c0.1,0.1,0.3,0.3,0.2,0.4c-1.9,2.5-0.1,4,1.6,5.5
		c3.7,3.2,6.6,7.2,10.1,10.5c3.8,3.7,7.1,8.1,11.8,10.7c8.2,11,19,19.6,28.6,29.2c0.5,0.5,1,0.9,1.4,1.4
		c48.8,48.8,97.7,97.7,146.6,146.5c2.1,2.1,3.8,4.4,3.5,7.6c-0.1,1.3-0.4,2.5-1.1,3.5c-1.3,2-2.8,3.9-4.7,5.4
		c-5.6,4.2-9.2,4.1-13.8-1.2c-4.8-5.5-10-10.7-15.3-15.6c-7.7-7.2-14.8-15-22.6-22.1c-8.8-8.1-17-16.8-25.5-25.1
		c-2.1-2.1-4.5-3.9-6.6-6.1c-0.7-0.8-1.6-1.4-1.8-2.6c-0.4-3.3-3-5-5.1-7c-3.2-3-6.7-5.6-9.1-9.3c-0.9-1.3-2.3-1.9-3.4-2.9
		c-3.4-3.1-6.5-6.5-9.6-9.9c-1.1-1.2-2.6-1.8-3.6-3c-4-4.3-7.9-8.7-12.2-12.7c-3.4-3.1-5.7-7.1-9.3-9.8
		c-6.5-4.9-11.3-11.5-17.4-16.8c-2-1.7-3.7-3.8-5.8-5.3c-0.2-0.1-0.4-0.3-0.5-0.5c-2.7-5-7.4-8.2-11.4-11.8
		c-2.9-2.6-4.5-6.4-8.1-8.4c-3.3-1.9-5.7-5-7.8-8.3c-0.2-0.4-0.6-0.6-0.9-0.9c-6.5-5.4-12.3-11.6-17.8-17.9
		c-1.2-1.4-2.6-2.7-4.4-3.6C223.6,103.5,222.4,102.3,223.3,100.4z"/>
	<path class="st2" d="M185.4,368.2c-0.7-0.6-2.4-0.3-1.8-2.1c0.2-0.5-0.3-0.7-0.8-0.6c-0.9,0.3-1.8,0.1-2.7-0.2
		c-0.9-0.3-1.7-0.6-1.7-1.8c-0.1-1.6-1.7-2.4-2.1-3.9c0-0.1-0.4-0.3-0.6-0.3c-2-0.5-2.3-0.8-2-2.6c0-0.3,0.2-0.6,0.2-1
		c-0.1-1.3-0.8-1.6-1.9-0.8c-0.3,0.2-0.6,0.6-1.2,0.4c0-2.1-1.3-3.3-3.4-3.7c-0.3-0.1-0.6-0.2-0.8-0.5c-0.5-1.1-1.2-1.6-2.5-1.3
		c-0.9,0.2-1.1-0.6-0.8-1.3c0.3-0.7,1.2-1.4,0.7-2.2c-0.6-1.1-1.5-2.2-2.4-3.1c-0.7-0.8-1.7-0.2-2.7,0c-0.2-1.7-1-3-2.6-3.6
		c-0.9-0.4-1.1-1.3-1.3-2.3c-0.2-0.9-0.6-1.9-1.8-0.8c-0.6,0.5-1.1,0.1-1.4-0.5c-0.4-0.8-0.7-1.7-1-2.5c-0.4-1.3-1.3-1.9-2.6-1.6
		c-0.7-1.7-0.6-3.6-0.8-5.4c-1.4-14.2-1.7-28.4-1-42.6c0.6-11.5,1.9-22.9,3.9-34.2c0.1-0.6,0.3-1.3,0.5-1.9c0.4-0.6,0-1.4,0.4-2.1
		c-0.1-0.1,0-0.3,0.1-0.4c0.6-1,1.3-0.6,1.8,0c1.4,1.7,3.7,2.8,4.8,4.6c1.9,2.9,5,4.5,6.8,7.4c0.8,1.2,1.7,2.2,2.9,3.1
		c1.4,1.1,2.4,2.4,3.4,3.9c1.5,2.3,3.9,3.7,5.7,5.7c0.9,1,2.2,1.5,2.6,2.9c0.5,3.2-0.2,6.4-0.5,9.6c-1.1,13-1.2,26-0.6,38.9
		c0.6,14.2,3.4,28.1,7,41.8c0.2,0.6,0.3,1.3,0.4,1.9c0,0.5-0.1,1,0.1,1.5C185.6,367.1,186,367.7,185.4,368.2z"/>
	<path class="st3" d="M372.6,586.2c-0.1-0.4,0-1.1-0.2-1.2c-1.7-0.6-2-3-4-3.3c-0.5-0.1-0.8-0.4-0.7-0.9c0.1-1.4-0.8-1.5-1.9-1.6
		c-1.9-0.1-1.9-0.1-2.1-2c-0.1-1.3-0.7-2-1.9-2.5c-2.1-0.9-3.8-2.5-5.2-4.3c-0.2-0.3-0.4-0.6-0.4-0.9c0.1-1.3-0.5-2-1.6-2.5
		c-1.2-0.6-1.7-1.4-1.1-2.7c-3,0.2-3.3,0.1-4.3-2.5c-0.3-0.6-0.6-1.2-1-1.6c-1.5-1.3-2.9-2.6-4.4-4c-0.6-0.6-1.4-0.8-2.3-0.8
		c-1.3-0.1-2.4-1.3-2.6-2.7c-0.2-1.6-1.1-2.7-2.5-3.4c-1.2-0.5-2.1-1.3-2.7-2.4c-0.5-0.9-1.2-1.4-2.1-1.7c-1-0.4-1.6-1.1-1.7-2.3
		c1.2,0.3,2.2-0.4,3.4-0.4c0.1,0,0.2,0,0.3,0c0.2,0,0.4,0.1,0.5,0.2c0.2,0.1,0.3,0.1,0.5,0.2c0.2,0.1,0.5,0.2,0.7,0.2
		c0.2,0,0.3,0.1,0.5,0.2c0.2,0.1,0.5,0.2,0.7,0.3c0.2,0.1,0.3,0.2,0.4,0.2c0.2,0.1,0.4,0.2,0.7,0.3c0.2,0.1,0.3,0.1,0.5,0.2
		c0.2,0.1,0.5,0.2,0.7,0.2c0.2,0,0.3,0.1,0.5,0.2c0.2,0.1,0.5,0.2,0.7,0.3c0.2,0.1,0.3,0.2,0.5,0.2c0.2,0.1,0.5,0.2,0.8,0.3
		c0.2,0,0.3,0.1,0.5,0.2c0.3,0.1,0.5,0.2,0.7,0.3c0.2,0.1,0.3,0.2,0.5,0.2c0.2,0.1,0.5,0.2,0.8,0.3c0.2,0,0.3,0.1,0.5,0.2
		c0.3,0.1,0.5,0.2,0.7,0.3c0.2,0.1,0.3,0.2,0.5,0.2c0.2,0.1,0.5,0.2,0.8,0.3c0.2,0,0.3,0.1,0.5,0.2c0.3,0.1,0.5,0.2,0.7,0.3
		c0.2,0.1,0.3,0.2,0.5,0.2c0.2,0.1,0.5,0.2,0.7,0.3c0.2,0,0.3,0.1,0.5,0.2c0.3,0.1,0.7,0.2,1,0.3c0.2,0,0.3,0.1,0.5,0.2
		c0.3,0.1,0.7,0.2,1,0.3c0.2,0,0.3,0.1,0.5,0.2c0.3,0.1,0.5,0.2,0.7,0.3c0.2,0.1,0.3,0.2,0.5,0.2c0.2,0.1,0.5,0.2,0.7,0.3
		c0.2,0,0.3,0.1,0.5,0.2c0.3,0.1,0.7,0.2,1,0.3c0.2,0,0.3,0.1,0.5,0.2c0.3,0.1,0.7,0.2,1,0.3c0.2,0,0.3,0.1,0.5,0.2
		c0.3,0.1,0.7,0.2,1,0.3c0.2,0,0.3,0.1,0.5,0.2c0.3,0.1,0.7,0.2,1,0.3c0.2,0,0.4,0.1,0.5,0.2c0.3,0.1,0.7,0.2,1.1,0.3
		c0.2,0,0.4,0.1,0.6,0.2c0.4,0.1,0.8,0.2,1.1,0.3c0.2,0,0.4,0.1,0.6,0.1c0.4,0.1,0.7,0.3,1.1,0.4c0.2,0,0.4,0.1,0.5,0.2
		c0.3,0.1,0.7,0.3,1,0.3c0.2,0,0.4,0.1,0.5,0.2c0.3,0.1,0.7,0.3,1.1,0.3c0.2,0,0.4,0.1,0.6,0.2c0.4,0.1,0.8,0.2,1.2,0.3
		c0.2,0,0.4,0.1,0.6,0.1c0.4,0.1,0.7,0.2,1.1,0.3c0.3,0,0.6,0.1,0.8,0.2c0.4,0.1,0.7,0.3,1.1,0.4c0.2,0,0.4,0.1,0.5,0.2
		c0.4,0.2,0.9,0.3,1.4,0.3c0.2,0,0.4,0.1,0.6,0.1c0.5,0.2,0.9,0.3,1.4,0.3c0.2,0,0.4,0.1,0.6,0.1c0.5,0.2,0.9,0.3,1.4,0.3
		c0.2,0,0.4,0.1,0.6,0.1c0.5,0.2,0.9,0.3,1.4,0.3c0.2,0,0.4,0.1,0.6,0.1c0.5,0.2,1,0.2,1.5,0.3c0.3,0,0.6,0.1,0.9,0.2
		c0.4,0.1,0.8,0.2,1.3,0.3c0.5,0,0.9,0.1,1.4,0.2c0.5,0.1,1,0.2,1.5,0.2c8.1,1.5,16.2,2.6,24.2,4.1c1.8,0.8,3.5,1.9,5.3,2.8
		c1.4,0.6,2.2,1.9,2.9,3.3c0.9,2,1.9,3.9,4.4,4.3c0.8,0.1,1.3,0.7,1.7,1.4c1.7,2.6,4.4,4.2,6.2,6.7c0.5,0.7,1.3,0.9,2.1,1.2
		c1.2,0.5,2.3,1,2.1,2.6c0,0.2,0,0.6,0.2,0.7c2.5,1,3.5,4.1,6.3,4.8c0.5,0.1,1,0.2,1.4,0.6c0.4,0.3,0.7,0.8,0.5,1.3
		c-0.2,0.5-0.6,0.5-1,0.5c-1.7,0-3.5,0-5.2,0c-3.6-0.1-7.3,0.3-10.9-0.2c-1.3,0.2-2.6,0.1-3.9-0.1c-1.8-0.6-3.7,0.1-5.6-0.4
		c-5,0.2-9.8-0.7-14.7-1.2c-5.3-0.6-10.6-1.5-15.9-2.4c-0.6-0.1-1.1-0.3-1.6-0.5c-0.6-0.5-1.5,0-2.1-0.4l-0.2,0l-0.2-0.1
		c-0.6-0.5-1.5,0-2.1-0.4l-0.2,0l-0.2-0.1c-0.6-0.5-1.5,0-2.1-0.5l-0.2,0l-0.2-0.1c-0.6-0.5-1.4,0-2-0.5l-0.2,0l-0.2-0.1
		c-0.5-0.4-1.1-0.1-1.6-0.4l-0.2,0l-0.2-0.1c-0.6-0.5-1.4,0-2-0.5l-0.2,0L372.6,586.2z"/>
	<path class="st1" d="M654,505.6c-4.4,4.8-9.1,9.2-14.1,13.4c-0.8,0.6-1.5,0.2-2-0.3c-3.2-4-7.1-7.3-10.4-11.2
		c-1.7-1.9-3.8-3.4-5.7-5.1c-2.7-2.4-4.7-5.6-8-7.3c-0.7-0.4-1.3-1-1.9-1.6c-10.4-9.9-20.6-20-30.6-30.2c-3.5-3.6-7.5-6.8-11-10.4
		c-5.3-5.5-5.3-8.8-0.1-14.2c1.6-1.6,3.2-3.2,5-4.4c3.2-2.2,5.7-2.1,8.5,0.5c2.2,2,4,4.4,6,6.6c2.8,3.1,5.8,5.9,8.8,8.8
		c6.8,6.8,14,13.2,20.7,20.1c1.3,1.4,2.5,2.9,3.8,4.3c3.2,3.5,6.7,6.6,11.1,8.5c-0.3,2.6,1,4.2,3.3,5.1c1.6,0.6,2.2,2.2,3.4,3.2
		c3.7,3.3,7.4,6.7,10.8,10.3C652.8,502.9,653.6,504.1,654,505.6z"/>
	<path class="st4" d="M178.5,272.1c-1.7-1.1-3.6-2-4.5-3.9c-0.2-0.5-0.5-0.9-1-1c-1.7-0.6-2.6-2-3.2-3.5c-0.4-1-1.2-1.8-2.1-2.4
		c-1.6-1.1-2.9-2.6-4-4.3c-1-1.6-2.6-2.7-4.2-3.7c-0.6-0.4-1.2-0.5-0.9-1.4c0.3-0.9-0.4-1.3-1-1.7c-2-1.3-3.8-2.7-5-4.7
		c-0.4-0.6-0.8-0.4-1.3-0.2c0.6-4.9,1.8-9.6,2.9-14.3c3.3-14,7.7-27.6,13-40.9c0.3-0.8,0.7-1.7,1.1-2.5c1.7-0.9,2.8,0.3,3.9,1.2
		c1,0.9,2,1.6,3.4,1.8c1,0.1,1.6,0.7,1.9,1.7c0.6,2.1,1.9,3.6,3.8,4.6c0.8,0.4,1.4,0.9,1.8,1.6c1.4,2.4,3,4.4,5.7,5.9
		c1.7,0.9,3.1,3.2,3.8,5.4c-1.2,5.6-3.2,10.9-4.7,16.4c-3.5,13-5.9,26.1-7.6,39.5c-0.2,1.5-0.5,2.9-0.6,4.4
		C179.6,270.9,179.4,271.7,178.5,272.1z"/>
	<path class="st2" d="M428.8,593.7c5,0,9.9,0,14.9-0.1c0.7,0,1.8,0.4,1.8-0.6c0-0.9-1.1-0.9-1.8-0.8c-1.6,0.2-2.5-0.6-2.9-2.1
		c-0.2-0.8-0.6-1.4-1.5-1.4c-1.1,0-1.6-1.1-2.5-1.5c-0.4-0.2-0.6-0.7-0.4-1c1.3-1.4,0-1.6-0.9-1.9c-0.7-0.3-1.4-0.6-2.1-0.9
		c-0.7-0.2-1.2-0.5-1.2-1.3c0-0.5-0.3-1.1-0.7-1.2c-2.1-0.7-3-2.7-4.3-4.2c-1.2-1.4-2.4-2.3-4.2-2.6c-1.6-0.3-1.9-2.1-2.3-3.2
		c-0.9-2.6-2.6-3.9-5-4.7c-1-0.3-1.9-1.2-2.9-1.8c1-1,2.1-0.7,3.3-0.6c13.9,1.7,27.8,1.4,41.7,1.2c4.6-0.1,9.2-0.8,13.9-0.9
		c1.5,0,2.7,0.5,3,2.3c0.2,1.1,0.9,1.8,1.9,2.1c1.8,0.5,2.8,1.7,3.1,3.5c0.2,0.7,0.5,1.4,1.1,1.9c3.3,2.6,5.7,6.2,9.2,8.6
		c2,1.4,4,3,5.8,4.6c0.8,0.7,1.2,1.4,0,2.1c-0.3,0-0.6,0.1-0.8,0.1c-0.7,0.4-1.5-0.1-2.2,0.4l-0.2,0.1l-0.2,0
		c-0.6,0.4-1.4,0-2.1,0.4c-4.7,1.1-9.4,1.5-14.2,2.1c-7.7,1-15.5,1.4-23.2,1.8c-7.8,0.3-15.5,0.2-23.3,0
		C429.6,594,429.2,593.8,428.8,593.7z"/>
	<path class="st5" d="M723.6,202.9c0.1,0.1,0.1,0.2,0.1,0.3c0.2,0.4,0.1,0.8,0.4,1.2c0.1,0.1,0.1,0.2,0.1,0.3
		c0.2,0.4,0.1,0.8,0.4,1.2c0,0.2,0.1,0.3,0.1,0.5c-1.7,1.2-2.8,0-3.8-1.1c-1.8-2.3-3.8-4.4-5.7-6.5c-0.6-0.7-1.2-1.4-1.9-2
		c-2.6-1.9-4.4-4.4-6.2-7c-2.3-3.3-5.5-5.6-8.7-7.9c-1.8-1.3-3.5-2.5-4.4-4.6c-1.1-2.6-3.5-4.2-5.7-5.8c-4.2-3.1-7.8-6.7-10.4-11.2
		c-0.5-0.8-1.2-1.4-2-1.8c-2.9-1.3-4.9-3.5-6.8-6c-1.8-2.3-3.6-4.8-6.4-6.1c-0.8-0.4-1.3-1-1.6-1.9c-0.7-2.3-2.4-3.5-4.6-4.2
		c-0.2-0.1-0.4-0.2-0.6-0.4c-0.2-0.1-0.3-0.3-0.5-0.4c-0.1-0.1-0.2-0.3-0.4-0.5c-0.2-0.3-0.4-0.6-0.6-0.9c-0.1-0.1-0.2-0.3-0.3-0.4
		c-0.1-0.1-0.2-0.2-0.3-0.4c-0.1-0.1-0.1-0.1-0.2-0.2c-0.1-0.1-0.2-0.2-0.3-0.4c-0.1-0.1-0.2-0.3-0.3-0.4c-0.1-0.1-0.2-0.3-0.2-0.4
		c-0.1-0.1-0.2-0.3-0.3-0.4c-0.1-0.1-0.2-0.2-0.3-0.3c0,0-0.2-0.2-0.2-0.2c-0.1-0.1-0.2-0.2-0.3-0.3c0,0-0.2-0.2-0.2-0.2
		c-0.1-0.1-0.2-0.2-0.3-0.3c-0.1-0.1-0.2-0.2-0.3-0.4c-0.1-0.1-0.2-0.3-0.2-0.4c-0.1-0.1-0.2-0.3-0.3-0.4c-0.1-0.1-0.2-0.2-0.3-0.3
		c0,0-0.2-0.2-0.2-0.2c-0.1-0.1-0.2-0.2-0.4-0.3c0,0-0.2-0.2-0.2-0.2c-0.1-0.1-0.2-0.2-0.3-0.4c-0.1-0.1-0.2-0.3-0.3-0.4
		c-0.1-0.2-0.3-0.4-0.4-0.6c-0.1-0.1-0.2-0.3-0.3-0.4c-0.1-0.1-0.2-0.2-0.3-0.4c0,0-0.2-0.2-0.2-0.2c-0.1-0.1-0.2-0.2-0.3-0.4
		c0,0-0.2-0.2-0.2-0.2c-0.1-0.1-0.2-0.2-0.3-0.4c-0.1-0.1-0.2-0.3-0.3-0.4c-0.1-0.1-0.2-0.3-0.2-0.4c-0.1-0.1-0.2-0.3-0.3-0.4
		c-0.1-0.1-0.2-0.2-0.3-0.3c0,0-0.2-0.2-0.2-0.2c-0.1-0.1-0.2-0.2-0.3-0.3c0,0-0.2-0.2-0.2-0.2c-0.1-0.1-0.2-0.2-0.3-0.3
		c0,0-0.2-0.2-0.2-0.2c-0.1-0.1-0.3-0.2-0.4-0.4c-0.1-0.1-0.1-0.1-0.2-0.2c-0.1-0.1-0.3-0.3-0.4-0.4c-0.1-0.1-0.2-0.3-0.3-0.5
		c-0.2-0.3-0.4-0.6-0.7-0.9c-0.1-0.1-0.3-0.3-0.4-0.4c-0.1-0.1-0.3-0.3-0.4-0.4c-0.1-0.1-0.1-0.1-0.2-0.2c-0.1-0.1-0.3-0.3-0.4-0.4
		c-0.1-0.1-0.1-0.1-0.2-0.2c-0.1-0.1-0.3-0.3-0.4-0.4c-0.1-0.1-0.1-0.1-0.2-0.2c-0.2-0.1-0.3-0.2-0.5-0.4c-0.1-0.1-0.2-0.1-0.3-0.2
		c-0.2-0.1-0.4-0.2-0.5-0.3c-1.7-1.3-2.8-3.1-4.2-4.5c-5.2-5.3-10.8-10.2-16.2-15.4c-0.1-0.2-0.2-0.3-0.4-0.5
		c-0.1-0.1-0.1-0.2-0.2-0.3c-0.1-0.2-0.2-0.3-0.4-0.5c-0.1-0.1-0.1-0.1-0.2-0.2c-0.1-0.1-0.3-0.3-0.4-0.4c-0.1-0.1-0.1-0.1-0.2-0.2
		c-0.1-0.1-0.3-0.2-0.4-0.4c-0.1-0.1-0.1-0.1-0.2-0.2c-0.3-0.2-0.5-0.4-0.8-0.6c-0.2-0.1-0.3-0.2-0.4-0.3c-0.1-0.1-0.3-0.2-0.4-0.3
		c-0.1-0.1-0.1-0.1-0.2-0.2c-0.1-0.1-0.3-0.2-0.4-0.4c-0.1-0.1-0.1-0.1-0.2-0.2c-0.1-0.1-0.3-0.2-0.4-0.4c-0.1-0.1-0.1-0.1-0.2-0.2
		c-0.3-0.2-0.6-0.4-0.9-0.6c-0.2-0.1-0.3-0.2-0.4-0.3c-0.1-0.1-0.3-0.2-0.4-0.4c-0.1-0.1-0.1-0.1-0.2-0.2c-0.1-0.1-0.3-0.2-0.4-0.4
		c-0.1-0.1-0.1-0.1-0.2-0.2c-0.3-0.2-0.6-0.4-0.9-0.6c-0.2-0.1-0.3-0.2-0.5-0.3c-0.2-0.1-0.3-0.3-0.5-0.4c-0.1-0.1-0.1-0.1-0.2-0.2
		c-0.2-0.1-0.3-0.3-0.4-0.5c-0.1-0.1-0.1-0.2-0.2-0.3c-0.7-1.2-0.9-2.8-2.9-2.5c-0.2,0-0.5,0-0.7-0.1c-0.2-0.1-0.4-0.3-0.5-0.5
		c-0.1-0.2-0.2-0.4-0.3-0.6c-0.2-0.6-0.4-1.3-1-1.7c-3.6-2.4-5.8-6.1-8.8-9.1c-0.5-0.5-0.8-1.1-1.3-1.5
		c-6.1-4.2-10.4-10.2-15.3-15.5c-3.5-3.7-7.6-6.6-11-10.4c-1.1-1.2-2.5-2.2-3.3-3.7c-1-1.8-3-2.4-4.2-3.8c-3.3-4-7.1-7.5-10.8-11.1
		c-3.3-3.1-6.5-6.3-9.6-9.6c-0.6-0.6-1-1.3-1.3-2.1c-0.5-1.5,0.1-1.9,1.4-1.3c4.1,1.2,8.1,2.6,12,4.4c1.9,3,4.4,5.5,6.8,8.2
		c1.7,2,3.6,3.7,5.7,5.3c0.2,0.2,0.3,0.4,0.4,0.6c2.9,2.5,5,5.8,8.1,7.9c2.4,1.7,3.4,4.7,5.7,6.5c5.8,4.3,9.9,10.3,15.3,15
		c5.2,4.6,9.4,10.2,15,14.4c0.2,0.2,0.3,0.3,0.5,0.5c0.4,0.8,0.8,1.6,1.6,2.2c4.5,3.3,7.4,8.2,11.9,11.5c3.1,2.6,5.6,5.6,7.9,8.9
		c0.8,1.2,2.5,1.4,3.4,2.4c3.7,4.1,8.3,7.4,11.5,12.1c1.6,2.4,3.9,4.3,6.1,6.1c6.1,5.1,11.3,10.9,16.9,16.4
		c3.7,3.6,7.2,7.4,10.8,11.2c3.8,4.1,7.9,8,12.1,11.8c3.2,2.9,6.2,6.2,9.1,9.5c0.9,1.1,2,2,3.1,2.9c3.9,3.3,6.9,7.5,11,10.7
		c2.1,1.6,3.8,3.9,5.7,5.8c0.2,0.1,0.4,0.3,0.6,0.4c0.1,0.1,0.2,0.3,0.1,0.4c0.3,0.3,0.2,0.7,0.4,1c0.1,0.1,0.1,0.2,0.1,0.4
		c0.1,0.2,0.2,0.4,0.3,0.6c0.1,0.3,0.1,0.5,0.2,0.8c0,0.3,0.2,0.5,0.3,0.7c0,0.2,0.1,0.3,0.1,0.5c0.3,0.3,0.2,0.7,0.4,1
		c0.1,0.1,0.1,0.3,0.1,0.4c0.2,0.3,0.2,0.8,0.4,1.1c0.1,0.1,0.1,0.3,0.1,0.4c0.2,0.3,0.1,0.8,0.4,1.1c0.1,0.1,0.1,0.2,0.1,0.4
		C723.4,202.1,723.3,202.6,723.6,202.9z"/>
	<path class="st6" d="M596.4,45c0.1,0,0.2,0,0.3,0.1c0.2,0.1,0.4,0.3,0.5,0.4l0,0c0.2,0.4,0.7,0.3,1,0.6l0,0
		c0.2,0.2,0.3,0.4,0.6,0.4l-0.1-0.1c0.2,0.4,0.7,0.3,1,0.6c5.7,3.2,11.1,7,16.4,10.8c14.9,10.7,28.6,22.6,41.3,35.8
		c14.3,14.9,26.9,31.1,37.7,48.7c0.3,0.4,0.4,0.9,0.7,1.3c0.3,0.2,0.2,0.7,0.6,0.9l0,0c0.1,0.2,0.3,0.4,0.4,0.5
		c0.1,0.1,0.2,0.2,0.1,0.3c0,0.3,0.2,0.5,0.4,0.7l0,0c0.3,0.3,0.2,0.8,0.6,1l0,0c0.2,0.3,0.1,0.8,0.6,1l-0.1-0.1
		c0.1,0.3,0.3,0.4,0.4,0.6l0,0c0.3,0.2,0.2,0.7,0.5,1l0,0c0.3,0.3,0.2,0.8,0.6,1l0,0c0.1,0.2,0.3,0.4,0.4,0.6l0,0
		c0.3,0.2,0.2,0.7,0.5,0.9l0,0c0.3,0.3,0.2,0.8,0.5,1l0,0c0.2,0.3,0.1,0.8,0.5,1l0,0c-0.9,1.9-1.9,0.5-2.6-0.1
		c-1.1-0.9-2.3-1.8-3.1-2.8c-2.3-2.8-5.2-4.8-7.7-7.4c-4.9-5.1-9.6-10.5-14.9-15.2c-3.3-2.9-5.9-6.5-9.3-9.3
		c-3.6-2.9-6.8-6.3-9.9-9.7c-4.2-4.7-9.1-8.7-13.3-13.3c-3.7-4.1-7.7-7.7-11.4-11.6c-3-3.2-6.6-5.7-9.1-9.4
		c-1.5-2.2-3.9-3.5-5.8-5.4c-3.5-3.4-6.4-7.3-9.9-10.8c-3.6-3.5-7.5-6.5-10.8-10.2c-1.8-2-3.7-3.8-5.6-5.6c-0.8-0.7-1.5-1.6-0.7-2.8
		c0.4-0.1,0.7-0.1,1.1,0.1l0,0c0.2,0.4,0.7,0.3,1,0.5l0,0c0.2,0.3,0.7,0.2,1,0.5l0,0c0.2,0.1,0.3,0.4,0.6,0.4l-0.1,0
		c0.2,0.4,0.7,0.3,1,0.6l0,0c0.2,0.4,0.7,0.3,1,0.6l0,0c0.2,0.2,0.3,0.4,0.6,0.4l-0.1-0.1c0.2,0.4,0.7,0.3,1,0.6l0,0
		c0.2,0.4,0.7,0.3,1,0.6l0,0C595.9,44.8,596.1,45,596.4,45z"/>
	<path class="st4" d="M496.1,589.2c0.4-1.7,0.4-1.9-1.1-1.8c-1.1,0.1-1.5-0.3-1.3-1.2c0.3-1.3-0.4-1.4-1.3-1.4
		c-0.8,0-1.4-0.3-1.8-1.1c-0.4-0.7-0.9-1.2-1.7-1.4c-0.7-0.1-1.1-0.7-1.4-1.3c-0.6-0.9-1.4-1.7-2.3-2.2c-0.7-0.4-1.2-0.9-1.5-1.6
		c-0.5-1-1.1-1.7-2.2-2.2c-1.3-0.6-2.1-1.9-2.2-3.4c-0.1-1.4-0.7-2.2-2-2.4c-1.8-0.4-3-1.3-3-3.3c0-1.1-0.8-1.1-1.6-1.1
		c0.3-1.2,1.4-1,2.2-1.1c12.5-1.5,24.9-3.7,37.1-6.9c1.3-0.4,2.7-1,4.1-0.8c2.2,3,4.9,5.7,8,7.6c2.4,1.5,3.9,3.6,6.1,5.2
		c1.2,0.8,1.4,2.5,2.5,3.6c1.8,2,3.6,3.9,5.4,5.9c-3.3,1.5-6.8,2.4-10.3,3.4c-9.9,3-19.9,5.4-30.1,7.3
		C497.1,589.2,496.6,589.1,496.1,589.2z"/>
	<path class="st7" d="M192,209.5c-0.1-0.2,0-0.6-0.2-0.7c-1.2-1-2.7-1.8-2.6-3.7c0-0.2-0.5-0.5-0.7-0.6c-3.2-0.3-4.2-3-5.6-5.1
		c-0.7-1-1.2-1.7-2.3-2.3c-2-1-3.5-2.6-3.7-5c-0.1-0.9-0.6-1.2-1.4-1.1c-1.6,0.1-2.6-0.6-3.6-1.8c-0.9-1.1-2.2-1.7-3.7-1.7
		c3.3-8.6,7.4-16.9,11.6-25.1c1-2,1.9-4,3.2-5.8c0.1-0.2,0.3-0.4,0.4-0.6c0-0.2,0-0.3,0.2-0.4c0.1-0.2,0.2-0.4,0.4-0.5
		c0.1-0.2,0.1-0.3,0.2-0.5c0.1-0.2,0.2-0.3,0.3-0.4l0,0c0.2-0.2,0.4-0.4,0.4-0.7c0-0.1,0-0.2,0.1-0.3c0.2-0.2,0.3-0.4,0.4-0.6
		c0-0.2,0-0.3,0.2-0.4c0.1-0.2,0.2-0.3,0.4-0.5l0,0c0.8-1.2,1.8-0.9,2.5-0.1c2.4,2.8,5.5,4.9,7.9,7.6c1.5,1.7,3.6,2.9,4.9,4.8
		c1.7,2.5,4,4.5,6.4,6.3c0.6,0.4,1,1.1,1.1,1.9c0,0.5-0.1,1-0.3,1.4c-5.8,11-10.7,22.4-15,34.1C193.1,208.4,193,209.3,192,209.5z"/>
	<path class="st8" d="M587.7,40.6c-0.2,1.9,1.5,2.7,2.6,3.7c1.1,1,2,2.1,3,3.1c1.8,1.8,3.5,3.7,5.5,5.3c2.8,2.3,5.5,4.8,8,7.5
		c1.1,1.2,2.2,2.3,3.3,3.4c0.4,0.4,0.9,0.8,1.2,1.3c2,3.5,5.2,5.6,8.1,8.2c0.2,0.2,0.6,0.4,0.7,0.6c2.3,4,6.7,6,9.1,9.9
		c0.5,0.8,1.4,1.4,2.2,1.9c1.7,1.1,2.8,2.8,4.3,4.1c2.3,2,4.2,4.4,6.1,6.6c1.7,2,3.8,3.6,5.9,5.2c1,0.8,1.7,2,2.6,3
		c1.3,1.4,3,2.2,3.7,4.1c0.5,1.1,1.9,1.5,2.8,2.4c3.1,3.6,6.8,6.6,10.2,9.9c1.7,1.7,3.6,3.3,5,5.3c1.3,1.9,3.4,3.3,5.2,4.8
		c1,0.8,1.9,1.5,2.6,2.6c0.5,0.9,1.2,1.6,2,2.1c0.8,0.5,1.4,1.1,1.8,2c0.1,0.3,0.3,0.7,0.5,0.8c3.4,2.1,5,6.2,8.7,8
		c0.2,0.1,0.5,0.2,0.6,0.4c1.2,2.6,3.9,3.9,5.7,6c0.6,0.7,1.4,1.8,2.6,0.9c2.5,3.7,4.3,7.7,6.4,11.6c1.1,2.2,2.4,4.3,3.1,6.7
		c-0.2,1.5-1,0.9-1.7,0.5c-1.1-0.8-2.3-1.7-3.3-2.7c-5-5.1-10.5-9.7-15.2-15.2c-1.2-1.4-2.5-2.9-3.9-4.1c-1.2-1.8-2.7-3.3-4.6-4.3
		c-0.2-0.1-0.3-0.3-0.5-0.4c-0.5-0.8-0.9-1.6-1.5-2.3c-0.1-0.1-0.2-0.3-0.3-0.5c-0.1-0.2-0.3-0.5-0.4-0.7c-0.1-0.1-0.2-0.3-0.3-0.4
		c-0.1-0.1-0.3-0.2-0.4-0.3c-0.1-0.1-0.3-0.2-0.4-0.2c-0.1-0.1-0.3-0.2-0.4-0.3c0,0-0.2-0.2-0.2-0.2c-0.1-0.1-0.2-0.2-0.3-0.3
		c0,0-0.2-0.2-0.2-0.2c-0.1-0.1-0.2-0.2-0.3-0.3c0,0-0.2-0.2-0.2-0.2c-0.1-0.1-0.2-0.2-0.3-0.3c0,0-0.2-0.2-0.2-0.2
		c-0.1-0.1-0.2-0.2-0.4-0.3c-0.1,0-0.1-0.1-0.2-0.1c-0.2-0.1-0.5-0.2-0.7-0.3c-0.2-0.1-0.3-0.2-0.5-0.3c-0.4-0.2-0.8-0.5-1.2-0.9
		c-0.2-0.1-0.3-0.3-0.4-0.4c-0.1-0.1-0.3-0.3-0.4-0.5c-0.1-0.2-0.2-0.3-0.4-0.5c-0.4-0.6-0.9-1.1-1.4-1.6c-0.1-0.1-0.3-0.3-0.4-0.5
		c-0.2-0.3-0.4-0.6-0.6-1c-0.1-0.1-0.2-0.3-0.3-0.4c-0.1-0.1-0.2-0.3-0.3-0.4c-0.1-0.1-0.1-0.1-0.2-0.2c-0.1-0.1-0.2-0.2-0.4-0.4
		c-0.1-0.1-0.1-0.1-0.2-0.2c-0.1-0.1-0.2-0.2-0.4-0.4c-0.1-0.1-0.1-0.1-0.2-0.2c-0.1-0.1-0.3-0.2-0.4-0.4c-0.1-0.1-0.1-0.1-0.2-0.2
		c-0.2-0.2-0.4-0.4-0.5-0.7c-0.2-0.3-0.4-0.6-0.7-0.9c-0.2-0.2-0.5-0.4-0.7-0.5c-0.2-0.1-0.3-0.2-0.5-0.4c-0.2-0.1-0.3-0.3-0.5-0.4
		c-0.1-0.1-0.2-0.1-0.2-0.2c-1-0.9-1.8-1.9-2.9-2.7c-0.2-0.1-0.3-0.2-0.5-0.4c-0.2-0.1-0.3-0.3-0.5-0.4c-0.1-0.2-0.3-0.3-0.4-0.5
		c-0.2-0.3-0.4-0.7-0.6-1c-0.2-0.3-0.4-0.6-0.7-0.9c-0.2-0.2-0.5-0.4-0.7-0.5c-0.2-0.1-0.3-0.2-0.5-0.3c-0.3-0.2-0.7-0.5-1-0.7
		c-0.2-0.1-0.3-0.2-0.5-0.4c-0.2-0.2-0.5-0.4-0.7-0.7c-0.1-0.2-0.3-0.3-0.4-0.5c-0.3-0.4-0.7-0.8-1.1-1.1c-0.2-0.1-0.3-0.3-0.4-0.5
		c-0.6-1.6-2.1-2.2-3.3-3.1c-0.2-0.1-0.3-0.3-0.5-0.5c-0.2-0.1-0.3-0.3-0.5-0.5c-0.1-0.1-0.2-0.2-0.2-0.2c-0.6-0.6-1.2-1.3-1.9-1.9
		c-0.2-0.1-0.3-0.3-0.5-0.5c-0.2-0.1-0.3-0.3-0.5-0.5c-0.1-0.1-0.2-0.2-0.2-0.2c-1.1-1.1-2.3-2.2-3.2-3.6c-0.1-0.2-0.2-0.3-0.4-0.5
		c-0.1-0.1-0.2-0.3-0.4-0.4c-0.1-0.1-0.1-0.1-0.2-0.2c-0.1-0.1-0.3-0.3-0.4-0.4c-0.1-0.1-0.1-0.1-0.2-0.2c-0.1-0.1-0.3-0.3-0.4-0.4
		c-0.1-0.1-0.1-0.1-0.2-0.2c-0.1-0.1-0.3-0.3-0.4-0.4c-0.1-0.1-0.1-0.1-0.2-0.2c-0.2-0.1-0.3-0.2-0.5-0.3c-0.1-0.1-0.2-0.1-0.3-0.2
		c-1.5-0.7-1.8-2.8-3.6-3.1c-0.2-0.1-0.4-0.2-0.6-0.3c-1.6-2.2-3.5-4.2-4.9-6.6c-1-1.7-3.2-2.5-4.7-3.8c-0.4-0.3-1-0.3-1.2-0.8
		c-1.8-3.4-5.6-4.9-7.4-8.3c-0.3-0.6-0.8-1.1-1.3-1.4c-2.1-1.4-3.9-3.1-5.1-5.3c-5.5-5.5-11.5-10.4-16.8-16
		c-3.2-3.4-6.9-6.4-9.8-10.1c-3.9-4.8-8.9-8.6-13.2-13.1c-1.4-1.5-1.5-2.1,0-3.1c0.1,0,0.3,0,0.3,0.1c0.3,0.3,0.7,0.2,1,0.5l0,0
		c0.3,0.3,0.7,0.2,1,0.5v0c0.3,0.3,0.7,0.2,1,0.5l0,0c0.3,0.3,0.7,0.2,1,0.5v0c0.3,0.3,0.7,0.2,1,0.5l0,0c0.3,0.3,0.7,0.2,1,0.5l0,0
		c0.3,0.3,0.7,0.2,1,0.5l0,0c0.3,0.3,0.7,0.2,1,0.5l0,0c0.3,0.3,0.7,0.2,1,0.5l0,0c0.2,0.2,0.4,0.4,0.7,0.4c0.1,0,0.2,0,0.3,0.1
		c0.2,0.2,0.4,0.4,0.7,0.4c0.1,0,0.3,0,0.3,0.1c0.2,0.1,0.4,0.3,0.6,0.4c0.2,0,0.3,0,0.4,0.1c0.2,0.1,0.4,0.3,0.5,0.4l0,0
		c0.2,0.4,0.7,0.3,1,0.5l0,0c0.2,0.4,0.7,0.3,1,0.5l0,0c0.2,0.3,0.7,0.2,1,0.5l0,0c0.2,0.2,0.4,0.4,0.7,0.4c0.1,0,0.2,0,0.3,0.1
		c0.2,0.2,0.4,0.3,0.6,0.4l0,0c0.1,0.1,0.2,0.3,0.1,0.4C587.8,40.6,587.8,40.6,587.7,40.6z"/>
	<path class="st9" d="M719.6,192.9c-2.2-1.5-4-3.3-5.7-5.4c-1.1-1.4-2.7-2.5-4.3-3.6c-0.5-0.4-1.1-0.8-1.5-1.3
		c-2.1-3.3-5.4-5.5-8.1-8.2c-0.1-0.1-0.3-0.2-0.4-0.3c-1.6-3.2-5.2-4.7-7-7.8c-1-1.8-2.9-2.9-4.4-4.2c-2.9-2.4-5.1-5.4-8-7.7
		c-2.1-1.7-3.4-4.2-5.6-5.8c-1.6-1.2-2.6-2.8-4.2-4.1c-0.5-0.4-1-0.7-1.3-1.2c-1.6-2.5-3.8-4.3-6.1-6.1c-0.8-0.7-1.6-1.5-2.2-2.3
		c-0.6-0.8-1.2-1.6-2-2.2c-3.1-2.4-5.2-5.7-8.6-7.7c-0.5-0.3-0.8-0.9-1.1-1.3c-0.9-1.3-2.1-2.4-3.3-3.3c-0.5-0.4-1.3-0.7-1.5-1.3
		c-0.9-2.4-3.1-3.7-4.4-5.7c0-0.1-0.1-0.2-0.2-0.2c-4-1.8-5.4-6.5-9.6-8.2c-1.7-0.7-2.3-2.7-3.5-4.1c-1.5-1.7-2.7-3.5-4.7-4.7
		c-0.5-0.3-0.6-0.8-0.6-1.3c-3.8-3.8-7.1-8.2-11.5-11.4c-0.9-0.7-1.4-1.6-2-2.5c-3.8-2.9-6.8-6.7-10.2-10.1
		c-1.8-1.8-3.8-3.1-5.4-5.1c-3-3.7-7.1-6.4-9.9-10.1c-2.8-3.8-6.7-6.3-9.7-9.8c-2.4-2.8-5-5.9-8.4-7.9c-0.5-0.3-0.8-0.8-1.1-1.3
		c-1-2.1-3-3.2-4.6-4.7c-2-1.9-3.6-4.3-5.6-6.1c-0.7-0.6-1.5-1.2-0.7-2.2c0.4-0.1,0.7-0.1,1.1,0.1c0.1,0,0.3,0,0.4,0.1
		c0.3,0.3,0.7,0.2,1,0.4l0,0c0.3,0.3,0.7,0.3,1.1,0.5l0,0c0.3,0.6,1.1,0.1,1.5,0.6l0,0c0.3,0.3,0.7,0.2,1,0.5l0,0
		c0.3,0.4,0.8,0.3,1.2,0.5c0.1,0,0.2,0,0.3,0.1c0.3,0.3,0.7,0.2,1,0.5l0,0c0.3,0.3,0.7,0.2,1,0.5l0,0c0.3,0.4,0.7,0.3,1.1,0.5l0,0
		c0.1,0.2,0.2,0.4,0.3,0.6c0.9,3.1,1.8,4,4.3,4.1c0.6,0.2,1,0.6,1.3,1.1c2.3,2.8,4.1,5.9,6.3,8.8c0.9,1.2,2.6,2,3.8,3.2
		c5.2,5,10.9,9.4,15.6,15c1.8,2.1,4.5,3.5,5.3,6.4c0.1,0.5,0.8,0.6,1.2,0.8c1.6,0.7,2.9,1.6,3.5,3.5c0.5,1.4,2.1,2,3.4,2.7
		c1,0.6,1.8,1.2,2.2,2.2c1,2.5,3,4.1,5.2,5.3c1.1,0.6,2,1.2,2.3,2.5c0.1,0.6,0.4,1.1,1,1.4c3.3,1.8,5.6,4.8,8,7.6
		c0.1,0.1,0.2,0.3,0.3,0.4c3.7,1.6,5.3,5.4,8.4,7.6c0.2,0.1,0.4,0.3,0.5,0.5c2.5,3.2,5.4,6.1,7.9,9.3c0.7,0.9,2.1,0.5,2.9,1.2
		c0.2,0.1,0.4,0.3,0.5,0.5c0.1,0.2,0.3,0.4,0.4,0.6c0.1,0.1,0.1,0.2,0.2,0.3c0.1,0.2,0.3,0.4,0.4,0.6c0.1,0.2,0.2,0.4,0.3,0.6
		c0.1,2.3,2.5,2.5,3.5,3.9c1.7,2.4,4,4.4,6.2,6.2c2.3,2,4,4.8,7,5.9c0.9,1,1.8,1.9,3.1,2.5c0.3,0.1,0.6,0.3,0.8,0.6
		c2.6,4.8,7.9,7.2,10.8,11.8c1.2,1.9,3.5,2.7,5.1,4.3c3.8,3.9,7.2,8.2,11.3,11.9c4.5,4,8.6,8.4,12.6,12.9c1.4,1.5,2.8,3,5,3.5
		c0.3,0.3,0.4,0.6,0.4,1c0.2,0.3,0.1,0.8,0.5,1.1l0,0c0.2,0.3,0.2,0.7,0.5,1l0,0c0.3,0.2,0.2,0.7,0.4,1c0.1,0.1,0.2,0.2,0.1,0.4
		c0.2,0.4,0.1,0.8,0.5,1.1l0,0c0.2,0.3,0.2,0.7,0.5,1c0.1,0.1,0.1,0.2,0.1,0.3c0.2,0.4,0.1,0.9,0.5,1.2l0,0c0.2,0.3,0.2,0.8,0.5,1
		l0,0c0.3,0.3,0.2,0.7,0.4,1c0.1,0.1,0.2,0.2,0.1,0.4c0.2,0.3,0.1,0.8,0.5,1.1l0,0c0.3,0.3,0.2,0.7,0.4,1c0.1,0.1,0.2,0.2,0.1,0.4
		c0.2,0.3,0.1,0.8,0.4,1.1c0.1,0.1,0.1,0.2,0.1,0.3C719.8,192.5,719.8,192.7,719.6,192.9z"/>
	<path class="st10" d="M738.5,315.4c0.2,5.3-0.6,10.5-1.1,15.8c-0.4,4.6-1.2,9.1-1.8,13.7c-0.1,0.8-0.4,1.6-0.5,2.4
		c-0.6,1.1-1.5,1.1-2.2,0.4c-1.2-1.2-2.6-2-3.7-3.3c-5-6.1-11.2-11.1-16.6-16.9c-2.5-2.7-4.7-5.3-4.1-9.3
		c-0.2-7.5,0.7-14.9,0.5-22.4c-0.1-3.6-1.1-7.2-0.3-10.9c0.3-0.8,1.1-1.5,1.3-0.2c0.7,4.1,4.3,5.7,6.7,8.3c4.9,5.3,10,10.3,15,15.6
		c1,1,2,2,3.2,2.7C736.6,312.2,737.8,313.6,738.5,315.4z"/>
	<path class="st11" d="M429.4,2.8c8.1-0.8,16.1-0.5,24.2-0.4c0.7,0,1.5,0.2,2.2,0.3c3.2,3.4,7.1,6.1,9.7,10c1.1,1.6,2.7,2.9,4.2,4.3
		c3.6,3.3,7.1,6.6,10.3,10.2c2.9,3.2,6.6,5.6,9,9.2c0.7,1,1.8,2,0.2,3.1c-1.4,0.3-2.8-0.1-4.2-0.3c-6.4-1-12.7-1.9-19.1-2.5
		c-0.7-0.1-1.5-0.2-2.2-0.5c-0.4-0.1-0.8-0.4-1.2-0.4c-3.4,0.4-5.3-1.8-7.1-4.1c-1.5-1.8-3.2-3.5-5.1-5c-2.1-1.7-3.9-4-5.7-6.1
		c-4.4-5.1-9.8-9.1-14.2-14.1C429.4,5.6,427.8,4.6,429.4,2.8z"/>
	<path class="st12" d="M504.2,8.7c4.4,0.5,8.5,1.8,12.8,2.8c2.5,0.6,5.1,1.1,7.6,2.2c1.9,2.5,3.7,5,6,7.1c3.1,2.9,6.2,5.9,9,9.1
		c1.3,1.6,3,2.8,4.6,4.1c1.6,1.2,3,2.6,4.3,4.1c1.6,1.8,3.2,3.6,5.1,5.3c1.9,1.6,3.4,3.7,5.4,5.4c3.8,3.3,7,7.1,10.7,10.5
		c2.7,2.5,5.7,5,7.6,8.4c0.5,0.9,1.3,1.5,2.1,2.1c0.9,0.7,1.9,1.4,1.3,2.8c-0.8,0.3-1.4-0.1-2.1-0.5c-9.8-5.7-20-10.7-30.4-15.2
		c-0.6-0.3-1.2-0.5-1.6-1.1c-0.3-0.8-0.6-1.8-1.5-2.2c-4.1-2.2-6.7-6-9.8-9.3c-4.4-4.7-9-9.1-13.7-13.6c-3.4-3.2-6.5-6.7-9.8-10.1
		c-2.3-2.4-4.3-5-7-7c-0.8-0.7-1.6-1.5-2.2-2.3c-0.5-0.7-1.1-1.4-0.6-2.3C502.5,8.1,503.4,8.5,504.2,8.7z"/>
	<path class="st11" d="M738.5,315.4c-0.6-0.3-1.1-0.8-1.4-1.4c-0.5-1-1.3-1.4-2.2-2c-1.6-1-3.1-2.1-4.3-3.7
		c-1.1-1.4-2.5-2.6-3.8-3.9c-2-1.9-4-3.8-5.4-6.2c-0.1-0.1-0.2-0.3-0.3-0.4c-4.5-2.1-6.4-7.2-10.5-9.7c-0.8-0.5-1.1-1.2-1.1-2.1
		c0-0.7,0.2-1.5-0.4-2.1c-0.9-0.7-1.1-1.7-1.1-2.7c-0.5-8.4-1.7-16.8-2.9-25.1c0-0.3,0-0.7,0.1-1c0.1-0.3,0.3-0.8,0.6-0.7
		c1.4,0.9,3.3,1.3,4.1,2.7c2.2,4,6,6.4,9.1,9.4c4.2,4,8.1,8.2,12.1,12.3c2,2,4.6,3.5,6.5,5.9c0.6-0.9-0.1-2.3,0.9-3
		c0.4,0.8,0.3,1.6,0.3,2.4c0.2,8.9,0.2,17.7,0,26.6C738.9,312.4,738.7,313.9,738.5,315.4z"/>
	<path class="st13" d="M504.2,8.7c-0.3,0-0.7,0-1,0.1c-1,0-1.2,0.5-0.7,1.3c0.9,1.6,2.3,2.9,3.7,3.9c1.2,0.9,2.2,1.8,2.8,3.1
		c0.2,0.4,0.5,0.9,0.8,0.9c1.7,0.3,2.3,1.8,3.2,2.9c0.9,1.1,1.6,2.3,3.1,2.8c0.2,0.1,0.6,0.2,0.6,0.4c0.5,2.2,2.6,3.1,3.9,4.6
		c1.4,1.7,3.1,3.1,4.8,4.5c1.7,1.3,2.8,3.3,4.9,4.1c1.5,3.5,5,5.1,7.2,7.9c0.6,0.8,0.9,1.9,1.6,2.5c2,1.5,3.4,3.6,5.7,4.7
		c1.3,0.6,2.4,1.5,2.3,3.2c-0.8,0.6-1.6,0.2-2.4-0.1c-8.8-3.5-17.7-6.5-26.7-9.2c-0.6-0.2-1.1-0.4-1.5-0.8c-1.1-2.2-2.5-4.3-4.7-5.6
		c-0.6-0.3-1-0.9-1.4-1.4c-1.8-2.9-4.6-5-7-7.3c-3.3-3.1-6.2-6.6-9.6-9.6c-1.2-1.1-2.2-2.5-3.7-3.3c-0.8-0.4-1.4-1.1-1.8-2
		c-0.3-0.8-0.8-1.5-1.6-1.8c-1.7-0.8-2.8-2-3.5-3.7c-0.3-0.8-1-1.3-1.8-1.7c-0.9-0.5-1.7-1-2.4-1.8c-0.6-0.7-1.6-1.4-1.1-2.3
		c0.5-0.8,1.6-0.4,2.5-0.2c0.3,0,0.6,0,0.9,0.1c0.8,0.5,1.8,0,2.6,0.4c0.3,0,0.6,0.1,0.9,0.1c0.8,0.5,1.8,0,2.6,0.4
		c0.3,0,0.6,0.1,0.8,0.1c0.8,0.5,1.8-0.1,2.6,0.4c0.3,0,0.6,0.1,0.9,0.1c0.6,0.4,1.4,0,2.1,0.4c0.3,0,0.6,0.1,0.9,0.1
		c0.6,0.4,1.4,0,2.1,0.4C499.2,7.5,501.8,7.9,504.2,8.7z"/>
	<path class="st14" d="M538,578.3c-1.3-0.2-1.7-1.8-3.1-1.7c-0.4,0-0.7-0.7-0.8-1.2c-0.4-1.3-1.1-2.4-2.4-3c-0.8-0.4-1.1-1.2-1.2-2
		c-0.1-0.5-0.2-1.3-0.6-1.2c-1.9,0.2-1.9-1.4-2.6-2.4c-0.6-0.9-1.2-1.6-2.3-1.5c-0.6,0-1.2-0.3-1.3-0.9c-0.2-0.6-0.4-0.8-1-0.7
		c-0.7,0-1.3-0.6-1.4-1.2c-0.3-1.6-1.6-2.4-2.8-2.9c-1.8-0.6-1.9-1.8-1.8-3.3c0.1-0.2,0.3-0.3,0.5-0.4c0.5-0.2,1-0.3,1.5-0.6
		c0.9-0.5,1.9-0.9,3-1c0.3-0.1,0.6-0.1,0.9-0.2c0.2,0,0.4,0,0.6,0c0.2,0.3,0.4,0.4,0.5,0c0.3-0.3,0.6-0.5,1-0.5c0.4,0,0.7-0.3,1-0.5
		c6.8-2.3,13.3-5.2,20.2-7.1c2.2,1,3.6,2.9,5.1,4.5c1.9,1.9,3.7,4.1,5.7,5.8c3.1,2.6,5.8,5.3,7.6,8.9c0.3,0.6,1.2,0.6,1.7,0.9
		c0.8,0.4,0.6,0.9,0,1.3l0,0c-0.2,0.3-0.7,0.2-1,0.5l-0.1,0.1l-0.2,0c-0.3,0-0.5,0.2-0.7,0.4c-0.1,0.1-0.2,0.2-0.4,0.1
		c-0.3,0.2-0.8,0.1-1.1,0.5c-0.2,0.4-0.6,0.5-1,0.4c-0.1,0.2-0.2,0.2-0.4,0.2c-0.3,0.1-0.6,0.2-0.9,0.3c-0.2,0-0.4,0.2-0.6,0.3
		c-0.5,0.3-0.9,0.6-1.5,0.6c-0.1,0.2-0.2,0.2-0.4,0.2C551.1,573.8,544.7,576.4,538,578.3z"/>
	<path class="st15" d="M691.4,459.3c-2.8,5-6.3,9.6-9.7,14.2c-2.4,3.3-4.8,6.7-7.6,9.7c-1.7,1.7-3,0.5-3.9-0.7
		c-1.6-2.4-3.9-4.1-5.8-5.9c-2.9-2.7-5.4-5.8-8.5-8.2c-1.2-0.9-2.2-2-2.6-3.5c0.8-3,3.2-5,4.8-7.4c3.6-5.2,7.3-10.3,10.6-15.6
		c0.4-0.7,0.8-1.5,1.7-1.7c1.5-0.1,2.5,0.7,3.6,1.8c2.1,2.1,3.9,4.5,6.3,6.3c1.6,1.2,2.6,3,3.9,4.5
		C686.1,455.4,688.8,457.2,691.4,459.3z"/>
	<path class="st16" d="M738.6,281.9c-0.2,1.4,0.1,2.9-0.4,4.9c-1.1-2-2.5-3.1-3.8-4.3c-0.6-0.6-1.2-1.1-1.9-1.5
		c-1-0.6-1.7-1.6-2.5-2.3c-1.6-1.3-2.6-3.1-4.1-4.4c-1.1-0.9-2-1.9-2.9-3c-0.9-1-2-2.1-3.2-3c-2.5-1.9-4.3-4.4-6.8-6.1
		c-1.4-1-2.5-2.4-3.3-4c-0.3-0.8-0.8-1.3-1.5-1.4c-1.3-0.2-2-1-2.5-2.1c-0.8-0.4-1-1.3-1.2-2.1c-1.6-8.6-3.6-17.2-6-25.7
		c-0.2-0.6-0.3-1.1-0.2-1.7c1.5-1.9,2.6-0.3,3.3,0.7c1.8,2.5,4.3,4.4,6.3,6.6c3.6,3.9,7.3,7.7,11,11.4c3.1,3.1,6.6,5.9,9.7,9.2
		c1.9,2,3.6,4.3,5.8,6.1c0.8,0.6,1.3,0.9,2.1,0.3c0.8,2.9,0.9,5.9,1.2,8.8C738.2,272.8,738.8,277.4,738.6,281.9z"/>
	<path class="st10" d="M429.4,2.8c-0.5,1-0.2,2.2,0.6,2.7c1.8,1,2.5,3.1,4.3,4c0.5,0.3,0.8,0.8,1.1,1.3c0.5,0.7,1,1.4,1.6,1.8
		c3.3,2,5.5,5.1,8,7.9c0.8,0.9,1.9,1.6,2.8,2.4c0.5,0.5,1.1,1,1.4,1.7c0.6,1.3,1.4,2.1,2.8,2.5c1.5,0.5,2.1,2,3,3.2
		c1.1,1.6,2.7,2.7,3.8,4.2c0.5,0.7,1.2,0.4,1.8,0.5c0.9,0.1,1.8-0.3,2.6,0.5c-0.9,1-2.1,0.9-3.3,0.7c-8.5-0.8-17-1-25.5-0.9
		c-0.6,0-1.2,0-1.7-0.1c-2.2-1.3-4.1-3.1-5.6-5.1c-2.8-3.5-6.2-6.4-9.3-9.6c-4.4-4.7-9.3-8.9-13.7-13.7c-0.4-0.5-1-0.9-0.6-1.7
		c0.1-0.1,0.2-0.1,0.3,0c0.8-0.4,1.8,0.1,2.7-0.4c4-0.9,8.2-1.1,12.3-1.4C422.3,3.1,425.8,2.6,429.4,2.8z"/>
	<path class="st17" d="M223.3,100.4c0.1,1.7,0.7,3,2.5,3.5c1.9,0.5,3,2.1,4.1,3.5c3.2,3.8,6.5,7.6,10.4,10.8
		c0.1,0.1,0.3,0.2,0.4,0.3c1.8,3.1,5,4.8,7.5,7.1c0.2,0.2,0.6,0.5,0.7,0.7c0.2,2.1,1.8,3,3.3,4c0.1,0,0.2,0.1,0.2,0.2
		c0.5,1.7,1.9,2.4,3.2,3.4c1.3,1,2.6,2,3.9,3c0.3,0.3,0.8,0.5,0.9,0.9c0.3,3,3.1,4,4.9,5.7c2.7,2.5,4.7,5.8,8.2,7.4
		c0.1,0.1,0.3,0.2,0.4,0.3c0.8,2.6,3,4.2,4.7,6.1c0.6,0.7,1,1.4,1.9,1.8c1.1,0.5,2.1,1.4,2.7,2.5c0.1,0.1,0.2,0.3,0.3,0.4
		c2.3,1.3,3.7,3.5,5.4,5.3c2.1,2.1,4.3,4,6.1,6.4c0.4,0.5,0.8,1.2,1.4,1.4c2.1,0.6,3.2,2.5,4.9,3.6c1,0.7,1.9,2,2.3,3.1
		c0.7,1.9,2.3,2.6,3.6,3.6c1.1,1,2.4,1.7,2.9,3.3c0.1,0.4,0.5,0.9,0.9,1.1c2.1,1.1,3.2,3.4,5.4,4.3c0.1,0.1,0.3,0.2,0.4,0.3
		c0.4,2.2,1.9,3.4,3.6,4.6c0.7,0.6,1.4,1.3,2.2,1.9c2.1,1.5,3.5,3.6,5.3,5.3c1.6,1.5,2.8,3.5,4.5,4.7c1.3,0.8,1.9,2.4,3.5,2.8
		c1.7,0.5,1.9,2.4,2.8,3.5c1.1,1.5,2.8,2.6,4.2,3.8c0.2,0.2,0.5,0.2,0.6,0.4c2,3.5,6.1,4.9,8.1,8.4c0.5,0.9,1,1.5,0.3,2.4
		c-0.1,0-0.2,0-0.3,0c-0.2,0-0.4-0.1-0.7-0.2c-1.2-0.7-2.1-1.7-2.9-2.8c-0.1-0.2-0.3-0.3-0.4-0.5c-0.1-0.1-0.1-0.2-0.2-0.2
		c-0.2-0.1-0.3-0.3-0.5-0.4c-0.8-0.5-1.5-1.2-2-2c-0.1-0.2-0.3-0.3-0.4-0.5c-0.1-0.1-0.2-0.1-0.2-0.2c-0.2-0.1-0.4-0.3-0.5-0.4
		c-6.1-5.7-11.9-11.7-17.8-17.6c-4.8-4.8-9.7-9.4-14.3-14.5c-0.2-0.2-0.4-0.5-0.7-0.7c-1.3-1-2.4-2.3-3.6-3.4
		c-0.2-0.1-0.3-0.3-0.5-0.5c-0.1-0.1-0.1-0.2-0.2-0.2c-0.2-0.1-0.3-0.3-0.5-0.4c-0.1-0.1-0.2-0.1-0.3-0.2c-0.2-0.1-0.4-0.2-0.6-0.4
		c-6.9-6.5-13.6-13.2-20.1-20.1c-0.1-0.2-0.3-0.4-0.4-0.5c-0.1-0.1-0.1-0.2-0.2-0.3c-0.1-0.2-0.3-0.3-0.4-0.5
		c-0.1-0.1-0.2-0.2-0.2-0.2c-0.2-0.2-0.3-0.3-0.5-0.5c-7.3-7.3-14.6-14.6-21.9-21.9c-0.8-0.8-1.7-1.6-2.3-2.6
		c-0.1-0.2-0.3-0.3-0.4-0.5c-0.1-0.1-0.1-0.2-0.2-0.2c-0.2-0.1-0.3-0.3-0.5-0.4c-1.1-0.9-2.1-1.8-2.9-3c-0.1-0.2-0.3-0.3-0.4-0.5
		c-0.1-0.1-0.2-0.1-0.2-0.2c-0.2-0.1-0.4-0.3-0.5-0.4c-2.8-2.4-4.8-5.5-7.6-7.8c-0.1-0.6-0.4-0.5-0.8-0.3c-3.4-1.2-6.1-0.3-8.5,2.3
		c-1.2,1.3-2.3,2.6-3.3,4c-0.6,0.8-1.2,1.6-2.3,1.8c-0.4,0-0.9-0.1-1.1-0.5c-1.2-3.1-4-4.6-6.3-6.7c-1.4-1.3-2.9-2.4-3.9-4.1
		c-0.4-0.6-0.9-1.2-1.6-1.5c-1.9-0.7-3-2.2-3.9-4c-0.5-1.1-1.4-1.7-2.5-2.2c-0.9-0.4-1.8-1-1-2.2C215.1,109.5,219,104.8,223.3,100.4
		z"/>
	<path class="st16" d="M480.3,4.7c-0.7,0.1-1.5-0.2-2.2,0.3c0.8,1.5,1.9,2.6,3.4,3.4c1.2,0.6,2.1,1.3,2.4,2.6
		c0.3,1.3,1.3,2.1,2.5,2.6c1.1,0.5,2,1.1,2.3,2.4c0.2,1,1,1.5,1.8,1.9c0.8,0.4,1.5,0.7,2,1.4c1.9,2.9,4.9,4.6,7.2,7.1
		c0.7,0.7,1.4,1.4,1.8,2.3c0.2,0.5,0.5,1.1,1.1,1.3c2.1,0.5,2.9,2.5,4.5,3.7c1.3,1,2.6,2.3,3.4,3.9c0.5,1,1.4,1.6,2.4,2.3
		c1.8,1.2,3.4,2.8,3.8,5.2c-0.8,0.7-1.7,0.4-2.6,0.2c-7.4-1.9-14.8-3.6-22.3-5c-0.8-0.1-1.7-0.3-2-1.2c0-0.6,0-1.2-0.4-1.6
		c-2.4-2.4-4.2-5.3-7.1-7.2c-1.8-1.2-2.8-3.2-4.7-4.4c-0.4-0.2-0.6-0.8-0.7-1.3c-0.3-1.1-1-1.8-2-2c-1.1-0.3-1.8-1.1-2.4-2
		c-0.5-0.8-1.2-1.3-1.9-1.9c-2-1.8-3.8-3.7-5.7-5.5c-0.1-0.1-0.1-0.1-0.2-0.2c-0.4-2.3-2.5-3.1-4.1-4.4c-0.7-0.5-1.2-1.1-1.7-1.8
		c-0.7-1-1.3-2.1-2.5-2.7c-0.5-0.2-0.6-0.8-0.6-1.3c0.8-0.1,1.7-0.1,2.5,0.1c2,0.6,4.1-0.1,6.1,0.4C469.7,3.3,475,3.8,480.3,4.7z"/>
	<path class="st18" d="M691.4,459.3c-0.9,0-1.6-0.2-2.2-0.9c-0.7-0.8-1.4-1.6-2.6-1.7c-0.6,0-0.9-0.5-1-1c-0.2-1.3-1.2-2-2-2.7
		c-1-0.9-1.9-1.8-2.5-3c-0.3-0.6-1-1.2-1.6-1.5c-1.2-0.8-2.3-1.6-2.9-2.9c-0.5-1.1-2-1.3-2.6-2.3c-0.9-1.5-2.1-2.4-3.7-2.9
		c0,0,0-0.2,0-0.2c0-0.2,0.1-0.3,0.1-0.5c0.1-0.2,0.1-0.3,0.2-0.4c0.1-0.1,0.2-0.3,0.3-0.4c0,0,0.2-0.2,0.1-0.2
		c0.1-0.2,0.2-0.4,0.4-0.6c0.1-0.1,0.1-0.3,0.2-0.4c0.1-0.1,0.1-0.3,0.2-0.4c0.1-0.2,0.1-0.3,0.2-0.4c0.1-0.1,0.2-0.3,0.3-0.4
		c0,0,0.2-0.2,0.1-0.2c0.1-0.2,0.3-0.4,0.4-0.6c0.1-0.1,0.1-0.3,0.2-0.4c0.1-0.1,0.1-0.3,0.2-0.4c0.1-0.1,0.1-0.3,0.2-0.4
		c0.1-0.2,0.2-0.4,0.3-0.6c0.1-0.1,0.1-0.3,0.2-0.4c0.1-0.2,0.2-0.4,0.3-0.6c0.1-0.2,0.1-0.3,0.2-0.4c0.1-0.1,0.2-0.3,0.3-0.4
		c0,0,0.2-0.2,0.1-0.2c0.1-0.1,0.2-0.3,0.2-0.4c0.1-0.2,0.2-0.3,0.2-0.4c0.1-0.2,0.2-0.5,0.3-0.7c0.1-0.2,0.1-0.4,0.2-0.5
		c0.1-0.3,0.2-0.6,0.3-0.9c2.1-4.2,4.3-8.3,6.4-12.5c0.3-0.6,0.6-1.2,1.4-1.2c2.1,1.9,4.5,3.4,6.4,5.6c1.9,2.1,4.2,4.1,6.4,6
		c1.9,1.6,3.7,3.3,5,5.5c0.8,1.5,2.4,1.9,3.6,2.9c-3.1,6.6-6.9,12.7-10.6,18.9C693.9,455.7,692.8,457.6,691.4,459.3z"/>
	<path class="st19" d="M262.8,111.8c-0.9-0.4-2-0.4-2.7-1.2c-2.1-2.7-5.2-4.3-7.1-7.1c-0.4-0.6-0.9-1.2-1.6-1.4
		c-1.4-0.4-1.3-2-2.3-2.8c-1.3-1-2.7-2-3.6-3.3c-1.5-2.4-3.7-4.1-5.7-6c-0.9-0.8-2-1.8-2.3-2.9c-0.4-1.2,1.6-1.6,1.7-2.8
		c5-5.1,10.4-9.8,16-14.2c2,1.9,4.1,3.8,6.4,5.3c1.7,1.1,1.9,3.4,3.3,4.9c1.1,1.2,2.5,2.2,3.7,3.3c3.3,3,6.2,6.3,10,8.6
		c0.4,1.3-0.7,1.7-1.4,2.3c-3.7,3-7.3,6.2-10.9,9.3c-0.1,0.2-0.3,0.3-0.5,0.4c-0.1,0.1-0.2,0.1-0.2,0.2c-0.1,0.1-0.3,0.3-0.4,0.4
		c-0.1,0.1-0.1,0.1-0.2,0.2c-0.1,0.1-0.3,0.2-0.4,0.4c-0.1,0.1-0.1,0.1-0.2,0.2c-0.1,0.1-0.2,0.3-0.3,0.4c-0.1,0.2-0.2,0.3-0.2,0.4
		c-0.1,0.2-0.2,0.4-0.3,0.7c-0.1,0.2-0.1,0.3-0.2,0.5c-0.1,0.3-0.2,0.7-0.3,1c0,0.2-0.1,0.4-0.1,0.5c-0.2,0.6-0.1,1.2,0.1,1.7
		C263,111.2,263,111.5,262.8,111.8z"/>
	<path class="st19" d="M653.4,464.8c1,1.4,2.2,2.6,3.4,3.8c1.7,1.5,3.5,3,4.7,5c0.2,0.3,0.4,0.6,0.7,0.7c1.9,0.9,3.4,2.1,4.2,4.2
		c0,0.1,0.1,0.2,0.1,0.2c2.5,0.3,3,2.7,4.5,4.1c1,0.9,1.8,1,2.9,0.5c-2.4,3.6-5.4,6.7-8.2,10c-3.8,4.3-7.5,8.6-11.8,12.4
		c-0.7-0.2-1-0.8-1.3-1.4c-0.4-0.9-1.1-1.7-1.8-2.3c-0.8-0.7-1.7-1.3-2.1-2.4c-0.2-0.7-1-0.9-1.5-1.2c-0.7-0.3-1.5-0.7-1.6-1.4
		c-0.3-1.2-1-1.8-2.3-1.9c-0.1,0-0.4-0.1-0.4-0.2c-0.7-1.9-2.8-2.5-3.7-4.1c-0.5-0.9-1.2-1.5-2.1-1.9c-0.3-0.1-0.6-0.3-0.9-0.4
		c-2.7-1.5-3-2.1-2.2-5.1c0.2-0.3,0.5-0.4,0.8-0.4c0.4-0.1,0.8-0.1,1.1-0.2c0.2-0.1,0.3-0.1,0.5-0.2c0.2-0.1,0.5-0.2,0.7-0.3
		c0.2-0.1,0.3-0.2,0.5-0.3c0.3-0.2,0.5-0.6,0.8-0.9c4.7-4.2,8.5-9.2,12.5-14C651.6,466,651.9,464.6,653.4,464.8z"/>
	<path class="st12" d="M728.2,217.7c1.8,4.8,2.7,9.9,3.9,14.8c0.3,1,0.7,2.1,0.5,3.2c0.5,0.6,0,1.4,0.5,2c0.1,0.1,0.1,0.3,0.1,0.4
		c0.3,0.5,0.3,1-0.3,1.2c-0.6,0.3-1.1-0.2-1.5-0.6c-2-2-3.9-4.3-6-6.2c-7.7-7-15-14.3-22.2-21.7c-3.4-3.6-7-7-10.4-10.6
		c-1.3-1.4-2.6-2.5-4.2-3.4c-1.5-1.4-1.9-3.4-2.8-5.2c-3.6-7.8-7.4-15.5-11.7-22.9c-0.5-0.9-1.2-1.8-1-3c0.8-1.3,1.6-1,2.6-0.1
		c4.6,4.3,8.6,9.3,13.3,13.6c2.7,2.5,5.3,5.3,7.5,8.2c1.2,1.6,2.8,2.9,4.3,4.1c3.9,3.1,7,7,10.7,10.3c2.7,2.4,5.2,5.1,7.5,7.8
		c2.2,2.5,5.2,4.4,7,7.3C726.4,217.7,727.2,218,728.2,217.7z"/>
	<path class="st20" d="M688.7,196.5c1.5,0.1,2.7,1.2,3.4,2.2c2,2.7,4.9,4.4,7.1,6.9c1.3,1.4,2.6,2.7,3.7,4.3
		c0.8,1.2,2.1,2.2,3.2,3.2c4.1,3.8,7.8,7.9,11.9,11.7c3.1,3,6.3,5.8,9.3,8.9c1.5,1.6,3.3,2.9,4.5,4.7c0.6,0.9,1.2,1,1.4-0.3
		c1.1,3.6,1.7,7.2,2,10.9c0.5,0.8-0.1,1.8,0.4,2.6c0.1,0.1,0.1,0.3,0,0.4c0.5,0.8-0.1,1.8,0.4,2.6c0,0.3,0.1,0.6,0.1,0.9
		c0.5,1-0.1,2.1,0.4,3.1c0,0.3,0.1,0.6,0.1,0.8c-0.1,0.5,0.1,1.3-0.6,1.5c-0.8,0.3-1.1-0.4-1.5-0.9c-1.9-2.1-3.9-4.1-5.9-6.2
		c-0.9-0.9-1.8-2-2.7-2.9c-1.6-1.7-3-3.7-5.2-4.8c-1.8-0.8-2.9-2.5-4-3.9c-2.4-3-5.3-5.4-7.8-8.2c-2.4-2.7-5.4-4.8-7.4-7.8
		c-0.6-0.9-1.4-1.7-2.7-1.5c-1.1-0.4-1.3-1.4-1.6-2.4c-2.3-7.9-5.2-15.6-8.3-23.2C688.6,198.4,688,197.5,688.7,196.5z"/>
	<path class="st21" d="M709.1,318.8c-0.6,3.3,1.2,5.5,3.4,7.7c2.5,2.5,5,5,7.4,7.7c1.6,1.8,3.3,3.8,5.7,5c0.8,0.4,1.5,1.2,1.9,1.9
		c1.2,2.8,4.1,4.1,5.8,6.3c0.5,0.7,1.2,0.1,1.8-0.1c-0.3,3.9-1.2,7.6-2,11.4c-0.9,4.2-1.6,8.4-3,12.5c-0.4,0.5,0,1.1-0.4,1.6
		c0.1,0.2,0,0.3-0.1,0.4c-0.5,0.9-1.1,0.6-1.6,0.1c-0.7-0.7-1.6-1.3-2.2-2c-4.1-5.2-9.2-9.5-13.9-14c-0.2-0.2-0.5-0.5-0.7-0.7
		c-1.7-2.4-3.7-4.4-6.3-5.7c-0.1-0.4-0.1-0.7-0.1-1.1c0.2-0.7,0.3-1.4,0.4-2.1c0-0.2,0.1-0.5,0.1-0.7c0.3-0.9,0.2-1.8,0.2-2.7
		c0.6-6.3,1.7-12.5,2.2-18.9c0.1-1.4,0.2-2.8,0.3-4.2C708,320.3,707.9,319.2,709.1,318.8z"/>
	<path class="st22" d="M328.8,25.6c4.7-2.4,9.8-4.1,14.7-5.9c2.2-0.8,4.3-1.7,6.6-2.1c2.8,4.4,7.3,7.1,10.8,10.8
		c3.8,4,7.7,7.9,11.7,11.8c0.9,0.8,1.3,1.9,0.8,3.2c-0.6,0.8-1.5,0.9-2.4,1.2c-5.8,1.8-11.6,3.6-17.3,5.7c-0.5,0.2-1.1,0.3-1.7,0.3
		c-2.8-1-4.4-3.3-6.4-5.3c-4.2-4.2-8.5-8.4-12.9-12.4c-1.5-1.4-2.8-2.8-4-4.3C327.8,27.6,327.6,26.6,328.8,25.6z"/>
	<path class="st23" d="M278.6,92.4c-1.5-0.5-2.8-1.3-4-2.3c-0.6-0.5-1-1.1-1.8-1.2c-0.2,0-0.6-0.2-0.6-0.3c-0.3-1.9-2.1-2.5-3.2-3.7
		c-0.6-0.7-1.3-1.1-2-1.6c-1.6-1.1-3-2.6-3.7-4.4c-0.7-1.8-1.8-3.1-3.5-4c-1.9-1.1-3.7-2.5-4.5-4.7c6.1-5.3,12.5-10.2,19.4-14.6
		c2.1,3.8,4.8,7.1,8.1,9.8c2.5,2,4.6,4.3,6.7,6.5c2.3,2.5,4.9,4.6,6.7,7.6c0,0.9-0.7,1.2-1.3,1.7c-4.6,3.4-9.3,6.7-13.8,10.3
		C280.3,92,279.6,92.6,278.6,92.4z"/>
	<path class="st7" d="M565.8,567.3c0.1-0.3,0.4-1-0.2-0.9c-1.6,0.4-2-0.6-2.6-1.6c-0.4-0.8-0.7-1.7-1.2-2.4
		c-1.2-1.8-2.3-3.6-4.5-4.3c-0.4-0.2-1-0.5-1.2-0.8c-0.7-1.7-2-2.8-3.4-3.7c-1.4-0.9-1.8-2.8-3.5-3.6c-1.4-0.7-2.3-2.3-3.4-3.5
		c0-1.1,0.9-1.3,1.7-1.6c6.8-2.7,13.3-6.1,19.9-9.4c0.9-0.4,1.7-1,2.8-0.7c0.8,0.8,1.6,1.4,2.5,1.9c1.7,1,3.4,2.1,4.1,4.1
		c0.1,0.4,0.4,0.8,0.7,1c2.3,1.3,3.9,3,5.1,5.4c1,2.2,3.1,3.4,5.5,4.1c1.4,0.4,3.1,1,2.5,3.2l0,0c-0.2,0.1-0.4,0.3-0.5,0.4
		c-0.3,0.3-0.6,0.5-1,0.6c-0.1,0.2-0.3,0.3-0.4,0.3c-0.4,0.3-0.8,0.7-1.4,0.7c-0.2,0.1-0.4,0.2-0.6,0.4c-0.6,0.5-1.3,0.9-2,1.1
		c-0.1,0.2-0.2,0.3-0.4,0.3C578.3,561.5,572.2,564.7,565.8,567.3z"/>
	<path class="st24" d="M328.8,25.6c-0.5,1-0.5,1.7,0.3,2.7c1.7,2.1,3.8,3.9,5.8,5.7c0.9,0.8,1.9,1.6,2.5,2.8
		c0.1,0.2,0.3,0.5,0.5,0.6c2.2,0.5,3.2,2.4,4.4,4c1.2,1.5,3,2.5,4.2,4.1c1.5,1.8,3.5,3.1,5.3,4.7c0.1,0.6-0.4,0.9-0.8,1.1
		c-6.7,2.6-13.2,5.8-20,8.4c-2.5-0.1-3.5-2.3-4.9-3.8c-1.8-1.9-3.3-3.9-5.7-5.1c-0.7-0.3-1.4-0.8-1.6-1.5c-0.8-2.3-2.6-3.5-4.5-4.8
		c-2.5-1.7-4.4-4-6.1-6.5c-0.6-0.9-1.1-1.9,0.2-2.8c4.5-2.7,9.4-4.8,14.2-7C324.7,27.2,326.6,26.1,328.8,25.6z"/>
	<path class="st25" d="M208.4,172c-0.6-0.9-1.4-1.6-2.2-2.3c-1.6-1.3-3.9-1.8-4.2-4.3c-2.2-1.1-2.6-4.2-5.3-4.8
		c-0.4-0.1-0.9-0.5-0.9-0.7c-0.2-2.2-2.1-2.5-3.5-3.5c-0.8-0.6-1.4-1.2-1.9-2.1c-0.7-1.3-2.1-2-3.3-2.9c-0.2-0.1-0.8,0.2-1.1,0.3
		c1.1-2.6,2.7-4.9,4.2-7.2c2.9-4.7,5.7-9.4,9.2-13.7c1-0.3,1.6,0.3,1.7,1c0.2,1.7,1.5,2.5,2.7,3.2c3,1.8,5.2,4.6,7.5,7.1
		c1.8,2,3.7,3.7,5.9,5.2c0.6,0.4,1.2,0.9,1.3,1.7c0.1,1.5,1.2,2.3,2.1,3.2c-0.2,2.2-1.7,3.7-2.8,5.4c-2.6,4.2-5.1,8.5-7.5,12.8
		C209.7,171,209.6,172.2,208.4,172z"/>
	<path class="st21" d="M371.6,11.3c6.2-1.7,12.5-3.2,18.9-4.1c-0.5,2.2,0.4,3.6,2.2,5c2.5,2,4.9,4.2,6.8,6.8
		c0.2,0.3,0.5,0.7,0.8,0.9c4,2.7,6.3,7,10.1,10c1.5,1.2,3.2,2.3,4.5,3.8c0.7,0.8,1.8,0.6,2.8,0.8c0.7,0.1,1.8-0.3,1.7,1.1
		c-1.5,1.1-3.3,0.6-5,0.8c-6.3,0.8-12.6,1.4-18.8,2.6c-0.6,0.1-1.3,0.2-2,0c-4.1-3.5-8.5-6.5-11.6-11c-1.3-1.9-3.1-3.5-5.4-4.6
		c-2-0.9-3-3.2-4.6-4.7c-1.4-1.3-2.3-3-3.8-4.2c-0.8-0.7-1.3-1.6,0-2.4c0.1-0.1,0.2-0.1,0.3-0.1c0.4-0.2,0.8-0.1,1.1-0.4
		c0.2,0,0.3-0.1,0.5-0.1C370.6,11.3,371.2,11.7,371.6,11.3z"/>
	<path class="st22" d="M724.1,391.6c-1.7,6.3-4.2,12.3-6.7,18.3c-0.5,1.4-1,2.8-1.8,4.1c-1,0.8-1.6,0.1-2.3-0.5
		c-4-3.7-7.7-7.7-11.5-11.6c-1.7-1.7-3.3-3.6-4.8-5.6c-1.1-1.4-3.3-1.8-3.7-3.9c-0.1-1,0.3-2,0.6-2.9c2.1-6.2,4.2-12.4,5.8-18.7
		c0.2-0.8,0.4-1.6,1.2-2.1c1.2,0.2,1.3,1.5,2.1,2.2c4.2,3.4,7.2,8,11.5,11.4c2.3,1.8,4.4,4,6,6.5
		C721.4,390.1,722.5,391.1,724.1,391.6z"/>
	<path class="st24" d="M693.7,392.4c0,0.1,0,0.2,0.1,0.2c2.2,1.6,3.8,3.7,5.9,5.4c0.3,0.2,0.7,0.3,0.8,0.6c1.4,3.9,5.4,5.5,7.5,8.8
		c0.8,1.3,2.2,2.1,3.4,3.1c0.9,0.8,1.8,1.5,2.3,2.5c0.4,0.8,1.1,0.9,1.9,0.9c-2.1,5.5-4.5,10.8-7.4,15.9c-0.3,0.3-0.2,0.7-0.5,1l0,0
		c-0.3,0.3-0.2,0.7-0.5,1l0,0c-0.3,0.3-0.2,0.7-0.5,1l0,0c-0.3,0.3-0.2,0.7-0.5,1l0,0c-0.3,0.3-0.2,0.7-0.5,1c0,0,0,0,0,0
		c-2.2,0-3.5-1.4-4.5-3.1c-1.1-1.8-2.5-3.2-4.1-4.5c-1.6-1.4-3-3-4.4-4.5c-0.6-0.7-1.2-1.4-2.2-1.3c-0.6,0-1.1-0.1-1-1
		c0.1-1.4-1-2.1-2.1-2.8c-1.2-0.8-2.9-1-3.1-2.9c-0.6-1.2,0.2-2.3,0.6-3.3c2.7-5.7,5.1-11.5,7.3-17.4
		C692.4,393.4,692.7,392.6,693.7,392.4z"/>
	<path class="st26" d="M296,79.4c-0.9,0-1.3-0.6-1.7-1.3c-0.8-1.3-1.9-2.2-2.9-3.3c-1.6-1.6-3.2-3.3-4.7-5.1c-0.8-1-1.7-2-2.8-2.7
		c-3.9-2.6-6.2-6.5-9.3-9.8c-0.6-0.6-0.3-1.2-0.1-1.8c0,0,0,0,0,0c0.2-0.1,0.4-0.3,0.6-0.4l0,0c0.1-0.2,0.2-0.3,0.4-0.3
		c0.1-0.1,0.2-0.2,0.4-0.2c0.3-0.1,0.4-0.3,0.6-0.5l0,0c0.1-0.1,0.3-0.3,0.5-0.4c4.1-3,8.3-5.8,12.8-8.2c2.5,0.8,4.3,2.7,5.9,4.6
		c0.4,0.5,0.6,1.2,1.1,1.6c4.4,3.3,8,7.4,11.7,11.5c1.5,1.7,3.5,3.2,5.3,4.7c0.1,1.1-0.8,1.4-1.4,1.8c-4.9,2.9-9.6,5.9-14.3,9.1
		C297.6,79.3,296.9,79.8,296,79.4z"/>
	<path class="st18" d="M314,68c-0.6-0.1-1.3,0.1-1.6-0.4c-1.4-2.4-4.4-3.1-5.7-5.6c-0.8-1.6-2.1-2.7-3.6-3.7
		c-0.7-0.5-1.4-1.2-1.9-1.9c-1.1-1.7-2.5-3.1-4.3-3.9c-0.4-0.2-0.8-0.4-0.9-0.8c-1.1-3-4.1-4.1-6.1-6.2c0,0,0.1,0,0.1,0
		c0.3-0.1,0.4-0.3,0.6-0.4l0,0c0.3-0.3,0.7-0.2,1-0.6l0,0c0.3-0.2,0.8-0.1,1-0.6l0,0.1c0.2-0.1,0.4-0.3,0.6-0.4l0,0
		c0.2-0.3,0.7-0.2,1-0.5l0,0c0.2-0.1,0.3-0.3,0.5-0.4c4.5-2.8,9.1-5.4,14-7.6c-0.6,0.8-0.4,1.6,0.2,2.3c2.2,2.8,4.3,5.7,7.6,7.4
		c1.3,0.7,2.5,1.6,2.8,3.3c0.2,1.2,1.2,1.9,2.1,2.3c2.4,1,3.9,3,5.4,5c1,1.4,2.7,2.1,3.5,3.6c0.1,0.2,0.6,0.1,1,0.1
		c0,1.2-1,1.4-1.8,1.8c-4.3,2.1-8.6,4.4-12.8,6.8C315.6,68,314.9,68.6,314,68z"/>
	<path class="st5" d="M580.7,72.5c-0.5-1.2-1-2.3-2.4-2.6c-0.7-0.2-1-0.8-1.3-1.4c-1-1.7-2-3.4-3.8-4.4c-0.8-0.5-1.4-1.3-2-2.2
		c-0.8-1.3-1.5-2.9-3.3-3.1c-1-2-3.9-2.2-4.4-4.7c-0.1-0.4-0.6-0.8-1-1.1c-2.6-1.9-4.7-4.3-7-6.5c-1.6-1.5-2.8-3.5-4.9-4.5
		c-2.8-4.4-6.8-7.6-10.8-10.8c-0.4-0.4-1-0.8-1.2-1.3c-0.3-1.3-1.2-2-2.2-2.5c-1.7-1-2.7-2.6-4-4c-0.6-0.7-1.2-1.4-1.9-1.9
		c-2.7-1.6-4-4.6-6.2-6.7c-0.4-0.4-0.5-0.8,0.1-1.2c0.2,0,0.3,0,0.5,0.1c0.3,0.3,0.8,0.2,1.1,0.4c0.1-0.1,0.3,0,0.4,0.1
		c0.4,0.4,1.1,0,1.5,0.5l0,0c0.4,0.5,1.1,0.1,1.6,0.5c0.2,0,0.3,0,0.4,0.1c0.3,0.3,0.8,0.2,1.1,0.4c0.1-0.1,0.3,0,0.4,0.1
		c0.3,0.3,0.8,0.3,1.2,0.4c1.2,0.1,2.3,0.5,3.3,1.1l0,0c1.1,0.1,2.1,0.4,3,1c-0.6,0.1-1.5-0.3-1,1c0.8,1.9,2.3,3.3,3.8,4.5
		c1.2,1,2.3,2.1,3.3,3.3c0.3,0.4,0.7,0.9,1.1,1c1.3,0.3,1.7,1,1.9,2.3c0.1,0.8,1,1,1.7,1.3c0.9,0.4,1.8,0.9,2.1,1.9
		c0.4,1,1.4,1.4,2.2,1.9c1.1,0.7,1.9,1.7,2.7,2.8c1.4,2,2.8,4,5.1,5.2c0.9,0.4,1.5,1.3,2,2.1c0.9,1.5,2.1,2.6,3.4,3.8
		c2.1,2.1,4.3,4,6.5,6c0.5,0.5,1,1,1.7,1.4c0.4,0.2,1.1,0.4,1.2,0.8c0.6,2,2.3,2.9,3.7,4.2c1.7,1.6,2.7,3.9,4.7,5.1
		c0.2,0.1,0.4,0.3,0.5,0.5c1.5,2.8,4.1,4.4,6.4,6.4c1.1,0.9,2.1,1.7,3,2.9c1.9,2.6,4.4,4.6,6.2,7.3c0.4,0.6,1.2,0.9,1.8,1.2
		c1.4,0.6,2,1.7,1.6,3.2c-0.8,0.4-1.4-0.2-2-0.6c-6.7-4.8-13.4-9.5-20.5-13.8C581.4,73.8,580.7,73.5,580.7,72.5z"/>
	<path class="st27" d="M220.2,152.1c-1.6-0.3-2.5-1.1-2.4-2.9c0.1-0.7-0.3-1.2-1-1.6c-2.2-1.3-4-3-5.7-4.9c-2.9-3.1-5.5-6.5-9.4-8.5
		c-0.8-0.4-1.4-0.8-1.1-1.9c0.3-1.1-0.6-1.4-1.3-1.8c2.7-4.4,5.9-8.4,9-12.4c1-1.3,1.9-2.7,3.1-3.8c-0.2,1,0.5,1.6,1.3,1.8
		c1.6,0.3,2.3,1.4,2.9,2.7c0.7,1.5,1.5,2.9,3.4,3.3c0.7,0.2,1.3,0.7,1.7,1.4c1.3,2.5,3.6,3.9,5.7,5.6c1.3,1,2.3,2.4,3.8,3.3
		c0.6,0.4,0.6,1.1,0.6,1.8c0,0.7,0.5,1,1.1,1c0.4,0.8-0.2,1.4-0.6,2c-3.2,4.4-6.4,8.8-9.3,13.4C221.6,151.3,221.1,152.1,220.2,152.1
		z"/>
	<path class="st28" d="M368.2,12.2c-0.6,0.8-0.4,1.7,0.4,2.1c1.3,0.6,1.9,1.7,2.7,2.8c0.9,1.2,1.7,2.4,3.1,3.1
		c0.3,0.2,0.7,0.5,0.8,0.9c0.4,1.5,1.4,2.1,2.8,2.3c0.3,0,0.7,0.2,0.9,0.5c1,1.8,3,2.7,4.2,4.5c2,3.2,5,5.7,8.1,7.8
		c0.9,0.6,1.8,1.2,1.9,2.5c-0.5,1.1-1.6,1.2-2.5,1.3c-5,0.9-9.9,2.2-14.8,3.4c-0.9,0.2-1.8,0.5-2.6-0.2c0-1.4-0.5-2.5-1.8-3.3
		c-0.6-0.3-1-0.8-1.5-1.3c-2-2.5-4.7-4.4-6.7-6.8c-1.4-1.7-3.3-3-4.5-4.8c-0.1-0.1-0.2-0.3-0.3-0.3c-2.7-0.9-3.7-3.9-6.1-5.2
		c-1.3-0.8-2-2.1-2.1-3.7c0,0,0,0,0,0c0.3-0.2,0.8-0.1,1.1-0.4c0.1-0.1,0.2-0.1,0.3-0.1c0.4-0.2,0.8-0.1,1.1-0.4
		c0.1-0.1,0.2-0.1,0.4-0.1c0.4-0.2,0.8-0.1,1.1-0.4C358.8,14.6,363.4,13.2,368.2,12.2z"/>
	<path class="st25" d="M590.7,554.4c-0.3-1.4-1.2-2.3-2.6-2.6c-1.2-0.2-2.1-1.3-3.5-1c-0.3,0.1-0.7-0.1-0.7-0.5
		c-0.2-1.4-1-2.2-2.1-2.9c-0.2-0.1-0.5-0.4-0.4-0.6c0.1-2.6-2.1-3.1-3.7-4.2c-0.5-0.3-1.2-0.5-1.3-1.1c-0.6-2.8-3-3.7-5.2-4.9
		c-0.8-0.4-1.5-0.8-1-1.8c0.1-1.2,1.1-1.6,2-2c4.6-2.5,9.1-5.1,13.4-7.9c0.8-0.5,1.6-0.9,2.5-1c1.6,0.2,2.8,1.2,3.6,2.5
		c1.1,1.8,2.5,3,4.1,4.2c2.4,1.9,4.5,4,6.2,6.6c1.3,2,3.9,2.4,5.4,4.3c0.4,0.5,1.3,0.8,1.1,1.7C602.9,547.4,597,551.2,590.7,554.4z"
		/>
	<path class="st28" d="M724.1,391.6c-1.2,0.7-2,0.1-2.8-0.7c-0.7-0.8-1.2-1.7-1.8-2.6c-0.2-0.3-0.3-0.7-0.5-0.8
		c-2.1-1.3-3.1-3.5-5-5c-1.1-0.8-2.5-1.2-3.3-2.5c-0.6-1-1.5-1.7-2.1-2.7c-0.9-1.4-2.2-2.2-3.3-3.2c-1.7-1.5-3.7-3-4.1-5.6
		c-0.6-0.7-0.4-1.6-0.2-2.4c1-4.5,2.1-9,3-13.6c0.1-0.8,0.2-1.7,1.2-2c0.3,0.5,0.7,0.6,1.2,0.7c1.4,0.2,2.4,1.1,3.2,2.2
		c1.3,1.8,2.8,3.4,4.5,4.9c2,1.7,3.7,3.7,5.6,5.6c1.1,1.1,2.1,2.3,3.5,3.1c0.8,0.5,1.3,1.2,1.7,2.1c0.8,1.8,2.7,2.6,3.8,4.2
		c0.2,0.3,0.6,0,0.9-0.1c-1.2,5.2-2.6,10.4-4.5,15.4c-0.3,0.3-0.2,0.8-0.4,1.1c0,0.2,0,0.3-0.1,0.4c-0.3,0.3-0.2,0.8-0.4,1.1
		C724.2,391.4,724.2,391.5,724.1,391.6z"/>
	<path class="st5" d="M728.2,217.7c-0.2,1.2-0.8,1.4-1.7,0.7c-1-0.9-2-1.7-2.6-3c-0.4-1-1.2-1.6-2.2-2.2c-1.6-0.8-2.5-2.5-3.6-3.9
		c-0.5-0.7-0.9-1.5-1.7-1.7c-1.4-0.4-2.1-1.3-2.6-2.5c-0.4-0.9-1-1.6-1.8-2.1c-1.8-1-2.5-3.1-4.5-3.8c-0.5-0.2-0.8-0.8-1.1-1.3
		c-1.2-1.9-3.1-3.1-4.8-4.6c-2.1-2-4.7-3.6-6.2-6.2c-1.1-1.8-3.3-2.8-4.4-4.6c-1.3-2-3.4-3.4-5-5.1c-2.5-2.7-5.5-5.1-7.5-8.4
		c-0.3-0.5-0.8-0.8-1.4-1c-1-0.2-1.6-0.9-1.8-1.8c-0.4-1.4-1.2-1-2.1-0.6c-1.1,0-1.4-1-1.9-1.7c-4.6-7.6-9.6-15-14.9-22.1
		c-0.4-0.6-1-1.1-0.5-2c0.9,0.3,1.8,0.4,2.6,0.8c1.4,0.7,2.6,1.7,3,3.4c0.3,1.2,0.8,2.2,2.3,2.2c0.4,0,0.8,0.3,1,0.6
		c1.5,2.4,4,3.9,5.5,6.3c1.2,2,3,3.7,5.3,4.6c1.4,0.6,2.4,1.3,3.2,2.8c1,1.9,2.2,3.7,4.1,5.1c1.1,0.8,1.6,2.3,2.9,3.2
		c2.2,1.5,4.3,3.4,6.5,5c1.3,1,2.1,2.5,2.7,3.8c0.6,1.5,1.7,2.4,3,3.1c1.8,1,3.6,2,4.7,3.9c0.2,0.3,0.5,0.7,0.9,0.9
		c2.5,0.8,3.6,3,5,4.9c0.9,1.2,1.2,2.9,2.7,3.8c2.7,1.7,4.4,4.4,6.8,6.4c1.2,1,1.9,2.5,2.9,3.7c1,1.2,2,2.5,3.9,2.1
		c0.4,0.4,0.4,0.9,0.4,1.4c0.2,0.3,0.1,0.8,0.4,1.1c0.1,0.1,0.1,0.3,0.1,0.4c0.2,0.3,0.2,0.8,0.4,1.1c0.1,0.1,0.1,0.3,0.1,0.4
		c0.4,0.4,0,1.1,0.5,1.6c0.1,0.1,0.1,0.2,0.1,0.3c0.1,0.4,0.1,0.8,0.4,1.2c0.1,0.1,0.1,0.2,0.1,0.4c0.4,0.5,0,1.2,0.5,1.6l0,0
		c0.4,0.4,0,1.1,0.5,1.5C728.2,217.4,728.2,217.6,728.2,217.7z"/>
	<path class="st17" d="M614,494.7c1.8,0.5,3.1,1.9,4.1,3.1c1.9,2.4,4.5,3.9,6.3,6.4c0.3,0.5,0.8,0.8,1.4,1c1.2,0.5,2,1.3,2.6,2.5
		c0.8,1.6,2.5,2.3,3.7,3.5c0.6,0.6,1.4,1.1,1.8,2c0.4,0.9,1.1,1.7,2,2.2c0.8,0.5,1.5,1.1,1.8,1.9c0.4,1,1.2,1.6,2.3,1.6
		c-4.7,4.5-9.7,8.6-14.9,12.4c-0.5,0.4-1.1,0.4-1.6,0c-3.6-2.5-6.6-5.7-9.5-8.9c-1.7-2-3.4-4-5.5-5.6c-1.5-1.1-2.4-2.8-3.5-4.4
		c0.2-1.4,1.5-1.9,2.4-2.7c1.8-1.6,3.9-2.9,5.5-4.6c2.8-2.9,3.2-5,1.5-8.7C614,495.9,613.6,495.3,614,494.7z"/>
	<path class="st29" d="M605.1,512.5c1.1,1,2.4,1.7,2.7,3.4c0,0.1,0.2,0.3,0.3,0.4c1.9,0.6,2.8,2.5,4.2,3.7c1.8,1.7,3.2,3.6,4.9,5.3
		c1.5,1.4,2.7,3.2,4.6,4.1c0.7,0.3,1.3,0.8,1.6,1.5c0.4,0.6,0.9,0.6,1.5,0.6c-5.2,4.3-10.7,8.3-16.4,11.9c-1.7-1.2-3-2.9-5-3.8
		c-1.1-0.5-2.5-1.2-2.5-2.8c0-0.4-0.3-0.6-0.5-0.8c-2.3-2-4.3-4.5-7-6.2c-1-0.6-1.5-1.5-2-2.5c-0.8-1.4-1.9-2.4-3.6-2.8
		c0-1,0.8-1.4,1.5-1.8c4.6-3,8.9-6.2,13.4-9.3C603.5,512.8,604.2,512.2,605.1,512.5z"/>
	<path class="st30" d="M419.6,35.2c-0.5,0-1-0.1-1.5,0c-2.3,0.3-4-0.5-5.2-2.5c-0.1-0.2-0.3-0.5-0.5-0.6c-2.8-0.9-3.9-3.9-6.5-5.1
		c-0.3-0.1-0.7-0.4-0.7-0.6c-0.1-3-3-3.4-4.5-5.1c-0.8-0.9-1.6-1.6-2.2-2.6c-0.4-0.5-0.8-1.1-1.3-1.5c-2.3-1.6-3.8-4-6.2-5.5
		c-1.6-1-1.7-2.8-0.4-4.4c0.1-0.1,0.2-0.1,0.4,0c0.6-0.4,1.5,0,2.1-0.4c0.3,0,0.6-0.1,0.9-0.1c0.7-0.4,1.5,0,2.1-0.4
		c2.5-0.6,4.9-1.1,7.5-1.1c1.7,2.3,4,4.1,6,6.2c2.4,2.6,5.6,4.4,7.4,7.5c0.5,0.8,1.4,1.5,2.2,2c1,0.6,1.9,1.4,2.6,2.3
		c2,2.4,4.7,4.1,6.1,7c0.2,0.5,0.7,1,1.2,1.2c1.6,0.6,2.2,1.8,2.9,3.2C427.9,36.3,423.7,36.4,419.6,35.2z"/>
	<path class="st9" d="M713.8,177.9c-0.6,0.9-1.2,0.7-1.9,0.1c-1.9-1.6-3.7-3.2-5.2-5.2c-1.3-1.8-3.3-3.2-5-4.7
		c-0.5-0.4-1.2-0.8-1.3-1.4c-0.3-1.4-1.4-2.3-2.4-3.1c-3-2.3-5.6-5-8-8c-2.1-2.6-4.5-5.1-7.2-7.1c-2.4-1.8-4-4.1-6.1-6
		c-1.7-1.7-3-3.9-5.5-4.9c-1-0.4-1.7-1.2-1.8-2.5c-0.1-0.9-0.7-1.5-1.5-1.8c-1.4-0.4-2.1-1.5-2.9-2.6c-0.5-0.7-0.9-1.4-1.8-1.5
		c-0.7-0.1-1.2-0.6-1.6-1.2c-3.3-4.7-7.9-7.9-11.9-11.9c-0.7-0.7-1.2-1.5-1.6-2.4c-0.2-0.2-0.3-0.3-0.5-0.5
		c-0.2-0.2-0.3-0.3-0.5-0.5c0-0.2,0-0.3,0-0.5c-3.3-1.7-5.6-4.5-7.9-7.2c-1.1-1.3-2.6-2.2-3.5-3.7c-0.7-0.7-2.1-1-1.6-2.5
		c0.7-0.4,1.1,0.3,1.6,0.5c0.9,0.4,1.8,0.7,2.2,1.7c0.4,1,1.3,1.4,2.2,1.7c0.2,0.2,0.3,0.3,0.5,0.5c0.2,0.2,0.3,0.3,0.5,0.5
		c0.2,0.2,0.3,0.3,0.5,0.5c0.2,0.2,0.3,0.3,0.5,0.5c0.2,0.2,0.3,0.3,0.5,0.5c0.9,1.8,2.3,3.3,4,4.5c0.2,0.2,0.3,0.3,0.5,0.5
		c0.6,1,1.5,1.8,2.5,2.5c0.2,0.2,0.3,0.3,0.5,0.5c1.1,1.5,3.4,1.9,4,4c0.6,0.4,1.1,0.9,1.5,1.5c0.2,0.4,0.6,0.8,1,1
		c0.5,0.4,1,0.6,1.5,1c0.3,0.3,0.7,0.2,1,0.5c0.7,0.3,1,0.8,1,1.5c0.3,0.3,0.2,0.7,0.5,1c0.2,0.2,0.3,0.3,0.5,0.5
		c1.5,0.9,2.3,2.8,4,3.5c0.2,0.2,0.3,0.3,0.5,0.5c0.3,0.3,0.7,0.2,1,0.5c0.7,0.3,1,0.8,1,1.5c0.2,0.2,0.3,0.3,0.5,0.5
		c0.2,0.2,0.3,0.3,0.5,0.5c0.2,0.2,0.3,0.3,0.5,0.5c0.2,0.2,0.3,0.3,0.5,0.5c0.2,0.2,0.3,0.3,0.5,0.5c0.4,0.5,0.6,1,1,1.5
		c0.5,0.9,1.4,1.6,2,2.5c0.2,0.2,0.3,0.3,0.5,0.5c0.4,0.9,1.2,1.2,2,1.5c0.3,0.3,0.7,0.2,1,0.5c0.2,0.2,0.3,0.3,0.5,0.5
		c0.2,0.2,0.3,0.3,0.5,0.5c0.2,0.2,0.3,0.3,0.5,0.5c0.2,0.2,0.3,0.3,0.5,0.5c0.2,0.2,0.3,0.3,0.5,0.5c0.2,0,0.3,0,0.5,0
		c0.1,0.2,0.3,0.3,0.5,0.5c0.3,0.3,0.2,0.7,0.5,1c0.8,0.9,1.3,2,2,3c2,1.1,3.6,2.7,5,4.5c0.9,0.4,1.6,1,2.2,1.8
		c1.1,1.4,2.3,2.6,3.5,3.9c2,2.3,4.6,3.9,6.3,6.5c0.2,0.3,0.5,0.7,0.9,0.9c3.7,2.2,5.9,6.1,9.5,8.5c0.5,0.4,1,1.1,1.6,0.1
		C712.3,174.1,713.2,175.9,713.8,177.9z"/>
	<path class="st9" d="M568.3,33.6c-0.2-0.5-0.5-0.8-1-1c-0.8-1-0.8-2,0.1-3c1.1,0.3,2.2,0.8,3.1,1.5c-1,0.7-1,1.8-0.1,2.2
		c2.3,1.3,3.4,3.7,5.4,5.3c3,2.4,5.6,5.4,8.3,8.1c0.8,0.8,1.5,1.5,2,2.5c0.7,1.5,2.2,2.1,3.4,3.1c1.3,1.1,2.7,2.1,3.4,3.8
		c0.4,1,1.6,1.4,2.4,2.1c2.1,1.6,3.9,3.5,5.6,5.6c1.4,1.7,3.2,3,5.1,4.3c1.2,0.8,2.4,1.5,2.9,2.9c0.4,0.9,1.4,1.1,1.8,2
		c-0.1,0.1-0.2,0.2-0.3,0.2c-0.6,0.2-1.2,0.1-1.6-0.3c-2.9-3.3-6.9-5.4-9.5-9.1c-1.1-1.5-2.4-2.8-3.9-3.8c-2-1.3-4-2.4-4.7-4.8
		c-0.1-0.3-0.4-0.6-0.7-0.7c-4.8-2.5-6.9-7.7-10.9-11c-0.3-0.3-0.5-0.7-0.9-0.9C574.5,40.1,571.7,36.4,568.3,33.6z"/>
	<path class="st9" d="M552.4,23.7c0,0.2,0,0.6,0.2,0.7c2.1,2,3.8,4.5,6,6.5c1.7,1.7,4.3,2.9,4.8,5.7c-1-0.7-1.9-1.6-3.1-2
		c-0.2-0.1-0.4-0.1-0.4-0.3c-1-2.5-3.9-3.4-5.1-5.9c-0.5-1.1-1.2-1.9-2.3-2.5c-1.2-0.7-1.9-1.8-1.6-3.3c0.2,0.1,0.3,0.1,0.5,0.2
		c0.3,0.3,0.7,0.2,1,0.4l0,0c0.2,0.1,0.2,0.2,0.2,0.4C552.5,23.6,552.4,23.7,552.4,23.7z"/>
	<path class="st9" d="M567.3,29.6c0,1,0,2-0.1,3c-1,0.6-1.8,0.6-2.6-0.4c-0.9-1-1.6-2.1-2.2-3.3c-0.2-0.3,0-0.6,0.3-0.8
		c0.4-0.3,0.8-0.2,1.2-0.1c0.1-0.1,0.2,0,0.3,0.1c0.3,0.3,0.7,0.2,1,0.5l0,0c0.3,0.3,0.7,0.3,1,0.5l0,0
		C566.6,29.5,567,29.4,567.3,29.6L567.3,29.6z"/>
	<path class="st11" d="M464.4,3.2c-2-0.2-4.1,0.6-6.1-0.4C460.3,2.8,462.4,2.6,464.4,3.2z"/>
	<path class="st2" d="M419.3,593.2c1.9,0.2,3.8-0.5,5.6,0.4C423,593.7,421.1,593.9,419.3,593.2z"/>
	<path class="st16" d="M736.5,258.7c-0.9-0.9-0.3-2.1-0.4-3.1C736.7,256.5,736.6,257.6,736.5,258.7z"/>
	<path class="st16" d="M736,254.7c-0.8-0.7-0.4-1.7-0.4-2.6C736.1,252.9,736.1,253.8,736,254.7z"/>
	<path class="st16" d="M735.5,251.7c-0.8-0.8-0.4-1.7-0.4-2.6C735.6,249.9,735.6,250.8,735.5,251.7z"/>
	<path class="st16" d="M490.7,6.2c-0.9-0.1-1.8,0.4-2.6-0.4C489,5.7,489.9,5.7,490.7,6.2z"/>
	<path class="st16" d="M487.3,5.7c-0.9,0-1.9,0.4-2.6-0.4C485.6,5.3,486.5,5.2,487.3,5.7z"/>
	<path class="st16" d="M483.8,5.2c-0.9,0-1.9,0.4-2.6-0.4C482.1,4.8,483,4.7,483.8,5.2z"/>
	<path class="st30" d="M406.5,4.8c-0.8,0.8-1.8,0.4-2.7,0.4C404.7,4.7,405.6,4.8,406.5,4.8z"/>
	<path class="st4" d="M151.1,245.6c0,0.7,0.3,1.5-0.4,2.1C150.6,247,150.6,246.2,151.1,245.6z"/>
	<path class="st20" d="M733,237.7c-0.7-0.6-0.4-1.3-0.5-2C733.1,236.3,733.1,237,733,237.7z"/>
	<path class="st21" d="M396,6.3c-0.6,0.7-1.4,0.4-2.1,0.4C394.6,6.2,395.3,6.3,396,6.3z"/>
	<path class="st0" d="M373.1,586.3c0.7,0.1,1.5-0.3,2,0.5C374.4,586.7,373.7,586.8,373.1,586.3z"/>
	<path class="st0" d="M377.6,587.2c0.7,0,1.5-0.3,2,0.5C378.9,587.7,378.2,587.7,377.6,587.2z"/>
	<path class="st0" d="M380,587.8c0.7,0,1.5-0.3,2.1,0.5C381.4,588.2,380.6,588.3,380,587.8z"/>
	<path class="st0" d="M382.5,588.3c0.7,0,1.5-0.3,2.1,0.4C383.8,588.7,383.1,588.8,382.5,588.3z"/>
	<path class="st0" d="M385,588.8c0.7,0,1.5-0.3,2.1,0.4C386.3,589.2,385.6,589.3,385,588.8z"/>
	<path class="st16" d="M493.7,6.7c-0.7,0-1.5,0.3-2.1-0.4C492.4,6.3,493.1,6.3,493.7,6.7z"/>
	<path class="st21" d="M393,6.8c-0.6,0.7-1.4,0.4-2.1,0.4C391.6,6.7,392.3,6.8,393,6.8z"/>
	<path class="st4" d="M493.1,589.7c0.6-0.7,1.4-0.4,2.2-0.4C494.6,589.8,493.9,589.7,493.1,589.7z"/>
	<path class="st16" d="M496.7,7.2c-0.7,0-1.5,0.3-2.1-0.4C495.4,6.8,496.1,6.7,496.7,7.2z"/>
	<path class="st4" d="M490.7,590.1c0.6-0.6,1.4-0.4,2.1-0.4C492.1,590.2,491.4,590.2,490.7,590.1z"/>
	<path class="st12" d="M726.6,212.4c-0.6-0.4-0.5-1-0.5-1.6C726.6,211.2,726.6,211.8,726.6,212.4z"/>
	<path class="st12" d="M727.6,215.8c-0.6-0.4-0.5-1-0.5-1.6C727.6,214.7,727.6,215.3,727.6,215.8z"/>
	<path class="st12" d="M728.1,217.3c-0.6-0.4-0.5-1-0.5-1.5C728.1,216.2,728.1,216.8,728.1,217.3z"/>
	<path class="st0" d="M375.5,586.8c0.6,0,1.2-0.2,1.6,0.4C376.5,587.2,376,587.2,375.5,586.8z"/>
	<path class="st28" d="M729.6,372.7c0-0.6-0.1-1.1,0.4-1.6C730.1,371.8,730,372.3,729.6,372.7z"/>
	<path class="st9" d="M557.3,25.2c-0.6,0-1.2,0.1-1.5-0.6C556.4,24.6,556.9,24.7,557.3,25.2z"/>
	<path class="st12" d="M529.5,15.2c-0.6,0-1.2,0.1-1.6-0.5C528.6,14.7,529.1,14.7,529.5,15.2z"/>
	<path class="st12" d="M528,14.7c-0.5,0-1.1,0.1-1.5-0.5C527,14.2,527.6,14.3,528,14.7z"/>
	<path class="st28" d="M371.6,11.3c-0.4,0.5-1,0.4-1.5,0.4C370.6,11.3,371.1,11.2,371.6,11.3z"/>
	<path class="st12" d="M726,210.4c-0.4-0.3-0.4-0.7-0.4-1.1C726,209.6,726.1,209.9,726,210.4z"/>
	<path class="st12" d="M727.1,213.8c-0.4-0.3-0.4-0.7-0.4-1.2C727,213,727.1,213.4,727.1,213.8z"/>
	<path class="st9" d="M586.2,39.1c-0.4,0-0.8-0.1-1-0.5C585.6,38.6,586,38.8,586.2,39.1z"/>
	<path class="st28" d="M369.6,11.8c-0.3,0.4-0.7,0.4-1.1,0.4C368.8,11.8,369.2,11.8,369.6,11.8z"/>
	<path class="st12" d="M526.1,14.2c-0.4,0-0.8,0-1.1-0.4C525.4,13.7,525.8,13.8,526.1,14.2z"/>
	<path class="st9" d="M585.2,38.6c-0.4,0-0.8-0.1-1-0.5C584.7,38.1,585,38.2,585.2,38.6z"/>
	<path class="st9" d="M584.3,38.1c-0.4,0-0.8-0.1-1-0.5C583.7,37.6,584,37.7,584.3,38.1z"/>
	<path class="st9" d="M598.2,46.1c-0.4,0-0.8-0.1-1-0.6C597.6,45.6,597.9,45.7,598.2,46.1z"/>
	<path class="st12" d="M531.1,15.7c-0.4,0-0.9,0-1.1-0.4C530.4,15.2,530.8,15.3,531.1,15.7z"/>
	<path class="st9" d="M579.7,35.6c-0.4,0-0.8-0.1-1-0.5C579.2,35.1,579.5,35.3,579.7,35.6z"/>
	<path class="st5" d="M718.6,189.5c-0.4-0.2-0.5-0.7-0.5-1.1C718.6,188.6,718.7,189,718.6,189.5z"/>
	<path class="st5" d="M719.1,190.4c-0.4-0.2-0.4-0.6-0.4-1C719,189.7,719.1,190,719.1,190.4z"/>
	<path class="st5" d="M719.6,191.9c-0.4-0.3-0.5-0.7-0.4-1.1C719.5,191.1,719.6,191.5,719.6,191.9z"/>
	<path class="st5" d="M720.6,194.4c-0.4-0.2-0.4-0.6-0.4-1C720.5,193.7,720.6,194,720.6,194.4z"/>
	<path class="st9" d="M590.7,41.6c-0.4,0-0.8-0.1-1-0.5C590.1,41.1,590.4,41.3,590.7,41.6z"/>
	<path class="st9" d="M589.7,41.1c-0.4,0-0.8-0.1-1-0.5C589.1,40.6,589.5,40.7,589.7,41.1z"/>
	<path class="st5" d="M722,198.4c-0.4-0.2-0.4-0.6-0.4-1C722,197.6,722.1,198,722,198.4z"/>
	<path class="st9" d="M587.7,40.6c0-0.2,0-0.4,0-0.6c0.4,0,0.8,0.1,1,0.5C588.4,40.6,588.1,40.6,587.7,40.6z"/>
	<path class="st5" d="M722.6,199.9c-0.4-0.3-0.4-0.6-0.4-1.1C722.5,199.1,722.6,199.5,722.6,199.9z"/>
	<path class="st5" d="M723.1,201.4c-0.4-0.3-0.4-0.7-0.4-1.1C723,200.6,723.1,201,723.1,201.4z"/>
	<path class="st5" d="M723.6,202.9c-0.4-0.3-0.5-0.7-0.4-1.1C723.5,202.1,723.6,202.5,723.6,202.9z"/>
	<path class="st5" d="M724.1,204.4c-0.4-0.3-0.5-0.7-0.4-1.1C724,203.5,724.1,203.9,724.1,204.4z"/>
	<path class="st5" d="M724.6,205.9c-0.4-0.3-0.5-0.7-0.4-1.2C724.5,205,724.6,205.4,724.6,205.9z"/>
	<path class="st12" d="M725.5,208.9c-0.4-0.3-0.4-0.7-0.4-1.1C725.5,208.1,725.6,208.4,725.5,208.9z"/>
	<path class="st9" d="M560.8,26.7c-0.4,0-0.8-0.1-1-0.5C560.3,26.2,560.6,26.3,560.8,26.7z"/>
	<path class="st18" d="M705.7,434.9c0-0.4,0.1-0.8,0.5-1C706.2,434.3,706,434.6,705.7,434.9z"/>
	<path class="st9" d="M559.5,26.1c-0.5,0-0.9,0-1.2-0.5C558.8,25.6,559.2,25.7,559.5,26.1z"/>
	<path class="st22" d="M352.7,16.8c-0.3,0.4-0.7,0.5-1.1,0.4C351.9,16.8,352.3,16.7,352.7,16.8z"/>
	<path class="st18" d="M706.2,433.9c0-0.4,0.1-0.8,0.5-1C706.7,433.3,706.6,433.7,706.2,433.9z"/>
	<path class="st9" d="M558.4,25.6c-0.4,0-0.8-0.1-1-0.5C557.8,25.2,558.1,25.3,558.4,25.6z"/>
	<path class="st22" d="M724.6,389.7c0-0.4,0-0.8,0.4-1.1C725.1,389,725,389.4,724.6,389.7z"/>
	<path class="st22" d="M724.2,391.2c0-0.4,0-0.8,0.4-1.1C724.6,390.5,724.5,390.9,724.2,391.2z"/>
	<path class="st9" d="M599.7,47.1c-0.4,0-0.8-0.1-1-0.6C599.1,46.5,599.5,46.7,599.7,47.1z"/>
	<path class="st5" d="M555.9,24.6c-0.4,0-0.8,0-1.1-0.5C555.3,24.2,555.7,24.2,555.9,24.6z"/>
	<path class="st5" d="M554.9,24.2c-0.4,0-0.8-0.1-1-0.4C554.3,23.7,554.6,23.8,554.9,24.2z"/>
	<path class="st5" d="M552.4,23.7c0-0.2,0-0.4,0-0.5c0.4,0,0.9,0.1,1.1,0.5C553.1,23.6,552.7,23.7,552.4,23.7z"/>
	<path class="st5" d="M552.4,23.2c-0.4,0-0.8,0-1-0.4C551.8,22.7,552.1,22.8,552.4,23.2z"/>
	<path class="st22" d="M351.2,17.2c-0.2,0.4-0.6,0.5-1.1,0.4C350.4,17.3,350.8,17.2,351.2,17.2z"/>
	<path class="st18" d="M706.7,432.9c0-0.4,0.1-0.8,0.5-1C707.2,432.3,707.1,432.7,706.7,432.9z"/>
	<path class="st18" d="M707.7,430.9c0-0.4,0.1-0.8,0.5-1C708.2,430.3,708.1,430.7,707.7,430.9z"/>
	<path class="st18" d="M707.2,431.9c0-0.4,0.1-0.8,0.5-1C707.7,431.3,707.6,431.7,707.2,431.9z"/>
	<path class="st9" d="M578.7,35.1c-0.4,0-0.8-0.1-1-0.5C578.2,34.6,578.5,34.8,578.7,35.1z"/>
	<path class="st9" d="M577.7,34.6c-0.4,0-0.8-0.1-1-0.5C577.2,34.1,577.5,34.3,577.7,34.6z"/>
	<path class="st9" d="M576.8,34.1c-0.4,0-0.8-0.1-1-0.5C576.2,33.6,576.5,33.8,576.8,34.1z"/>
	<path class="st9" d="M575.8,33.6c-0.4,0-0.8-0.1-1-0.5C575.2,33.1,575.5,33.3,575.8,33.6z"/>
	<path class="st9" d="M574.8,33.1c-0.4,0-0.8-0.1-1-0.5C574.2,32.6,574.5,32.8,574.8,33.1z"/>
	<path class="st9" d="M573.8,32.6c-0.4,0-0.8-0.1-1-0.5C573.2,32.1,573.5,32.3,573.8,32.6z"/>
	<path class="st12" d="M532.6,16.2c-0.5,0-0.9,0-1.2-0.4C531.9,15.7,532.3,15.8,532.6,16.2z"/>
	<path class="st22" d="M354.2,16.3c-0.3,0.4-0.7,0.4-1.1,0.4C353.4,16.3,353.8,16.2,354.2,16.3z"/>
	<path class="st9" d="M572.8,32.2c-0.4,0-0.8-0.1-1-0.5C572.2,31.7,572.5,31.8,572.8,32.2z"/>
	<path class="st9" d="M571.8,31.7c-0.4,0-0.8-0.1-1-0.5C571.2,31.2,571.5,31.3,571.8,31.7z"/>
	<path class="st9" d="M567.4,29.6c-0.4,0-0.8,0-1-0.5C566.7,29.1,567.1,29.2,567.4,29.6z"/>
	<path class="st9" d="M566.3,29.1c-0.4,0-0.8-0.1-1-0.5C565.7,28.6,566.1,28.7,566.3,29.1z"/>
	<path class="st9" d="M565.3,28.7c-0.4,0-0.8-0.1-1-0.5C564.7,28.2,565.1,28.3,565.3,28.7z"/>
	<path class="st9" d="M564,28.1c-0.4,0-0.8,0-1.2,0.1c0-0.2,0-0.4,0.1-0.6C563.3,27.6,563.7,27.7,564,28.1z"/>
	<path class="st9" d="M562.9,27.6c-0.4,0-0.8,0-1.1-0.5C562.3,27.1,562.6,27.2,562.9,27.6z"/>
	<path class="st9" d="M561.9,27.1c-0.4,0-0.8-0.1-1-0.5C561.2,26.7,561.6,26.8,561.9,27.1z"/>
	<path class="st8" d="M701.3,153.1c-0.4-0.2-0.5-0.6-0.5-1C701.1,152.3,701.2,152.7,701.3,153.1z"/>
	<path class="st8" d="M700.7,152.1c-0.4-0.2-0.5-0.5-0.5-0.9C700.5,151.4,700.7,151.7,700.7,152.1z"/>
	<path class="st9" d="M594.7,44.1c-0.5,0-0.9-0.1-1-0.6C594.1,43.5,594.5,43.7,594.7,44.1z"/>
	<path class="st8" d="M699.8,150.6c-0.5-0.2-0.6-0.6-0.6-1C699.6,149.8,699.8,150.2,699.8,150.6z"/>
	<path class="st8" d="M699.3,149.6c-0.4-0.2-0.5-0.6-0.5-1C699.1,148.9,699.2,149.2,699.3,149.6z"/>
	<path class="st8" d="M698.3,148.1c-0.5-0.2-0.6-0.6-0.6-1C698.2,147.3,698.3,147.7,698.3,148.1z"/>
	<path class="st8" d="M697.8,147.1c-0.4-0.2-0.5-0.6-0.6-1C697.6,146.4,697.8,146.7,697.8,147.1z"/>
	<path class="st26" d="M292.5,44c-0.2,0.5-0.6,0.6-1,0.6C291.7,44.2,292,44,292.5,44z"/>
	<path class="st8" d="M696.3,144.6c-0.4-0.2-0.5-0.5-0.6-0.9C696.1,143.9,696.3,144.2,696.3,144.6z"/>
	<path class="st26" d="M291.5,44.5c-0.2,0.4-0.6,0.5-1,0.6C290.7,44.7,291.1,44.6,291.5,44.5z"/>
	<path class="st9" d="M595.7,44.6c-0.4,0-0.8-0.1-1-0.6C595.1,44.1,595.4,44.2,595.7,44.6z"/>
	<path class="st7" d="M562.3,568.9c0.2-0.5,0.6-0.5,1.1-0.5C563.2,568.7,562.8,568.8,562.3,568.9z"/>
	<path class="st7" d="M564.8,567.8c0.2-0.4,0.6-0.4,1-0.5C565.5,567.6,565.2,567.8,564.8,567.8z"/>
	<path class="st5" d="M718.1,188c-0.4-0.2-0.4-0.6-0.4-1C718,187.2,718.1,187.5,718.1,188z"/>
	<path class="st5" d="M717.6,187c-0.4-0.2-0.5-0.6-0.5-1C717.6,186.2,717.6,186.6,717.6,187z"/>
	<path class="st5" d="M717.2,186c-0.5-0.3-0.5-0.7-0.5-1.2C717.1,185.1,717.2,185.5,717.2,186z"/>
	<path class="st5" d="M716.6,184.5c-0.4-0.2-0.5-0.6-0.5-1C716.5,183.7,716.6,184.1,716.6,184.5z"/>
	<path class="st5" d="M716.2,183.5c-0.5-0.2-0.5-0.7-0.5-1.1C716.1,182.6,716.2,183,716.2,183.5z"/>
	<path class="st5" d="M715.6,182c-0.4-0.2-0.4-0.6-0.4-1C715.5,181.3,715.6,181.6,715.6,182z"/>
	<path class="st5" d="M715.1,181c-0.4-0.2-0.5-0.6-0.5-1C715,180.2,715.1,180.6,715.1,181z"/>
	<path class="st5" d="M714.7,180c-0.5-0.2-0.5-0.7-0.5-1.1C714.6,179.2,714.7,179.6,714.7,180z"/>
	<path class="st9" d="M592.2,42.6c-0.4,0-0.8-0.1-1-0.6C591.6,42,592,42.2,592.2,42.6z"/>
	<path class="st9" d="M593.2,43.1c-0.4,0-0.8-0.1-1-0.6C592.6,42.6,593,42.7,593.2,43.1z"/>
	<path class="st8" d="M701.8,154.1c-0.5-0.2-0.6-0.6-0.5-1C701.6,153.3,701.8,153.7,701.8,154.1z"/>
	<path class="st26" d="M294,43.1c-0.2,0.4-0.6,0.5-1,0.5C293.2,43.3,293.6,43.1,294,43.1z"/>
	<path class="st7" d="M560.9,569.5c0.1-0.1,0.3-0.2,0.4-0.2C561.2,569.5,561.1,569.6,560.9,569.5z"/>
	<path class="st7" d="M559.4,570.2c0.2-0.1,0.4-0.2,0.6-0.3C559.8,570.1,559.6,570.2,559.4,570.2z"/>
	<path class="st7" d="M557.4,571c0.1-0.1,0.3-0.2,0.4-0.2C557.7,571,557.6,571.1,557.4,571z"/>
	<path class="st23" d="M275.1,55.1c-0.2,0.1-0.4,0.3-0.6,0.4C274.6,55.3,274.8,55.1,275.1,55.1z"/>
	<path class="st23" d="M276.6,54.1c-0.2,0.2-0.4,0.3-0.6,0.5C276.1,54.3,276.3,54.1,276.6,54.1z"/>
	<path class="st25" d="M590.2,554.8c0.2-0.1,0.4-0.3,0.5-0.4C590.7,554.7,590.5,554.8,590.2,554.8z"/>
	<path class="st23" d="M277,53.7c-0.2,0.1-0.3,0.2-0.5,0.4C276.6,53.8,276.8,53.7,277,53.7z"/>
	<path class="st25" d="M588.7,555.7c0.1-0.1,0.3-0.2,0.4-0.3C589.1,555.6,589,555.7,588.7,555.7z"/>
	<path class="st25" d="M586.7,556.8c0.2-0.1,0.4-0.3,0.6-0.4C587.2,556.6,587,556.8,586.7,556.8z"/>
	<path class="st25" d="M584.3,558.1c0.1-0.1,0.3-0.2,0.4-0.3C584.6,558,584.5,558.2,584.3,558.1z"/>
	<path class="st23" d="M275.5,54.7c-0.1,0.1-0.3,0.2-0.4,0.3C275.2,54.9,275.3,54.7,275.5,54.7z"/>
	<path class="st7" d="M563.8,568.2c0.2-0.1,0.4-0.2,0.7-0.4C564.3,568.1,564.1,568.2,563.8,568.2z"/>
	<path class="st8" d="M696.7,145.1c-0.1-0.2-0.3-0.4-0.4-0.5C696.5,144.7,696.7,144.9,696.7,145.1z"/>
	<path class="st8" d="M697.2,146.2c-0.3-0.2-0.4-0.4-0.4-0.7C697.1,145.6,697.2,145.8,697.2,146.2z"/>
	<path class="st8" d="M698.7,148.6c-0.1-0.2-0.3-0.4-0.4-0.6C698.6,148.1,698.7,148.4,698.7,148.6z"/>
	<path class="st8" d="M700.2,151.1c-0.1-0.2-0.3-0.4-0.4-0.6C700,150.7,700.2,150.9,700.2,151.1z"/>
	<path class="st26" d="M293,43.6c-0.2,0.1-0.4,0.3-0.6,0.4C292.5,43.8,292.7,43.6,293,43.6z"/>
	<path class="st25" d="M185.9,151.6c-0.1,0.2-0.2,0.3-0.4,0.5C185.6,151.8,185.7,151.7,185.9,151.6z"/>
	<path class="st25" d="M185.4,152.5c-0.1,0.2-0.3,0.4-0.4,0.6C185,152.8,185.2,152.6,185.4,152.5z"/>
	<path class="st25" d="M184.9,153.4c0,0.3-0.2,0.5-0.4,0.7C184.5,153.8,184.6,153.6,184.9,153.4z"/>
	<path class="st25" d="M184.5,154.1c-0.1,0.1-0.2,0.3-0.3,0.4C184.1,154.3,184.3,154.2,184.5,154.1z"/>
	<path class="st9" d="M593.8,43.5c-0.2-0.1-0.4-0.3-0.6-0.4C593.5,43.1,593.7,43.3,593.8,43.5z"/>
	<path class="st25" d="M184,155.1c-0.1,0.2-0.2,0.3-0.4,0.5C183.6,155.3,183.7,155.2,184,155.1z"/>
	<path class="st25" d="M183.4,156c-0.1,0.2-0.3,0.4-0.4,0.6C183.1,156.3,183.2,156.1,183.4,156z"/>
	<path class="st26" d="M290.5,45.1c-0.2,0.1-0.4,0.3-0.6,0.4C290,45.3,290.2,45.1,290.5,45.1z"/>
	<path class="st9" d="M596.4,45c-0.3,0-0.5-0.2-0.7-0.4C596,44.6,596.2,44.8,596.4,45z"/>
	<path class="st9" d="M582.4,37.1c-0.2-0.1-0.4-0.3-0.6-0.4C582,36.7,582.2,36.8,582.4,37.1z"/>
	<path class="st9" d="M581.4,36.6c-0.3,0-0.5-0.1-0.7-0.4C581,36.2,581.3,36.3,581.4,36.6z"/>
	<path class="st9" d="M580.5,36.1c-0.3,0-0.6-0.2-0.7-0.4C580.1,35.7,580.3,35.8,580.5,36.1z"/>
	<path class="st9" d="M598.7,46.5c-0.2-0.1-0.4-0.3-0.6-0.4C598.4,46.1,598.7,46.3,598.7,46.5z"/>
	<path class="st26" d="M294.5,42.7c-0.2,0.1-0.3,0.2-0.5,0.4C294,42.9,294.2,42.7,294.5,42.7z"/>
	<path class="st9" d="M591.3,42.1c-0.2-0.1-0.4-0.3-0.6-0.4C591,41.7,591.2,41.8,591.3,42.1z"/>
	<path class="st5" d="M719.6,192.9c0-0.2,0-0.5,0.1-0.7c0.2,0.2,0.4,0.4,0.3,0.7C719.9,192.9,719.8,192.9,719.6,192.9z"/>
	<path class="st5" d="M721,195.4c-0.1-0.2-0.2-0.4-0.3-0.6C720.9,194.9,721,195.1,721,195.4z"/>
	<path class="st5" d="M721.5,196.9c-0.1-0.2-0.2-0.5-0.3-0.7C721.4,196.4,721.5,196.6,721.5,196.9z"/>
	<path class="st9" d="M587.8,40.1c-0.2-0.1-0.4-0.3-0.6-0.4C587.5,39.7,587.7,39.8,587.8,40.1z"/>
	<path class="st9" d="M597.2,45.6c-0.2-0.1-0.4-0.3-0.5-0.4C597,45.2,597.1,45.3,597.2,45.6z"/>
	<path class="st9" d="M586.9,39.6c-0.3,0-0.6-0.2-0.7-0.4C586.5,39.2,586.8,39.3,586.9,39.6z"/>
	<path class="st9" d="M583.3,37.6c-0.2-0.1-0.4-0.2-0.5-0.4C583,37.2,583.2,37.3,583.3,37.6z"/>
	<path class="st0" d="M184.9,366.2c0,0.2,0.1,0.3,0.1,0.5c-0.1-0.1-0.2-0.2-0.2-0.3C184.7,366.3,184.8,366.3,184.9,366.2z"/>
	<path class="st0" d="M342.6,552.6c-0.2,0.7-0.6,1.3-1.5,1.2c-0.5-0.1-1.1-0.2-0.9-0.8c0.2-0.8,0.9-1.1,1.7-1.1
		C342.3,551.9,342.6,552.1,342.6,552.6z"/>
	<path class="st0" d="M371.4,583.1c-0.3,0-0.5-0.1-0.5-0.4c0-0.3,0.3-0.4,0.5-0.4c0.1,0,0.4,0.1,0.4,0.2
		C371.8,582.8,371.6,583,371.4,583.1z"/>
	<path class="st0" d="M382.1,558.9c0.6-0.1,1.2,0,1.6,0.4C383.2,559.3,382.5,559.5,382.1,558.9z"/>
	<path class="st0" d="M380.1,558.4c0.6-0.1,1.1,0,1.6,0.4C381.1,558.8,380.5,559,380.1,558.4z"/>
	<path class="st0" d="M378.1,557.9c0.6-0.1,1.1,0,1.5,0.4C379.1,558.3,378.5,558.5,378.1,557.9z"/>
	<path class="st0" d="M376.1,557.4c0.6-0.1,1.1,0,1.5,0.4C377.1,557.8,376.5,558,376.1,557.4z"/>
	<path class="st0" d="M374.1,556.9c0.6,0,1.1,0,1.6,0.4C375.2,557.3,374.6,557.5,374.1,556.9z"/>
	<path class="st0" d="M368.7,555.4c0.6,0,1.1,0,1.6,0.5C369.7,555.8,369.1,556,368.7,555.4z"/>
	<path class="st0" d="M362.2,553.4c0.6,0,1.1,0,1.5,0.5C363.2,553.9,362.6,554,362.2,553.4z"/>
	<path class="st0" d="M336.8,543.9c0.4,0,0.8,0.1,1,0.5C337.4,544.4,337,544.3,336.8,543.9z"/>
	<path class="st0" d="M335.8,543.5c0.4,0,0.8,0.1,1,0.4C336.4,543.9,336,543.8,335.8,543.5z"/>
	<path class="st0" d="M334.3,542.9c0.5,0,0.9,0.1,1.2,0.5C335,543.4,334.6,543.4,334.3,542.9z"/>
	<path class="st0" d="M333.3,542.4c0.4,0,0.8,0.1,1,0.5C333.9,542.9,333.5,542.8,333.3,542.4z"/>
	<path class="st0" d="M345.3,547.4c0.4,0,0.8,0.1,1.1,0.5C345.9,547.9,345.5,547.9,345.3,547.4z"/>
	<path class="st0" d="M344.3,547c0.4,0,0.7,0.1,1,0.4C344.9,547.4,344.5,547.3,344.3,547z"/>
	<path class="st0" d="M342.8,546.4c0.4,0,0.8,0.1,1.1,0.5C343.4,546.9,343,546.9,342.8,546.4z"/>
	<path class="st0" d="M341.8,546c0.4,0,0.7,0.1,1,0.4C342.4,546.4,342,546.3,341.8,546z"/>
	<path class="st0" d="M340.3,545.4c0.4,0,0.8,0.1,1.1,0.5C341,545.9,340.5,545.9,340.3,545.4z"/>
	<path class="st0" d="M339.3,544.9c0.4,0,0.8,0.1,1,0.5C339.9,545.4,339.5,545.3,339.3,544.9z"/>
	<path class="st0" d="M337.8,544.4c0.5,0,0.9,0.1,1.2,0.5C338.5,544.9,338.1,544.9,337.8,544.4z"/>
	<path class="st0" d="M365.7,554.5c0.4-0.1,0.8,0.1,1.1,0.4C366.4,554.9,366,554.8,365.7,554.5z"/>
	<path class="st0" d="M367.2,554.9c0.4,0,0.9,0,1.2,0.4C367.9,555.4,367.5,555.4,367.2,554.9z"/>
	<path class="st0" d="M370.7,555.9c0.4,0,0.9,0,1.2,0.4C371.4,556.4,371,556.3,370.7,555.9z"/>
	<path class="st0" d="M372.7,556.5c0.4-0.1,0.8,0,1.1,0.4C373.3,556.9,372.9,556.8,372.7,556.5z"/>
	<path class="st0" d="M384.6,559.4c0.4-0.1,0.8,0,1.2,0.3C385.3,559.8,384.9,559.8,384.6,559.4z"/>
	<path class="st0" d="M387.1,560c0.4-0.1,0.8,0,1.1,0.3C387.8,560.3,387.4,560.3,387.1,560z"/>
	<path class="st0" d="M346.8,548c0.4,0,0.8,0.1,1,0.4C347.4,548.4,347,548.3,346.8,548z"/>
	<path class="st0" d="M347.8,548.4c0.5,0,0.9,0.1,1.2,0.5C348.5,548.9,348,548.9,347.8,548.4z"/>
	<path class="st0" d="M349.3,548.9c0.4,0,0.8,0.1,1.1,0.4C349.9,549.4,349.5,549.4,349.3,548.9z"/>
	<path class="st0" d="M350.8,549.4c0.4,0,0.8,0.1,1,0.4C351.4,549.9,351,549.8,350.8,549.4z"/>
	<path class="st0" d="M352.3,550c0.4,0,0.7,0.1,1,0.4C352.9,550.4,352.5,550.3,352.3,550z"/>
	<path class="st0" d="M353.2,550.4c0.5,0,0.9,0.1,1.2,0.4C353.9,550.9,353.5,550.9,353.2,550.4z"/>
	<path class="st0" d="M354.7,550.9c0.4,0,0.8,0.1,1.1,0.4C355.4,551.4,355,551.4,354.7,550.9z"/>
	<path class="st0" d="M364.2,554c0.4-0.1,0.8,0.1,1,0.4C364.8,554.4,364.5,554.3,364.2,554z"/>
	<path class="st0" d="M356.2,551.4c0.4,0,0.8,0.1,1.1,0.4C356.9,551.9,356.5,551.9,356.2,551.4z"/>
	<path class="st0" d="M357.7,551.9c0.4,0,0.8,0.1,1.1,0.4C358.4,552.4,358,552.3,357.7,551.9z"/>
	<path class="st0" d="M359.2,552.4c0.4,0,0.8,0.1,1.1,0.4C359.9,552.9,359.5,552.8,359.2,552.4z"/>
	<path class="st0" d="M360.7,552.9c0.4,0,0.8,0,1.1,0.4C361.4,553.4,361,553.4,360.7,552.9z"/>
	<path class="st9" d="M563.3,36.6c2.2,1.6,4.4,3.2,5.9,5.6c0.1,0.2,0.3,0.4,0.5,0.5c3.1,1.7,5,4.7,7.5,7c0.4,0.4,0.9,0.7,1.4,1
		c1.4,0.9,2.5,2,3.3,3.5c1,1.9,3.1,2.9,4.4,4.6c1.7,2.2,4.6,3,5.8,5.7c0.4,1,1.5,1.7,2.4,2.5c2.4,2.3,5.1,4.4,7.3,6.9
		c2.1,2.3,4.4,4.5,6.3,6.9c-2.7-1.5-5-3.4-6.9-5.8c-0.5-0.7-1-1.3-1.7-1.7c-0.4-0.2-0.7-0.5-0.9-0.8c-2.2-3.7-6-5.8-8.8-8.9
		c-2.4-2.6-4.8-5.4-7.6-7.7c-0.5-0.4-0.6-1-1-1.4c-0.3-0.4-0.5-0.9-1-1.1c-3.4-1.3-5.2-4.2-7.2-7c-0.7-1-1.8-1.6-2.8-2.3
		c-0.8-0.6-1.6-1.2-2.2-2c-1-1.5-2.1-2.7-3.6-3.7C563.8,38,563.3,37.5,563.3,36.6z"/>
	<path class="st9" d="M608.1,80.9c2.5,2,4.9,4.1,7.1,6.4c1.9,1.9,3.5,4,5.6,5.7c0.5,0.4,0.7,1.1,0.7,1.8c-2.6-1.8-4.8-3.9-6.8-6.4
		c-1.3-1.6-2.8-3.2-4.7-4.4C609.1,83.4,607.9,82.5,608.1,80.9z"/>
	<path class="st5" d="M609.1,92c-1.5-0.8-2.8-1.8-4-3c2.2-0.8,2.7-0.6,3.5,1.4C608.7,90.9,608.9,91.4,609.1,92z"/>
	<path class="st5" d="M644,125.2c-0.7-0.5-1.3-1.1-1.6-1.9C643.3,123.6,643.9,124.2,644,125.2z"/>
	<path class="st5" d="M655.4,139.2c-0.6-0.3-0.9-0.8-1.1-1.5C655.1,137.9,655.4,138.4,655.4,139.2z"/>
	<path class="st5" d="M649.5,131.7c-0.6-0.3-0.9-0.8-1.1-1.4C649.1,130.4,649.4,131,649.5,131.7z"/>
	<path class="st5" d="M617,98.5c-0.6-0.2-1.1-0.5-1.4-1.1C616.3,97.4,616.9,97.7,617,98.5z"/>
	<path class="st5" d="M614,96c-0.6-0.2-1.1-0.5-1.4-1.1C613.3,94.9,613.9,95.2,614,96z"/>
	<path class="st5" d="M611.6,94c-0.6-0.2-1.1-0.5-1.4-1.1C610.9,92.9,611.4,93.2,611.6,94z"/>
	<path class="st5" d="M651.5,134.1c-0.4-0.2-0.6-0.5-0.6-0.9C651.3,133.4,651.4,133.7,651.5,134.1z"/>
	<path class="st5" d="M647,128.7c-0.4-0.2-0.6-0.5-0.6-0.9C646.8,127.9,646.9,128.3,647,128.7z"/>
	<path class="st5" d="M653.5,136.6c-0.4-0.2-0.6-0.5-0.6-0.9C653.3,135.9,653.4,136.2,653.5,136.6z"/>
	<path class="st5" d="M619.1,100.3c-0.3,0-0.4-0.2-0.5-0.5C618.7,100,618.9,100.2,619.1,100.3z"/>
	<path class="st5" d="M610.1,92.9c-0.3,0-0.5-0.2-0.5-0.5C609.8,92.6,609.9,92.7,610.1,92.9z"/>
	<path class="st5" d="M609.6,92.4c-0.3-0.1-0.5-0.2-0.6-0.5C609.3,92,609.5,92.2,609.6,92.4z"/>
	<path class="st5" d="M612.1,94.4c-0.3-0.1-0.5-0.2-0.6-0.5C611.8,94,612,94.2,612.1,94.4z"/>
	<path class="st5" d="M605.1,89c-0.3-0.1-0.5-0.2-0.6-0.5C604.8,88.5,605,88.7,605.1,89z"/>
	<path class="st5" d="M612.6,94.9c-0.3,0-0.5-0.2-0.5-0.5C612.2,94.6,612.4,94.7,612.6,94.9z"/>
	<path class="st5" d="M614.6,96.4c-0.3-0.1-0.5-0.2-0.6-0.5C614.3,96,614.5,96.2,614.6,96.4z"/>
	<path class="st5" d="M618.6,99.9c-0.3-0.1-0.5-0.2-0.5-0.5C618.2,99.5,618.4,99.7,618.6,99.9z"/>
	<path class="st5" d="M618.1,99.4c-0.3-0.1-0.5-0.2-0.6-0.5C617.8,99,618,99.1,618.1,99.4z"/>
	<path class="st5" d="M617.5,98.9c-0.3-0.1-0.5-0.2-0.6-0.5C617.3,98.5,617.5,98.6,617.5,98.9z"/>
	<path class="st5" d="M615.6,97.4c-0.3,0-0.5-0.2-0.5-0.5C615.2,97,615.4,97.2,615.6,97.4z"/>
	<path class="st5" d="M615.1,96.9c-0.3-0.1-0.5-0.2-0.6-0.5C614.7,96.6,614.9,96.7,615.1,96.9z"/>
	<path class="st5" d="M655.9,139.8c-0.3-0.1-0.4-0.3-0.5-0.6C655.6,139.4,655.7,139.6,655.9,139.8z"/>
	<path class="st5" d="M647.4,129.2c-0.3-0.1-0.4-0.2-0.4-0.5C647.1,128.9,647.3,129.1,647.4,129.2z"/>
	<path class="st5" d="M647.9,129.8c-0.3-0.1-0.4-0.3-0.5-0.5C647.6,129.4,647.8,129.6,647.9,129.8z"/>
	<path class="st5" d="M648.4,130.3c-0.3-0.1-0.5-0.3-0.5-0.6C648.2,129.8,648.3,130,648.4,130.3z"/>
	<path class="st5" d="M649.9,132.2c-0.3-0.1-0.4-0.3-0.5-0.5C649.6,131.9,649.8,132.1,649.9,132.2z"/>
	<path class="st5" d="M650.4,132.8c-0.3-0.1-0.4-0.3-0.5-0.6C650.1,132.4,650.2,132.6,650.4,132.8z"/>
	<path class="st5" d="M650.9,133.3c-0.3-0.1-0.5-0.3-0.5-0.6C650.7,132.8,650.8,133,650.9,133.3z"/>
	<path class="st5" d="M651.9,134.7c-0.3-0.1-0.4-0.2-0.4-0.5C651.6,134.4,651.8,134.5,651.9,134.7z"/>
	<path class="st5" d="M652.4,135.2c-0.3-0.1-0.4-0.3-0.5-0.5C652.1,134.9,652.3,135.1,652.4,135.2z"/>
	<path class="st5" d="M652.9,135.8c-0.3-0.1-0.4-0.3-0.5-0.6C652.7,135.3,652.8,135.5,652.9,135.8z"/>
	<path class="st5" d="M653.9,137.2c-0.3-0.1-0.4-0.3-0.4-0.5C653.6,136.9,653.8,137,653.9,137.2z"/>
	<path class="st5" d="M654.4,137.8c-0.3-0.1-0.4-0.3-0.5-0.6C654.1,137.4,654.2,137.6,654.4,137.8z"/>
	<path class="st5" d="M646.4,127.8c-0.3-0.1-0.5-0.3-0.5-0.6C646.2,127.4,646.3,127.5,646.4,127.8z"/>
	<path class="st5" d="M645.9,127.3c-0.3-0.1-0.5-0.3-0.5-0.6C645.7,126.8,645.9,127,645.9,127.3z"/>
	<path class="st5" d="M642.4,123.4c-0.3-0.1-0.5-0.3-0.5-0.6C642.2,122.9,642.4,123.1,642.4,123.4z"/>
	<path class="st5" d="M641.9,122.8c-0.3-0.1-0.5-0.3-0.5-0.6C641.7,122.4,641.9,122.6,641.9,122.8z"/>
	<path class="st5" d="M641.4,122.3c-0.3-0.1-0.5-0.3-0.5-0.5C641.2,121.9,641.4,122,641.4,122.3z"/>
	<path class="st5" d="M641,121.8c-0.3-0.1-0.4-0.3-0.5-0.5C640.6,121.5,640.8,121.6,641,121.8z"/>
	<path class="st5" d="M640.5,121.3c-0.3-0.1-0.4-0.3-0.5-0.5C640.1,120.9,640.3,121.1,640.5,121.3z"/>
	<path class="st5" d="M645.4,126.8c-0.3-0.1-0.4-0.3-0.5-0.5C645.1,126.4,645.3,126.6,645.4,126.8z"/>
	<path class="st5" d="M644.9,126.3c-0.3-0.1-0.4-0.3-0.5-0.5C644.6,125.9,644.8,126.1,644.9,126.3z"/>
	<path class="st5" d="M644.5,125.7c-0.3-0.1-0.4-0.2-0.5-0.5C644.2,125.4,644.3,125.6,644.5,125.7z"/>
	<path class="st9" d="M635.5,99.4c-0.6,0-1-0.3-1.5-0.5c-1.5-1.8-3.6-3-4.6-5.3c-0.6-1.3-2-1.7-3.1-2.4c-3.2-2.3-5.2-5.7-8.2-8.2
		c-2.2-1.8-4-4.1-6.3-5.9c-1.3-1-2.4-2.2-1.2-4c1.2,1.2,1.8,2.8,3.3,3.8c2.3,1.4,3.8,3.5,5.4,5.6c0.9,1.2,2.5,1.8,3.5,3.1
		c0.4,0.5,1,0.9,1.2,1.6c0.2,1,0.7,1.4,1.7,1.5c0.5,0,1,0.3,1.2,0.8c0.5,1,1.3,1.7,2.4,1.9c0.3,0.1,0.7,0.2,0.8,0.5
		c0.7,1.8,2,3.1,3.2,4.5C634.1,97,634.8,98.3,635.5,99.4z"/>
	<path class="st9" d="M687.3,150.6c-1.7-1.5-3.3-3-5-4.5C684.7,146.8,686.3,148.4,687.3,150.6z"/>
	<path class="st9" d="M664.9,127.7c-2.3,0-2.8-2.2-4-3.5C662.8,124.8,663.7,126.4,664.9,127.7z"/>
	<path class="st9" d="M646.5,109.8c-2.1-0.8-3.4-2.3-4-4.5C643.8,106.8,645.1,108.3,646.5,109.8z"/>
	<path class="st9" d="M640,102.8c-1,0.1-1.8-0.2-2.2-1.1c-0.5-1.1-1.5-1.6-2.3-2.4c1-0.1,2,0,2.4,1.2
		C638.2,101.7,639.2,102.1,640,102.8z"/>
	<path class="st9" d="M653.9,117.3c-1.2-0.9-1.8-2.5-3.5-2.9c-0.4-0.1-0.4-0.7-0.5-1.1c0.5,0.3,0.9,0.8,1.4,0.9
		C653,114.6,653.6,115.8,653.9,117.3z"/>
	<path class="st9" d="M649.4,112.8c-1.4-0.3-2.2-1.1-2.5-2.5C648,111,648.8,111.8,649.4,112.8z"/>
	<path class="st9" d="M682.3,146.2c-1.1-0.7-1.7-1.8-2-3C681.5,143.8,682.1,144.9,682.3,146.2z"/>
	<path class="st9" d="M672.8,136.7c-0.9-0.6-1.9-1.2-2-2.5C671.8,134.8,672.7,135.4,672.8,136.7z"/>
	<path class="st9" d="M675.3,138.7c-1.1,0-1.9-0.2-2-1.5C674,137.7,674.7,138.2,675.3,138.7z"/>
	<path class="st9" d="M655.4,118.8c-0.7-0.3-1.2-0.8-1.5-1.5C654.9,117.3,655.4,117.8,655.4,118.8z"/>
	<path class="st9" d="M657.9,120.8c-0.7,0-1.2-0.3-1.5-1C657.1,119.8,657.6,120.1,657.9,120.8z"/>
	<path class="st9" d="M670.8,134.2c-0.7-0.3-1-0.8-1-1.5C670.5,133,670.8,133.5,670.8,134.2z"/>
	<path class="st9" d="M656.4,119.8c-0.6,0-1-0.3-1-1C655.9,119,656.2,119.3,656.4,119.8z"/>
	<path class="st9" d="M660.4,123.8c-0.4-0.2-0.5-0.6-0.5-1C660.3,123,660.4,123.3,660.4,123.8z"/>
	<path class="st9" d="M658.9,121.3c-0.4,0-0.8-0.1-1-0.5C658.3,120.8,658.7,120.9,658.9,121.3z"/>
	<path class="st9" d="M666.4,128.7c-0.4,0-0.8-0.1-1-0.5C665.8,128.2,666.2,128.3,666.4,128.7z"/>
	<path class="st9" d="M680.3,143.2c-0.4-0.2-0.5-0.6-0.5-1C680.2,142.4,680.3,142.8,680.3,143.2z"/>
	<path class="st9" d="M676.3,139.2c-0.4,0-0.8-0.1-1-0.5C675.7,138.7,676.1,138.8,676.3,139.2z"/>
	<path class="st9" d="M642.5,105.3c-0.2-0.2-0.3-0.3-0.5-0.5C642.1,105,642.3,105.2,642.5,105.3z"/>
	<path class="st9" d="M646.9,110.3c-0.2-0.2-0.3-0.3-0.5-0.5C646.6,110,646.8,110.1,646.9,110.3z"/>
	<path class="st9" d="M649.9,113.3c-0.2-0.2-0.3-0.3-0.5-0.5C649.6,113,649.8,113.1,649.9,113.3z"/>
	<path class="st9" d="M642,104.8c-0.2-0.2-0.3-0.3-0.5-0.5C641.6,104.5,641.8,104.7,642,104.8z"/>
	<path class="st9" d="M641.5,104.3c-0.2-0.2-0.3-0.3-0.5-0.5C641.1,104,641.3,104.2,641.5,104.3z"/>
	<path class="st9" d="M641,103.8c-0.2-0.2-0.3-0.3-0.5-0.5C640.6,103.5,640.8,103.7,641,103.8z"/>
	<path class="st9" d="M640.5,103.3c-0.2-0.2-0.3-0.3-0.5-0.5C640.1,103,640.3,103.2,640.5,103.3z"/>
	<path class="st9" d="M676.8,139.7c-0.2-0.2-0.3-0.3-0.5-0.5C676.5,139.3,676.7,139.5,676.8,139.7z"/>
	<path class="st9" d="M677.3,140.2c-0.2-0.2-0.3-0.3-0.5-0.5C677,139.8,677.2,140,677.3,140.2z"/>
	<path class="st9" d="M677.8,140.7c-0.2-0.2-0.3-0.3-0.5-0.5C677.5,140.3,677.6,140.5,677.8,140.7z"/>
	<path class="st9" d="M678.3,141.2c-0.2-0.2-0.3-0.3-0.5-0.5C678,140.8,678.1,141,678.3,141.2z"/>
	<path class="st9" d="M678.8,141.7c-0.2-0.2-0.3-0.3-0.5-0.5C678.5,141.3,678.6,141.5,678.8,141.7z"/>
	<path class="st9" d="M679.8,142.2c-0.2-0.2-0.3-0.3-0.5-0.5C679.5,141.8,679.6,142,679.8,142.2z"/>
	<path class="st9" d="M667.9,130.7c-0.2-0.2-0.3-0.3-0.5-0.5C667.5,130.4,667.7,130.6,667.9,130.7z"/>
	<path class="st9" d="M668.4,131.2c-0.2-0.2-0.3-0.3-0.5-0.5C668,130.9,668.2,131.1,668.4,131.2z"/>
	<path class="st9" d="M668.9,131.7c-0.2-0.2-0.3-0.3-0.5-0.5C668.5,131.4,668.7,131.6,668.9,131.7z"/>
	<path class="st9" d="M669.4,132.2c-0.2-0.2-0.3-0.3-0.5-0.5C669,131.9,669.2,132,669.4,132.2z"/>
	<path class="st9" d="M669.8,132.7c-0.2-0.2-0.3-0.3-0.5-0.5C669.5,132.4,669.7,132.5,669.8,132.7z"/>
	<path class="st9" d="M665.4,128.2c-0.2-0.2-0.3-0.3-0.5-0.5C665,127.9,665.2,128.1,665.4,128.2z"/>
	<path class="st9" d="M673.3,137.2c-0.2-0.2-0.3-0.3-0.5-0.5C673,136.9,673.2,137,673.3,137.2z"/>
	<path class="st9" d="M660.9,124.2c-0.2-0.2-0.3-0.3-0.5-0.5C660.6,123.9,660.7,124.1,660.9,124.2z"/>
	<path class="st9" d="M610.6,73c-0.4,2.3,1.2,3.5,2.8,4.5c1.9,1.2,3.2,3,4.7,4.6c0.7,0.7,1.3,1.4,2.2,2c1.2,0.9,2.3,1.9,3,3.3
		c0.5,1.1,1.1,2.1,2.5,2.1c0.5,0,0.7,0.4,0.8,0.8c0.2,0.8,0.9,1.3,1.6,1.4c1.4,0.3,1.9,1.2,2.2,2.4c0.1,0.5,0.1,1.1,0.7,1.3
		c1.9,0.5,2.3,2.2,3,3.6c-0.1,1.2,1.1,1.6,1.5,2.5c-1-0.3-2.2-0.3-2.3-1.8c0-0.3-0.4-0.6-0.7-0.6c-1.2-0.2-1.8-1-2.1-2.2
		c-0.3-1.2-1.1-1.8-2.4-1.9c-0.9-0.1-1.9,0-1.7-1.4c-2.1-0.4-1.3-3.5-3.6-3.8c-0.5-0.1-0.6-0.7-0.9-1.1c-0.9-1.1-1.8-2.2-3.3-2.5
		c-0.9-0.2-1.5-0.7-1.5-1.7c0.1-1.2-0.7-1.7-1.7-2.2c-1.3-0.6-2.4-1.5-3.5-2.5c-1.1-1-1.7-1.8-2.2-3.1c-0.3-0.9-1-1.8-2.2-2.1
		c-1.4-0.4-2.1-2.1-3.7-2.3c-0.2,0-0.3-0.4-0.2-0.6c0.3-0.5,0.8-1,0-1.4c-1.1-0.5-1.5-2.2-3-1.8c-0.9,0.2-1.2-0.3-1.3-1
		c-0.5-2.2-1.9-3.6-3.7-4.7c-1.1-0.7-1.5-1.9-2.4-2.8c-1.6-1.5-3-3.2-4.5-4.8c-0.8-0.8-1.8-1.3-2.7-2c-1.8-1.5-3.7-2.9-4.7-5.2
		c-0.4-1-1.7-1.3-2.7-1.5c-0.7-0.1-1.2-0.4-1-1.1c0.3-1.1-0.3-1.4-1.1-1.4c-1.4,0-2.2-0.5-2.3-2c-0.1-0.7-0.6-1.4-1.3-1.8
		c-0.8-0.5-1.3-1.1-1.3-2c-0.1-0.9-0.6-1.4-1.3-1.9c-0.8-0.5-1.7-1.1-1.7-2.3c1.7,0.4,3,1.2,3.9,3c0.9,1.8,2.9,2.7,4.4,3.9
		c1.4,1.1,2.7,2.2,3.6,3.7c0.8,1.4,2.5,1.9,3.3,3.3c0.6,0.9,1.4,1.8,2,2.7c0.7,1.1,1.5,2,2.8,2.6c1.5,0.7,3.2,1.5,3.3,3.7
		c0.1,0.9,0.9,1.3,1.7,1.7c2.8,1.4,4.8,3.7,6.8,6c1.5,1.7,2.9,3.5,5,4.7c1.3,0.7,2.4,1.8,3.2,3C609.1,72.7,609.7,73,610.6,73z"/>
	<path class="st9" d="M647.9,113.8c0.7,1.1,1.9,1.8,2.9,2.6c2.6,2.3,4.8,5.2,7.7,7.3c1.2,0.8,2.2,2,2.8,3.4c0.4,0.9,1,1.5,1.9,1.7
		c0.9,0.3,1.5,0.9,1.6,1.9c-0.9-0.9-2.3-0.9-3.1-1.9c-0.5-0.6-1.2-1-1.3-1.8c-0.2-1-0.9-1.3-1.8-1.3c-0.6,0-1.3-0.1-1.5-0.7
		c-0.4-2.4-2.6-3.3-4.1-4.8c-0.6-0.6-1.6-0.9-1.8-2c-0.1-0.4-0.5-0.7-0.9-0.7C648.3,117.1,647.9,115.6,647.9,113.8z"/>
	<path class="st9" d="M635.5,101.3c2.5,1.7,4.3,4.1,6.5,6.2c1.6,1.6,3.3,3.1,4.9,4.7c-0.4-0.1-0.8-0.3-1.2-0.3c-1.7,0-3-0.5-3.3-2.4
		c-0.1-0.4-0.4-0.9-0.7-0.9c-1.9-0.3-2.3-2-3.1-3.2c-0.5-0.8-1.2-1.4-1.8-2C636.2,102.8,635.5,102.3,635.5,101.3z"/>
	<path class="st9" d="M646.9,112.8c0.2,0.2,0.3,0.3,0.5,0.5C647.3,113.1,647.1,113,646.9,112.8z"/>
	<path class="st9" d="M647.4,113.3c0.2,0.2,0.3,0.3,0.5,0.5C647.8,113.6,647.6,113.5,647.4,113.3z"/>
	<path class="st4" d="M516.9,556.3c0.5-0.5,1-0.5,1.6-0.5C518.1,556.5,517.5,556.3,516.9,556.3z"/>
	<path class="st4" d="M524.5,554c0.1-0.1,0.3-0.1,0.5-0.1C524.9,554.1,524.7,554.2,524.5,554z"/>
	<path class="st4" d="M521.9,554.8c0.1-0.2,0.3-0.3,0.5-0.2C522.3,554.7,522.1,554.8,521.9,554.8z"/>
	<path class="st4" d="M523,554.5c0.2,0,0.3-0.1,0.5-0.1C523.4,554.6,523.2,554.7,523,554.5z"/>
	<path class="st1" d="M259.1,139.7c-0.3-0.1-0.4-0.2-0.5-0.5C258.8,139.3,259,139.5,259.1,139.7z"/>
	<path class="st1" d="M259.6,140.2c-0.3-0.1-0.4-0.2-0.5-0.5C259.3,139.8,259.5,140,259.6,140.2z"/>
	<path class="st1" d="M246.7,127.3c-0.1-0.1-0.3-0.1-0.4-0.2C246.5,126.9,246.6,127.1,246.7,127.3z"/>
	<path class="st1" d="M284.6,165.4c-0.2,0-0.3-0.1-0.3-0.3C284.4,165.2,284.5,165.3,284.6,165.4z"/>
	<path class="st1" d="M255.2,135.6c-0.2,0-0.4-0.2-0.4-0.4C254.9,135.3,255,135.5,255.2,135.6z"/>
	<path class="st1" d="M255.7,136.1c-0.2,0-0.4-0.2-0.4-0.4C255.4,135.8,255.5,136,255.7,136.1z"/>
	<path class="st1" d="M285.1,165.9c-0.2,0-0.4-0.2-0.4-0.4C284.8,165.7,284.9,165.8,285.1,165.9z"/>
	<path class="st1" d="M285.5,166.4c-0.2,0-0.3-0.2-0.4-0.4C285.3,166.2,285.4,166.3,285.5,166.4z"/>
	<path class="st1" d="M306.5,187.3c-0.2,0-0.3-0.1-0.4-0.4C306.2,187.1,306.3,187.2,306.5,187.3z"/>
	<path class="st1" d="M307,187.8c-0.2,0-0.4-0.2-0.4-0.4C306.7,187.6,306.8,187.7,307,187.8z"/>
	<path class="st1" d="M307.4,188.3c-0.2,0-0.3-0.1-0.3-0.3C307.2,188,307.3,188.1,307.4,188.3z"/>
	<path class="st1" d="M311.9,192.7c-0.2-0.2-0.4-0.4-0.7-0.7C311.6,192.1,311.8,192.3,311.9,192.7z"/>
	<path class="st1" d="M344.8,225.3c-0.3-0.1-0.4-0.2-0.5-0.5C344.4,225,344.6,225.1,344.8,225.3z"/>
	<path class="st1" d="M345.3,225.8c-0.3-0.1-0.4-0.2-0.5-0.5C344.9,225.5,345.1,225.6,345.3,225.8z"/>
	<path class="st1" d="M347.8,228.3c-0.3-0.1-0.4-0.2-0.5-0.5C347.4,227.9,347.6,228.1,347.8,228.3z"/>
	<path class="st1" d="M348.3,228.8c-0.3,0-0.4-0.2-0.5-0.5C347.9,228.4,348.1,228.6,348.3,228.8z"/>
	<path class="st1" d="M351.8,232.2c-0.2,0-0.4-0.2-0.4-0.4C351.5,231.9,351.6,232.1,351.8,232.2z"/>
	<path class="st15" d="M672.8,436.4c0-0.4,0.2-0.8,0.6-1C673.3,435.8,673.2,436.2,672.8,436.4z"/>
	<path class="st15" d="M671.3,438.9c0-0.4,0.2-0.8,0.6-1C671.8,438.3,671.7,438.7,671.3,438.9z"/>
	<path class="st15" d="M674.4,433.4c0-0.3,0.1-0.4,0.4-0.5C674.7,433,674.6,433.2,674.4,433.4z"/>
	<path class="st15" d="M673.3,435.4c0-0.3,0.2-0.6,0.4-0.7C673.8,435,673.6,435.2,673.3,435.4z"/>
	<path class="st15" d="M675,432.4c0-0.2,0.1-0.4,0.3-0.5C675.2,432.1,675.1,432.2,675,432.4z"/>
	<path class="st15" d="M672.4,436.9c0-0.3,0.1-0.5,0.4-0.5C672.7,436.5,672.5,436.7,672.4,436.9z"/>
	<path class="st15" d="M671.8,437.9c0-0.3,0.2-0.5,0.5-0.7C672.3,437.5,672.1,437.7,671.8,437.9z"/>
	<path class="st15" d="M673.9,434.4c0-0.3,0.2-0.5,0.4-0.6C674.2,434,674,434.2,673.9,434.4z"/>
	<path class="st15" d="M670.3,440.4c0-0.3,0.2-0.5,0.5-0.7C670.8,440,670.6,440.2,670.3,440.4z"/>
	<path class="st15" d="M670.9,439.4c0-0.3,0.1-0.5,0.4-0.5C671.2,439,671,439.2,670.9,439.4z"/>
	<path class="st15" d="M676.4,429.9c0-0.3,0.1-0.4,0.4-0.6C676.7,429.5,676.6,429.7,676.4,429.9z"/>
	<path class="st15" d="M675.9,430.9c0-0.3,0.2-0.5,0.4-0.6C676.1,430.5,676,430.7,675.9,430.9z"/>
	<path class="st15" d="M675.3,431.9c0-0.3,0.2-0.6,0.4-0.7C675.7,431.5,675.6,431.7,675.3,431.9z"/>
	<path class="st1" d="M262.6,108.8c0,0.7,0,1.3,0,2C261.9,110.1,261.9,109.5,262.6,108.8z"/>
	<path class="st1" d="M263.1,107.3c0,0.4-0.1,0.8-0.4,1.1C262.6,108,262.7,107.6,263.1,107.3z"/>
	<path class="st1" d="M264.1,105.3c-0.2,0.2-0.3,0.5-0.5,0.7C263.7,105.7,263.9,105.5,264.1,105.3z"/>
	<path class="st1" d="M263.5,106.3c0,0.3-0.1,0.5-0.4,0.6C263.3,106.8,263.4,106.6,263.5,106.3z"/>
	<path class="st1" d="M264.6,104.8c0,0.3-0.2,0.5-0.4,0.5C264.3,105.2,264.4,105,264.6,104.8z"/>
	<path class="st1" d="M265,104.3c0,0.3-0.2,0.4-0.4,0.5C264.7,104.6,264.9,104.5,265,104.3z"/>
	<path class="st1" d="M265.4,103.9c0,0.2-0.1,0.3-0.4,0.4C265.2,104.1,265.3,104,265.4,103.9z"/>
	<path class="st1" d="M634.9,483.1c0.5-0.4,1.1-0.5,1.6-0.5C636.1,483.3,635.5,483.2,634.9,483.1z"/>
	<path class="st1" d="M636.5,482.7c0.2-0.4,0.6-0.5,1-0.5C637.3,482.6,636.9,482.7,636.5,482.7z"/>
	<path class="st1" d="M637.5,482.2c0.2-0.4,0.6-0.5,1-0.6C638.3,482.1,637.9,482.2,637.5,482.2z"/>
	<path class="st28" d="M705.7,347.3c0-0.9-0.1-1.8,0.4-2.6C706.1,345.6,706.5,346.5,705.7,347.3z"/>
	<path class="st28" d="M705.2,349.8c0-0.7-0.1-1.5,0.4-2.1C705.6,348.4,705.9,349.2,705.2,349.8z"/>
	<path class="st5" d="M535.9,17.2c0,0.1-0.1,0.2-0.1,0.2C535.7,17.4,535.7,17.3,535.9,17.2C535.9,17.2,535.9,17.2,535.9,17.2z"/>
	<path class="st7" d="M428.9,429.9c-0.1-1.1-0.9-0.9-1.6-1c-2.9-0.1-5.8,0.4-8.6,0.7c-2.5,0.3-4.9,0.6-7.4,0.4
		c-4-0.3-7.1-2.1-9.2-5.5c-2.4-3.8-3.8-8.1-4.4-12.5c-1-6.6-0.2-13.2,0.7-19.8c0.5-3.7,2.1-7.3,3.7-10.7c1.1,3.2,4.3,4.4,6.2,6.8
		c2.3,2.7,5.8,4.2,7.4,7.6c0.2,0.4,0.6,0.6,0.7,1c0.3,2,1.2,3,3.3,2.7c0.4-0.1,1,0.1,1.1,0.5c0.9,2.5,3.7,3.4,4.7,5.8
		c1.3,3.2,4.7,4.5,7.1,7.3c0.4-2,0.1-3.8,0.3-5.4c0.1-1.1-0.3-2.4,0.7-3.3c0.8,3.3,0.5,6.6,0.3,9.9c-0.3,3.7-1.2,7.3-2.3,10.9
		c-0.8,2.6-0.8,2.7,1.8,2.6c6.5-0.1,12.9,1,19,3.3c6.7,2.5,12.8,6.2,18.5,10.6c8.4,6.4,15.7,14,23.3,21.3c0.2,0.2,0.5,0.5,0.3,1
		c-1.3,0.1-2.6,0.3-4,0.5c-8.3,0.9-16.6,2.1-25,2.2c-0.8,0-1.7,0-2.5,0c0.7-1.4,0.2-2.1-0.9-3.3c-2.2-2.5-5.1-4.4-6.9-7.1
		c-1.5-2.3-3.7-3.8-5.4-5.9c-1-1.3-2.3-2.6-3.9-3.3c-1.1-0.5-2.1-1.1-2.7-2.2c-1.8-3.2-4.9-5.1-7.4-7.6
		C433.4,434.9,431.4,432.2,428.9,429.9z"/>
	<path class="st15" d="M488.4,271.3c0.6-0.4,1.1-0.1,1.5,0.1c10.8,4.2,21.4,9,30.8,15.9c5.9,4.4,11.4,9.1,16.1,14.7
		c2.6,3.2,4.1,7,4.4,11.1c0.1,1.4,0,2.7-0.3,3.9c-2,7-5.6,12.8-13,14.7c-7.9,2.1-15.1,0.3-20.6-6.3c-1.8-2.2-3.4-4.5-4.6-7.1
		c-5.2-11.5-9.6-23.3-12.3-35.6C489.6,279.1,488.7,275.2,488.4,271.3z"/>
	<path class="st29" d="M476.7,383.5c0.8,5-0.2,9.5-3.8,13c-4.8,4.7-10.7,6.8-17.5,6.1c-4.7-0.5-8.2-2.9-11-6.5
		c-3.3-4.3-5.1-9.1-5.5-14.4c-0.7-9.9,0.7-19.5,3.4-29c0.4-0.2,0.9-0.1,1.1,0.2c1.7,2.3,4.5,3.5,6.3,5.8c1.6,2.1,4,3.4,5.4,5.7
		c2.4,3.8,6.6,5.8,9.2,9.3c2.8,3.8,6.8,6.5,9.7,10.1C475.4,385.4,476,384.8,476.7,383.5z"/>
	<path class="st18" d="M551.6,279.1c-3.6,4.7-8.6,5.7-14,4.7c-7.3-1.3-13.7-4.9-19.5-9.4c-6.2-4.7-11.2-10.6-15.7-16.9
		c-3.8-5.2-7.2-10.7-10.6-16.2c-0.2-0.3-0.4-0.7-0.5-1c0.2-0.6,0.7-0.5,1.1-0.5c7-0.1,14.1,0.2,21.1,0.5c0.6,0,1.2,0,1.7,0.4
		c-2.3,1.3-1.9,0.9-0.2,2.9c3.1,3.5,7.2,6,9.8,10c0.9,1.5,2.1,2.6,3.6,3.6c2.2,1.5,3.7,3.8,5.4,5.7c2.9,3.3,6.6,5.7,9.5,9
		c1.6,1.8,3.6,3.2,4.9,5.2C549.1,278.5,550.1,279.1,551.6,279.1z"/>
	<path class="st21" d="M556.5,176.1c-3.4,6.2-13.2,11.5-20.1,10.8c-5.4-0.5-9.4-3.6-12.4-7.9c-4-5.6-6.4-12-8-18.6
		c-1.9-7.8-2.8-15.8-4-23.8c-0.2-1.3-0.7-2.6-0.5-3.9c2.3-0.1,3.2,1.9,4.3,3.3c2.8,3.4,6.1,6.3,9.5,9.3c3.1,2.8,6,5.9,8.7,9.1
		c1.2,1.5,2.5,2.9,4.1,3.9c0.7,0.5,1.3,1.1,1.6,1.8c0.3,0.6,0.6,1.4,1.2,1.5c2.4,0.4,3.1,2.5,4.5,4c3,3.3,5.7,6.8,9.6,9.1
		C555.6,175.1,556.2,175.4,556.5,176.1z"/>
	<path class="st19" d="M473.2,312.3c0-2.5,0-5,0-7.5c0.5,0,0.8-0.1,0.9,0c9.4,6.5,18.5,13.4,26.4,21.8c5.8,6.2,10.5,13.2,14,21
		c1.4,3.1,2.4,6.4,2.1,9.9c-0.2,3-1.2,5.6-3.4,7.8c-0.3,0.2-0.7,0.2-0.9-0.1c-2.1-2.7-5.3-4.2-6.9-7.4c-0.6-1.2-1.6-2.2-2.7-2.9
		c-2.3-1.6-4-3.9-6.5-5.2c-0.6-0.3-1-0.8-1.4-1.4c-2.2-3.8-5.3-6.7-8.6-9.5c-2.7-2.3-5-5.1-7.6-7.5c-1.6-1.5-3.1-3.2-4.9-4.5
		c-0.5-0.4-0.8-0.8-0.8-1.4C473.1,321.1,472.7,316.7,473.2,312.3z"/>
	<path class="st29" d="M521.1,429.4c-3.4,1.2-6.9,1.4-10.5,1.9c-5.5,0.7-11.1,0.7-16.6,0.5c-2.9-0.1-5.8-0.6-8.5-1.7
		c-7.4-2.9-9.6-8-9.6-14.4c0-3.6,0.6-7.1,2.3-10.3c2.6-5,6.8-7.8,12.4-8.3c0,0.6-0.5,1.1,0.3,1.8c3.5,3.1,6.7,6.5,9.7,10
		c0.7,0.9,1.9,1,2.6,1.8c4.5,4.7,9.2,9.1,13.4,14C518,426.4,519.7,427.8,521.1,429.4z"/>
	<path class="st1" d="M473.2,312.3c0,4.1,0,8.1,0,12.2c0,1,0,1.9,1.3,1.9c0.3,0,0.7,0.2,0.8,0.5c0.6,1.4,1.9,2,2.9,2.9
		c1.8,1.6,3,3.8,5.4,4.8c0.2,0.1,0.4,0.5,0.5,0.8c0.2,0.9,0.8,1.5,1.4,2c2.2,1.6,4.1,3.5,6,5.4c1.4,1.5,3,2.9,3.7,4.9
		c0.3,0.9,1.1,1.4,2,1.8c0.5,0.2,1.3,0.2,1.5,0.7c1.4,2.7,4.5,3.4,6.3,5.7c0.2,0.3,0.6,0.4,0.7,0.7c0.5,2.7,3,3.9,4.7,5.5
		c1,1,1.5,2.4,2.8,3.1c-3.4,4.3-7.9,6.8-13.1,7.9c-6.2,1.3-11-1.1-14.9-5.8c-3.1-3.7-5.2-7.9-6.9-12.3c-3.1-7.8-4.6-15.9-5.1-24.2
		c-0.3-5.4-0.4-10.8-0.3-16.2C472.9,313.9,472.7,313.1,473.2,312.3z"/>
	<path class="st17" d="M521.1,429.4c-0.5,0-1.1,0.1-1.4-0.4c-0.7-1.4-1.6-2.5-3.1-3c-0.9-2.2-3.4-3.1-4.3-5.4
		c-0.1-0.2-0.3-0.5-0.5-0.6c-2.3-1.2-3.3-3.7-5.3-5.3c-1.3-1.1-3-1.8-3.6-3.6c-2.2-0.6-3.1-2.7-4.6-4.1c-1.9-1.8-4.2-3.2-5.3-5.8
		c-0.5-1.1-1.8-1.4-2.7-2.2c-1.3-1-1.3-1.1,0.2-2.1c1.5-0.5,3.1-0.5,4.7-0.4c10.8,0.6,20.8,3.6,30.2,8.9c7.5,4.2,14.4,9.4,21,14.9
		c0.1,0.1,0.2,0.3,0.3,0.6c-1.6,1-3.4,1.5-5.1,2.2c-6.3,2.5-12.8,4.6-19.4,6.1C521.9,429.4,521.5,429.4,521.1,429.4z"/>
	<path class="st21" d="M592.7,204.9c-0.9,3-2.3,5.7-4.3,8c-3.1,3.7-7.2,5.3-11.9,4.8c-4.8-0.6-9.4-2.2-13.3-5.1
		c-4.9-3.7-6.6-8.7-6.1-14.6c0.6-7.3,4.1-13.2,8.8-18.5c6.6,6.1,13,12.5,19.7,18.6c0.9,0.8,1.5,1.7,2.1,2.7
		C588.8,202.8,590.4,204.3,592.7,204.9z"/>
	<path class="st24" d="M551.6,279.1c-1.7,0.7-2.4,0.7-3.2-0.7c-0.8-1.5-2.1-2.6-3.2-3.8c-1.8-1.9-4.1-3.4-5.6-5.6
		c-0.2-0.3-0.4-0.5-0.7-0.7c-3.2-1.7-5.1-4.8-7.7-7.2c-1.6-1.5-2.5-3.5-4.8-4.4c-0.9-0.4-1.7-1.6-2.1-2.6c-1.1-2.7-3.7-3.9-5.7-5.8
		c-0.6-0.6-1.2-1-1.7-1.8c-0.7-1.2-1.5-2.4-2.9-2.9c-0.2-0.1-0.4-0.2-0.6-0.4c-0.6-0.6-1.3-1.3-1-2.1c0.3-0.7,1.2-0.3,1.8-0.4
		c0.3,0,0.7,0,1,0c0.5,0,0.9,0.1,1.4,0.1c1.2,0.6,2.4-0.1,3.6,0.4c9,0.7,17.5,3.2,25.5,7.4c2.8,1.5,5.4,3.2,7.7,5.4
		c4.5,4.6,5.8,9.9,3.5,15.9C555.5,273.2,554.2,276.5,551.6,279.1z"/>
	<path class="st7" d="M433.4,404.4c0,2.9,0,5.8-0.1,8.7c0,0.4,0.1,0.9-0.4,1.1c-0.5,0.2-0.7-0.2-1-0.5c-1.3-1.5-2.7-2.8-4.5-3.9
		c-1.3-0.8-2.5-2.4-2.9-4.1c-0.3-1.1-0.4-1.7-1.6-1.6c-0.9,0-1.2-0.6-1.4-1.4c-0.8-2.6-0.8-2.6-3.4-2.3c-1.2,0.1-1.8-0.3-2-1.6
		c-0.5-2.8-2.4-4.7-4.3-6.6c-0.8-0.8-1.6,0.3-2.5-0.3c0.6-1.5-0.1-2.3-1.4-3.2c-1.4-1-2.7-2.1-4.1-3c-1.3-0.9-1.4-2.5-1.6-4
		c0.7-2.7,1.9-5.3,3-7.9c2-4.7,4-9.4,6-14.2c0.2-0.4,0.3-0.8,0.7-1c0.9,0.6,1.2,1.6,1.7,2.4c4.9,8.1,10.1,15.9,14.3,24.5
		c2.5,5.2,4.5,10.5,5.5,16.2C433.3,402.4,433.5,403.4,433.4,404.4z"/>
	<path class="st17" d="M476.7,383.5c-0.2,0.8,0.5,2-0.7,2.4c-1,0.4-1.6-0.7-2.1-1.4c-1.7-2-3.4-4-5.7-5.3c-0.7-0.4-0.9-1.1-1.3-1.8
		c-1.2-1.9-2.8-3.5-4.6-4.8c-0.6-0.4-1-0.9-1.2-1.5c-0.5-1.1-1.1-2-2.5-2.1c-0.6,0-1.1-0.5-1.4-0.9c-1.3-1.5-2.3-3.2-3.6-4.8
		c-0.6-0.7-1-1.5-1.8-1.9c-1.4-0.8-2.5-1.9-3.2-3.3c-0.1-0.2-0.2-0.6-0.4-0.6c-2.7-0.7-3.6-3.5-5.8-4.8c0.4-3.5,1.6-6.7,2.4-10.1
		c0.9-4,2-8,2.7-12.1c0.1-0.5,0.3-0.9,0.4-1.4c0.6-0.1,0.8,0.3,1,0.6c5.4,7.1,11,14.1,15.8,21.7c4.8,7.5,8.7,15.4,10.8,24.1
		c0.2,0.6,0.2,1.3,0.3,2c0.3,0.5,0,1.1,0.4,1.6c0,0.3,0.1,0.6,0.1,0.9c0.4,0.6,0,1.4,0.4,2.1C476.7,382.6,476.7,383,476.7,383.5z"/>
	<path class="st14" d="M428.9,429.9c2.7,1.2,4.4,3.3,5.9,5.6c0.2,0.3,0.2,0.7,0.4,0.9c1.7,0.8,2.7,2.4,4.2,3.4
		c1.6,1.1,2.7,2.4,3.6,4c0.6,1,1.2,1.8,2.2,2.3c2.4,1.3,4.7,2.6,5.7,5.3c2.4,0.7,3.1,2.8,4.3,4.6c1,1.3,2.9,1.9,3.3,3.8
		c0,0.2,0.4,0.5,0.6,0.4c2-0.6,2,0.9,2.4,2.2c0.2,0.6,0.7,0.8,1.3,1.1c1.9,1.1,1.9,2.1,0,3.3c-1.5,0.2-3,0.2-4.5,0
		c-0.2-0.1-0.3-0.1-0.5,0c-0.5,0-1,0-1.6,0c-1-0.3-2.1,0.1-3.1-0.3c-8.4-0.4-16.4-2.5-23.6-6.7c-4.6-2.6-6.6-6.7-6.2-12.1
		c0.2-4,1.5-7.6,2.8-11.3C426.9,434.1,427.6,431.9,428.9,429.9z"/>
	<path class="st31" d="M569.8,249.2c0.8-1.8,2.2-3,3.4-4.5c3.4-3.8,7.1-7.4,11.2-10.4c0.4-0.3,0.8-0.5,1.3-0.7
		c2.4,5.5,6.6,9.4,11.2,12.9c0.7,0.5,1.7,0.9,2.1,1.7c1.8,3.8,5.5,5.6,8.2,8.5c-2.9,6-6.3,11.6-11.1,16.2c-0.7,0.7-1.5,1.3-2.4,1.7
		c-2.3-0.7-3-3.1-4.5-4.6c-1.8-1.9-3.4-4-5.7-5.4c-0.1-0.1-0.3-0.2-0.4-0.3c-2.8-4-6.9-6.8-10-10.5c-0.8-0.9-1.6-1.9-2.5-2.7
		C570,250.6,569.2,250.2,569.8,249.2z"/>
	<path class="st32" d="M566.3,379c-0.1,0.1-0.2,0.2-0.4,0.2c-0.3,0.1-0.5,0.2-0.7,0.4l0,0c-0.2,0.3-0.7,0.2-1,0.6l0,0
		c-2.5,0.4-4.7-1.1-5.6-2.6c-2.8-4.6-7.4-7.2-10.9-10.9c-2.7-2.9-5.5-5.7-8.2-8.5c-0.6-0.6-1.2-1.3-1.9-1.9c-0.6-0.5-1.4-1-0.7-2
		c0.1-0.1,0.3-0.1,0.4,0c2.3-0.6,4.7,0.1,7.1-0.4c5.3-0.4,10.6-0.1,15.9,0.6c9.1,1.1,17.9,3.4,26.4,6.8c0.6,0.2,1.3,0.3,1.8,0.9
		c-1.3,1.7-3,2.8-4.6,4.2c-4.9,4.2-10.1,8.1-15.5,11.6c-0.5,0.3-0.9,0.7-1.5,0.8C566.7,378.8,566.5,378.9,566.3,379z"/>
	<path class="st30" d="M556.5,176.1c-2.9-1.1-5.4-2.7-6.9-5.5c-0.2-0.4-0.3-0.8-0.8-0.9c-2.8-0.7-3.4-3.4-4.9-5.3
		c-0.7-0.9-1.2-1.9-2.6-1.9c-1,0-1.6-0.8-1.9-1.7c-0.3-1.1-0.9-1.7-1.9-2.2c-0.4-0.2-0.9-0.5-1.2-0.9c-2.1-2.2-4.3-4.2-6-6.8
		c-0.3-0.4-0.7-0.7-1.1-1c-1.2-1-2.4-2-3.3-3.4c-0.3-0.5-0.6-1.1-1.2-1.2c-1.3-0.3-2.4-0.6-2.5-2.2c0-0.1-0.2-0.3-0.3-0.3
		c-2.9-1.4-4.6-4.1-6.6-6.4c-1.2-1.4-2.3-2.8-3.9-3.7c-0.8-3-1.2-6.1-1.8-9.5c5.2,2.7,9.9,5.5,14.5,8.4c9.5,6,18.3,12.9,25.9,21.2
		c3,3.3,5.8,6.8,7.3,11.1C558.9,168.1,559.1,172.2,556.5,176.1z"/>
	<path class="st18" d="M555.3,307.3c4.4-3.6,9.1-6.8,14.5-8.8c1.1,1.4,3.1,1.8,4.1,3.1c3.1,4.1,7.6,6.8,10.6,10.9
		c1.7,2.3,4.2,3.6,6.1,5.8c0.9,1.1,1.9,2.1,2.2,3.5c-4.3,5-9.2,9.3-14.9,12.4c-1.6,0.8-2.7-0.2-3.6-1.3c-0.7-0.9-1.7-1.6-2.4-2.5
		c-1.8-2.5-4.3-4.2-6.4-6.5c-2.5-2.7-4.7-5.8-7.9-7.8c-2-1.2-2.9-3.6-4.4-5.3c-0.6-0.7-0.1-1.4,0.4-2l0,0c0.1-0.2,0.3-0.3,0.5-0.4
		l0.1-0.1c0.1-0.2,0.2-0.3,0.4-0.4c0.1-0.1,0.2-0.2,0.3-0.2C555,307.8,555.2,307.6,555.3,307.3z"/>
	<path class="st10" d="M592.7,204.9c-0.9,0.6-1.8,0.3-2.5-0.3c-1-0.9-2.1-1.7-2.7-2.8c-1.7-3.1-4.4-5.1-6.8-7.4
		c-2.2-2.1-4.7-3.8-6.6-6.3c-1.9-2.6-5-4-7-6.5c-0.5-0.6-1.3-1.1-1.3-2c4.2-5.6,9-10.6,14.4-15c2.2,0.5,3.3,2.4,4.7,3.8
		c3.3,3.3,6.5,6.6,10,9.7c1.4,1.2,2.6,2.5,3.8,3.9c-0.3,7.1-2.1,13.9-4.8,20.5C593.6,203.3,593.4,204.2,592.7,204.9z"/>
	<path class="st19" d="M536.9,354.2c0,0.2,0,0.6,0.1,0.7c2.2,1.2,3.1,3.7,5.2,5.1c0.6,0.4,1.2,0.9,1.6,1.5c2.2,3.3,5.8,5.3,8.1,8.5
		c0.5,0.7,1.3,0.6,1.9,1.1c2,1.7,3.8,3.5,4.9,5.9c0.1,0.2,0.2,0.6,0.3,0.6c2.2,0,3.1,2.4,5.2,2.6c-1.7,1.5-3.8,2.3-5.8,3.3
		c-3.6,1.8-7.2,3.6-11.2,4.6c-1.2,0.6-2.1,0-3.2-0.7c-3.3-2.1-5.4-5.5-8.3-8.1c-3.1-2.8-6.2-5.7-9-8.8c-1.9-2.1-3.7-4.5-6.4-5.8
		c-0.5-0.2-0.8-0.8-0.6-1.5l0,0c0.1-0.2,0.3-0.3,0.4-0.6l0,0c0.4-0.2,0.3-0.7,0.6-1l0,0c0.2-0.2,0.3-0.3,0.5-0.5l0,0
		c0.2-0.1,0.4-0.3,0.5-0.6l0,0c0.3-0.1,0.5-0.4,0.5-0.7C526.3,355.6,531.3,354.2,536.9,354.2z"/>
	<path class="st33" d="M539.4,234.3c-5.1,0.4-9.9-0.9-14.5-2.9c-14.8-6.7-27.7-16.2-38.7-28.2c-0.2-0.2-0.3-0.4-0.5-0.7
		c1.2-0.9,2.6-1,3.9-1.4c5-1.4,10-2.8,15.3-3.2c4,4.2,8.3,8.2,12.3,12.5c5.9,6.4,12.5,12.1,18.5,18.3
		C537.4,230.3,539.7,231.5,539.4,234.3z"/>
	<path class="st21" d="M607.2,256.7c-0.6,0.2-1.1,0.3-1.5-0.3c-1.1-1.7-2.8-2.8-4.3-3.9c-1.2-0.9-1.8-2.1-2.4-3.4
		c-0.5-1-1.3-1.5-2.3-2.1c-1.7-1.1-3.3-2.3-4.7-3.9c-1.2-1.6-2.7-3-4.1-4.5c-1.3-1.4-2.6-2.8-2.2-4.9c2.1-2.1,4.7-3.4,7.1-4.9
		c7.6-4.6,15.7-8.1,24.1-11.1c0.3-0.1,0.6-0.1,1-0.2c0.5,1.7-0.1,3.2-0.4,4.7c-1.7,10.6-4,21-8.4,30.8c-0.1,0.3-0.3,0.6-0.5,0.8
		c-0.3,0.3-0.3,0.7-0.5,1l0,0c-0.4,0.3-0.3,0.8-0.5,1.1c0,0.2,0,0.3-0.1,0.4C607.4,256.4,607.3,256.6,607.2,256.7L607.2,256.7z"/>
	<path class="st24" d="M592.7,321.9c-1.4-1-2.1-2.6-3.4-3.8c-2.4-2.4-5.3-4.3-7.1-7.4c-0.6-1-1.4-1.5-2.4-2
		c-1.5-0.7-2.5-1.8-3.3-3.2c-1.2-2-2.7-3.8-5-4.5c-1.2-0.4-1.5-1.4-1.7-2.5c0.1-0.1,0.2-0.1,0.3-0.1c0.4-0.2,0.9-0.1,1.2-0.5l0,0
		c0.3-0.2,0.7-0.2,1-0.4c0.1-0.1,0.2-0.1,0.3-0.1c0.4-0.2,0.8-0.1,1.2-0.4c3.3-1.5,6.9-2.2,10.5-2.7c8.9-1.4,17.9-1.5,26.9-0.7
		c0.2,0.4,0.1,0.7-0.1,1c-4.8,8.9-10,17.5-16.5,25.3C594,320.7,593.5,321.4,592.7,321.9z"/>
	<path class="st31" d="M522.5,196c5.5-0.4,11-0.8,16.6-0.1c2.6,0.3,5,0.9,7.4,2c3.5,1.6,6.1,4.2,7.7,7.7c3.7,8.3,3.4,16-2.8,23.1
		c-2.8-0.9-4.5-3.1-6.5-5c-3.9-3.8-7.3-8.2-11.8-11.4c-1.1-0.8-1.9-1.8-2.7-2.9c-2.9-3.7-6.6-6.6-9.8-10c-0.7-0.7-1.6-1.4-1.3-2.5
		c0.4-1.4,1.7-0.6,2.6-0.8C522,196.1,522.3,196.1,522.5,196z"/>
	<path class="st3" d="M324.9,471.7l-0.2,0.1l-0.2,0c-0.8,0.5-1.8-0.1-2.6,0.4c-3.3,0.9-6.7,1.1-10.1,1.5
		c-10.2,1.2-20.5,1.8-30.7,2.4c-3.1,0.2-6.1-0.4-8.8-2.2c-3.1-2.1-4.1-5.9-2.3-9.2c0.9-1.6,2.3-2.2,4.5-1.8c2,0.4,4,0.9,6.1,1
		c8.2,0.4,16.4,0.5,24.6,0c4.4-0.2,8.8-0.5,13.1-0.7c1.1,1.1,2.2,2.1,3.6,2.9C324,467.3,325.3,469.1,324.9,471.7z"/>
	<path class="st34" d="M522.5,196c-0.5,0.6-1.2,0.4-1.8,0.5c-1.2,0.2-1.5,0.9-0.6,1.6c1.4,1.3,2.8,2.5,3.7,4.2
		c0.1,0.2,0.4,0.4,0.6,0.4c1.6-0.1,2.3,1.2,3,2.2c2.6,3.9,6.2,6.9,9.8,9.9c1.6,1.3,2.8,3.1,4.3,4.4c2.4,2.1,4.1,5,6.8,6.7
		c1.2,0.7,1.9,2.1,3.1,2.8c-3.1,3.6-7.1,5.5-11.9,5.5c-0.7-1.7-1.7-3.2-3.1-4.4c-3.2-2.7-5.9-5.9-8.9-8.9
		c-3.5-3.5-7.5-6.4-10.7-10.2c-0.9-1-1.7-2.1-2.5-3.3c-1.1-1.6-2.8-3-4.4-4.2c-1.9-1.3-3-3.2-4.6-4.8c-0.1-0.1-0.1-0.5-0.2-0.7
		c0,0,0,0,0,0c0.8-0.5,1.8,0.1,2.5-0.4C512.5,196.5,517.5,196,522.5,196z"/>
	<path class="st35" d="M324.9,471.7c-0.5-1.5-0.9-3.2-2.1-4.4c-0.5-0.4-0.9-1-1.6-1.1c-1.9-0.2-2.4-1.5-2.7-3
		c3.1-0.8,6.4-0.9,9.6-1.3c9.2-1.3,18.3-3.1,27.3-5.3c3.7-0.9,7.4-2,11.1-2.6c3.6-0.6,10.8,0.1,13.6,2c-0.8,0.7-1.7,0.9-2.6,1.3
		c-15.4,6.3-31.3,10.8-47.6,13.8C328.2,471.4,326.5,471.9,324.9,471.7z"/>
	<path class="st26" d="M553.4,309c-0.2,0.8-0.4,1.6,0.5,2.2c0.8,0.6,1.4,1.4,1.9,2.3c0.8,1.3,1.7,2.4,3.2,3c0.5,0.2,1,0.6,1.3,1.1
		c2,2.7,4.9,4.5,6.7,7.5c0.2,0.3,0.5,0.7,0.9,0.8c1.7,0.7,2.9,1.9,3.6,3.6c0.2,0.6,0.7,0.8,1.3,1c0.8,0.2,1.3,0.7,1.6,1.5
		c0.6,1.7,1.9,2.3,3.6,2.5c-3.1,2.4-6.4,4.3-10.3,5.1c-4.2,0.9-7.9,0-11.2-2.6c-5.1-4-7.8-9.5-8.2-15.8
		C547.7,316.2,549.7,312.2,553.4,309z"/>
	<path class="st36" d="M520,363.2c0.4,0.8,1,1.2,1.8,1.6c1.8,0.9,3.1,2.4,4.4,4c1.3,1.6,2.9,3.1,4.4,4.6c0.5,0.5,1.1,0.9,1.5,1.6
		c0.2,0.4,0.4,0.8,0.7,1c3.6,1.9,5.7,5.3,8.3,8.2c0.8,0.9,5,3.7,6.2,3.9c-4.4,2-9.1,3.2-13.9,2.9c-4.9-0.3-8.8-2.5-11.7-6.5
		c-4-5.6-5.1-11.7-3.2-18.3C518.9,365.1,519.1,364,520,363.2z"/>
	<path class="st37" d="M569.8,249.2c0,0.2,0,0.4,0.1,0.5c3.2,2.7,5.3,6.5,8.9,8.8c0.8,0.5,1.4,1.4,2,2.2c1.2,1.5,2.3,3.1,4.1,4.1
		c1.5,0.8,2.6,2.3,3.8,3.6c1.7,2,3.3,4.1,4.9,6.1c-3.9,2.9-8.2,3.3-12.7,2.1c-5.1-1.3-9.1-4.4-12.1-8.6c-3.7-5.2-3.5-10.7-0.8-16.2
		C568.5,251,568.9,249.9,569.8,249.2z"/>
	<path class="st38" d="M598.6,182c-0.7,0-1.2-0.5-1.7-0.9c-1.7-1.8-3.4-3.6-5.4-5c-0.7-0.5-1.3-1.1-1.8-1.7c-0.9-1.3-1.6-2.7-3.4-3
		c-0.1,0-0.3-0.2-0.4-0.3c-1.3-2.8-4-4.2-5.9-6.5c0,0,0,0,0,0c0.2-0.1,0.4-0.3,0.5-0.5c1.7-1.9,3.8-3.4,5.8-5
		c3.3-2.7,6.8-5.3,10.2-7.9c0.4-0.3,0.7-0.7,1.4-0.7c0.6,3.5,0.7,7,0.6,10.5c0.3,6.6,0.3,13.1,0,19.7
		C598.8,181.1,598.8,181.6,598.6,182z"/>
	<path class="st10" d="M598.7,180.7c0-6.6,0-13.1,0-19.7c0.3,0.4,0.3,0.9,0.3,1.4c0.2,5.5,0.2,11.1,0,16.6
		C599.1,179.6,599.1,180.2,598.7,180.7z"/>
	<path class="st19" d="M544.4,353.8c-1.3,0.9-2.7,0.3-4.1,0.4c-1,0.1-2,0-3,0C539.6,353.6,542,353.8,544.4,353.8z"/>
	<path class="st18" d="M520.1,241.2c-1.2-0.1-2.5,0.4-3.6-0.4C517.8,240.8,519,240.6,520.1,241.2z"/>
	<path class="st7" d="M453.1,466.3c1,0,2.1-0.4,3.1,0.3C455.2,466.7,454.1,466.8,453.1,466.3z"/>
	<path class="st35" d="M321.9,472.2c0.8-0.8,1.7-0.4,2.6-0.4C323.7,472.3,322.8,472.2,321.9,472.2z"/>
	<path class="st33" d="M507.5,197.5c-0.7,0.8-1.7,0.4-2.5,0.4C505.8,197.3,506.7,197.4,507.5,197.5z"/>
	<path class="st29" d="M476.6,382.1c-0.7-0.6-0.4-1.4-0.4-2.1C476.7,380.7,476.7,381.4,476.6,382.1z"/>
	<path class="st29" d="M476.1,379.1c-0.6-0.4-0.4-1-0.4-1.6C476.2,378,476.2,378.5,476.1,379.1z"/>
	<path class="st31" d="M608.2,254.7c0-0.4,0-0.8,0.5-1C608.6,254.1,608.6,254.5,608.2,254.7z"/>
	<path class="st31" d="M607.7,255.8c0-0.5,0-0.9,0.5-1.1C608.2,255.1,608.1,255.5,607.7,255.8z"/>
	<path class="st36" d="M521,361.7c0,0.4-0.1,0.8-0.6,1C520.5,362.3,520.6,361.9,521,361.7z"/>
	<path class="st19" d="M564.3,380.2c0.2-0.4,0.5-0.5,1-0.6C565.1,380,564.7,380.1,564.3,380.2z"/>
	<path class="st18" d="M573.8,297c-0.3,0.5-0.7,0.5-1.2,0.4C572.9,297.1,573.3,297,573.8,297z"/>
	<path class="st18" d="M572.3,297.5c-0.2,0.4-0.6,0.5-1,0.4C571.5,297.6,571.8,297.5,572.3,297.5z"/>
	<path class="st18" d="M571.3,297.9c-0.2,0.5-0.7,0.5-1.2,0.5C570.4,298,570.8,297.9,571.3,297.9z"/>
	<path class="st7" d="M457.8,466.7c0.2-0.2,0.3-0.2,0.5,0c0,0-0.2,0.1-0.2,0.1L457.8,466.7z"/>
	<path class="st10" d="M580.7,164c-0.2,0.2-0.4,0.3-0.5,0.5C580.3,164.3,580.5,164.1,580.7,164z"/>
	<path class="st31" d="M607.2,256.7c0.1-0.2,0.2-0.4,0.4-0.6C607.5,256.5,607.4,256.7,607.2,256.7z"/>
	<path class="st26" d="M555.3,307.3c-0.1,0.4-0.3,0.5-0.7,0.6C554.9,307.7,555.1,307.5,555.3,307.3z"/>
	<path class="st26" d="M554.3,308.1c-0.1,0.1-0.3,0.3-0.4,0.4C554,308.2,554.1,308.1,554.3,308.1z"/>
	<path class="st26" d="M553.9,308.5c-0.2,0.1-0.3,0.3-0.5,0.4C553.5,308.7,553.6,308.6,553.9,308.5z"/>
	<path class="st36" d="M522.4,360c0,0.3-0.2,0.6-0.5,0.7C522,360.4,522.2,360.2,522.4,360z"/>
	<path class="st36" d="M522,360.6c-0.1,0.3-0.2,0.5-0.5,0.6C521.5,360.9,521.7,360.7,522,360.6z"/>
	<path class="st36" d="M521.5,361.2c-0.2,0.2-0.3,0.4-0.5,0.5C521.1,361.4,521.2,361.3,521.5,361.2z"/>
	<path class="st36" d="M520.5,362.6c-0.1,0.2-0.3,0.4-0.4,0.6C520.1,362.9,520.2,362.7,520.5,362.6z"/>
	<path class="st19" d="M566.3,379c0.2-0.1,0.4-0.2,0.5-0.4C566.8,378.9,566.6,379,566.3,379z"/>
	<path class="st19" d="M565.3,379.6c0.1-0.3,0.4-0.4,0.7-0.4C565.8,379.4,565.6,379.6,565.3,379.6z"/>
</g>
</svg>
